<?xml version="1.0" encoding="UTF-8" standalone="no"?>
<svg xmlns="http://www.w3.org/2000/svg" version="1.1" viewBox="0.00 0.00 750.00 750.00">
  <path fill="#2e3192" d="   M 542.92 604.53   A 0.33 0.33 0.0 0 0 542.93 605.10   Q 554.53 611.77 564.22 620.75   Q 564.59 621.09 564.50 621.58   Q 564.38 622.30 563.65 623.89   Q 540.71 673.29 516.48 719.86   Q 516.18 720.44 515.61 720.11   Q 502.12 712.19 485.73 705.63   Q 459.57 695.16 435.26 689.58   Q 380.73 677.04 327.26 689.51   Q 295.62 696.89 266.40 709.88   Q 256.18 714.42 246.48 720.13   A 0.61 0.61 0.0 0 1 245.63 719.88   Q 220.96 672.25 197.60 622.16   A 1.40 1.40 0.0 0 1 197.92 620.53   Q 205.04 613.93 212.89 608.61   A 0.56 0.56 0.0 0 0 212.86 607.66   C 156.96 574.52 111.82 524.91 84.51 465.80   Q 51.44 394.22 55.48 315.02   Q 56.09 302.87 57.04 295.06   Q 68.14 203.59 125.38 131.87   Q 152.47 97.92 189.08 71.50   Q 198.04 65.03 205.68 60.33   Q 296.94 4.04 403.54 12.90   Q 460.75 17.66 513.97 43.29   Q 569.19 69.87 611.34 115.69   Q 641.85 148.87 662.07 189.27   Q 667.08 199.29 670.45 207.31   Q 704.07 287.48 692.78 374.92   Q 691.52 384.70 689.50 394.62   Q 674.18 470.02 626.36 530.37   Q 591.36 574.55 542.92 604.53   Z   M 372.49 27.43   Q 401.31 27.16 429.28 32.18   C 530.09 50.26 615.90 119.12 655.92 213.29   C 684.07 279.51 687.72 354.64 666.07 423.11   C 643.08 495.82 593.64 557.30 527.69 595.63   Q 526.60 596.26 527.69 596.89   L 532.25 599.52   Q 533.36 600.16 534.46 599.50   C 595.90 562.75 643.14 506.04 667.98 438.76   C 707.16 332.61 684.76 212.62 610.26 127.61   Q 546.48 54.84 452.57 30.02   Q 414.34 19.92 372.43 20.30   Q 330.52 20.70 292.48 31.51   Q 199.05 58.06 136.63 132.00   C 63.72 218.38 43.55 338.77 84.69 444.17   C 110.77 510.98 159.06 566.80 221.17 602.41   Q 222.28 603.05 223.38 602.39   L 227.89 599.67   Q 228.97 599.02 227.87 598.41   C 161.22 561.31 110.64 500.76 86.31 428.49   C 63.39 360.43 65.65 285.25 92.56 218.52   C 130.83 123.62 215.35 53.18 315.81 33.23   Q 343.68 27.69 372.49 27.43   Z   M 236.14 591.55   A 0.61 0.60 45.5 0 0 236.70 591.56   Q 246.01 586.94 256.76 582.99   C 294.93 568.97 334.48 561.03 374.06 560.64   Q 448.70 559.91 518.22 588.74   A 1.85 1.85 0.0 0 0 519.85 588.64   Q 567.01 561.76 601.93 519.96   Q 652.04 459.98 666.25 380.06   Q 667.88 370.91 668.79 360.20   Q 674.99 287.33 649.08 222.99   Q 628.62 172.18 591.60 132.25   Q 553.83 91.52 504.46 67.31   C 437.60 34.54 360.66 28.43 289.51 50.24   Q 217.86 72.21 164.63 126.40   Q 136.53 155.02 117.10 190.35   Q 82.53 253.25 80.56 325.79   Q 80.31 335.20 80.84 345.78   Q 83.01 388.70 96.75 428.08   Q 114.93 480.23 150.71 522.35   Q 186.74 564.76 236.14 591.55   Z   M 554.07 630.57   Q 554.64 629.34 557.56 623.30   A 1.11 1.11 0.0 0 0 557.24 621.94   Q 541.98 610.06 524.89 602.40   Q 516.41 598.61 510.84 596.39   Q 462.22 576.99 407.31 571.78   Q 376.05 568.81 348.37 571.52   Q 301.43 576.10 254.45 595.12   Q 239.09 601.34 225.57 609.04   Q 215.71 614.65 206.49 621.73   Q 204.63 623.16 205.76 625.52   Q 223.58 662.97 248.50 710.48   A 0.97 0.97 0.0 0 0 249.83 710.88   Q 262.43 703.94 276.21 698.71   Q 307.09 687.00 339.78 681.05   Q 381.89 673.39 419.28 680.60   Q 429.74 682.62 438.80 684.78   Q 472.52 692.82 502.98 706.61   Q 504.49 707.29 512.68 711.46   A 1.06 1.05 -62.4 0 0 514.09 711.01   Q 532.27 676.74 554.07 630.57   Z"></path>
  <path fill="#2e3192" d="   M 509.99 106.70   Q 509.74 109.46 511.43 112.86   Q 511.64 113.29 511.17 113.24   Q 507.49 112.89 505.58 110.92   Q 499.67 104.78 500.09 96.02   A 0.63 0.62 10.9 0 1 500.92 95.46   Q 511.47 99.06 517.22 107.76   Q 518.67 109.94 519.02 114.66   Q 519.06 115.16 518.76 114.83   L 511.01 106.39   A 0.59 0.57 27.1 0 0 509.99 106.70   Z"></path>
  <path fill="#2e3192" d="   M 526.78 114.96   A 0.68 0.67 -84.3 0 0 525.83 115.74   Q 527.17 120.92 529.50 124.71   Q 529.79 125.18 529.25 125.03   Q 524.04 123.61 522.02 119.94   Q 517.70 112.06 520.00 102.59   Q 520.19 101.79 520.94 102.12   C 528.38 105.39 535.40 112.59 535.59 121.07   C 535.64 123.12 534.86 124.82 533.66 126.55   A 0.24 0.24 0.0 0 1 533.24 126.51   Q 531.23 121.47 527.53 115.74   Q 527.15 115.14 526.78 114.96   Z"></path>
  <path fill="#2e3192" d="   M 495.53 111.28   Q 492.90 110.07 495.05 112.01   Q 500.95 117.35 505.30 120.82   A 0.50 0.50 0.0 0 1 505.22 121.65   C 502.63 122.96 500.14 122.34 497.27 121.01   C 490.63 117.93 484.94 111.30 481.19 104.95   Q 480.89 104.45 481.46 104.33   Q 483.98 103.78 488.24 104.50   C 496.03 105.82 505.44 109.84 509.12 116.86   Q 510.12 118.78 508.21 117.77   Q 498.53 112.67 495.53 111.28   Z"></path>
  <path fill="#2e3192" d="   M 237.20 121.33   Q 239.19 119.29 236.57 120.42   Q 232.20 122.30 228.47 126.40   Q 228.11 126.80 228.07 127.34   Q 227.17 141.02 218.14 156.36   Q 211.10 168.32 200.50 176.49   Q 194.84 180.85 187.41 182.62   Q 186.29 182.89 186.33 181.74   Q 186.47 178.19 187.46 174.99   Q 188.08 173.00 191.52 169.81   Q 201.37 160.65 213.84 146.33   Q 215.13 144.85 215.15 143.95   Q 215.22 140.66 213.05 143.13   Q 197.59 160.73 178.56 175.00   Q 177.25 175.99 177.51 174.37   C 177.88 171.93 178.50 169.09 179.48 166.98   Q 182.92 159.59 189.36 152.87   Q 205.00 136.54 226.11 127.86   A 1.15 1.15 0.0 0 0 226.79 126.52   Q 225.33 120.78 230.25 117.48   Q 237.64 112.53 247.09 111.57   Q 247.64 111.51 247.63 112.06   Q 247.48 122.18 241.07 129.52   Q 237.08 134.08 231.18 134.49   Q 230.63 134.53 230.47 134.00   Q 229.67 131.33 229.68 128.91   Q 229.69 128.40 230.07 128.06   Q 234.62 123.99 237.20 121.33   Z"></path>
  <path fill="#2e3192" d="   M 193.80 145.56   Q 180.84 156.30 172.17 168.30   A 0.26 0.26 0.0 0 1 171.74 168.28   C 169.13 163.96 170.69 160.06 173.22 155.69   Q 178.71 146.21 187.52 138.27   Q 190.06 135.97 194.73 132.13   C 200.97 127.00 204.84 122.65 208.85 116.60   Q 209.34 115.85 210.10 115.07   A 1.10 1.09 -38.3 0 1 211.82 115.27   C 214.41 119.56 216.26 125.24 214.26 130.07   Q 213.53 131.85 209.85 133.94   Q 203.38 137.63 193.80 145.56   Z"></path>
  <path fill="#2e3192" d="   M 543.03 132.16   C 542.99 134.60 544.60 137.25 546.04 140.51   Q 546.94 142.54 544.90 141.63   Q 538.87 138.94 537.06 132.25   Q 535.25 125.55 537.10 119.31   A 0.62 0.61 19.5 0 1 537.93 118.92   Q 545.94 122.43 550.52 130.22   C 552.94 134.35 553.33 138.39 551.52 142.56   Q 550.69 144.45 549.89 142.55   Q 547.34 136.52 543.93 131.87   Q 543.05 130.68 543.03 132.16   Z"></path>
  <path fill="#2e3192" d="   M 537.23 145.55   Q 535.75 144.72 536.51 146.23   Q 538.41 150.00 542.60 154.71   Q 542.93 155.08 542.76 155.55   Q 542.45 156.44 541.92 156.90   A 1.09 1.08 39.8 0 1 540.68 157.01   Q 531.81 151.97 528.58 141.93   Q 527.81 139.55 527.70 139.22   Q 527.51 138.63 527.01 138.67   C 525.45 138.81 523.64 138.84 522.22 138.28   C 513.92 135.01 509.67 128.78 506.50 120.66   A 0.72 0.72 0.0 0 1 506.87 119.74   Q 508.37 119.07 510.30 119.20   Q 521.42 119.92 529.30 127.73   A 1.49 1.49 0.0 0 1 529.73 128.91   Q 529.49 131.62 526.98 130.25   Q 522.93 128.06 518.76 126.35   Q 516.21 125.32 517.95 127.44   Q 521.03 131.18 525.18 135.19   C 525.92 135.91 526.82 136.60 528.10 136.44   Q 530.06 136.21 533.02 137.00   Q 538.06 138.35 543.45 141.59   Q 548.29 144.51 550.26 149.81   Q 550.85 151.39 550.58 153.10   Q 550.40 154.23 549.47 153.55   Q 542.85 148.68 537.23 145.55   Z"></path>
  <path fill="#2e3192" d="   M 497.55 127.65   Q 495.56 128.07 497.39 128.95   Q 501.73 131.02 507.90 132.20   A 0.42 0.42 0.0 0 1 508.04 132.97   C 500.87 137.23 491.16 132.86 486.36 127.18   A 0.78 0.78 0.0 0 1 486.46 126.08   C 492.25 121.17 501.38 120.77 507.06 126.33   Q 507.46 126.72 506.89 126.73   Q 501.57 126.82 497.55 127.65   Z"></path>
  <path fill="#2e3192" d="   M 518.54 143.44   C 524.59 146.19 528.77 147.68 532.38 151.08   A 0.81 0.81 0.0 0 1 531.99 152.46   Q 524.90 153.93 518.10 151.25   Q 515.48 150.22 512.59 147.42   Q 508.07 143.05 502.05 139.69   A 0.79 0.79 0.0 0 1 501.99 138.34   Q 508.74 133.81 516.38 136.68   Q 521.43 138.58 524.94 142.31   Q 525.31 142.69 524.78 142.70   Q 523.77 142.71 520.31 142.31   Q 519.23 142.19 518.46 142.82   Q 518.00 143.20 518.54 143.44   Z"></path>
  <path fill="#2e3192" d="   M 560.22 151.16   Q 559.96 153.25 560.85 155.07   Q 563.45 160.32 563.57 160.60   Q 563.82 161.16 563.33 161.04   Q 559.46 160.06 557.86 158.21   C 553.21 152.86 552.74 145.58 554.23 138.76   Q 554.42 137.91 555.21 138.27   Q 565.23 142.90 569.14 152.74   Q 571.27 158.09 568.02 162.74   A 0.40 0.40 0.0 0 1 567.32 162.65   Q 565.01 156.20 560.99 150.95   A 0.43 0.43 0.0 0 0 560.22 151.16   Z"></path>
  <path fill="#2e3192" d="   M 217.35 161.61   Q 223.09 153.14 226.62 145.01   Q 228.09 141.63 229.11 141.01   C 233.11 138.58 238.68 140.01 242.54 142.36   A 0.67 0.66 -46.2 0 1 242.56 143.48   C 237.48 146.83 233.41 150.30 230.03 155.70   Q 227.09 160.40 227.06 160.44   Q 220.17 169.85 211.43 176.03   C 208.74 177.93 206.07 178.76 202.54 180.09   Q 200.69 180.79 202.13 179.43   Q 211.03 170.94 217.35 161.61   Z"></path>
  <path fill="#2e3192" d="   M 555.41 166.92   Q 553.34 165.71 554.44 167.84   Q 556.26 171.36 560.09 175.83   A 1.09 1.07 -62.3 0 1 560.34 176.67   Q 560.22 177.67 559.45 177.89   C 556.79 178.64 551.88 172.67 550.01 171.00   Q 549.62 170.66 549.12 170.76   Q 537.59 173.09 529.49 165.42   Q 525.16 161.32 519.04 157.87   A 0.44 0.43 -52.8 0 1 518.95 157.18   Q 522.03 154.07 526.00 153.86   Q 535.47 153.36 541.94 160.36   Q 542.29 160.74 541.78 160.77   Q 540.90 160.82 537.85 160.80   Q 532.43 160.76 537.58 162.45   Q 540.86 163.53 547.58 168.00   Q 547.79 168.13 547.92 168.21   A 0.39 0.39 0.0 0 0 548.45 167.67   Q 545.65 163.49 545.39 158.05   A 0.70 0.69 -87.9 0 1 546.16 157.33   Q 557.45 158.62 565.05 166.17   Q 568.73 169.82 568.28 174.83   A 0.38 0.38 0.0 0 1 567.66 175.09   Q 562.94 171.33 555.41 166.92   Z"></path>
  <path fill="#2e3192" d="   M 576.04 170.24   Q 575.94 170.62 576.21 171.78   Q 577.17 175.80 578.65 179.23   A 0.39 0.39 0.0 0 1 578.17 179.75   Q 572.99 178.06 571.13 172.45   Q 568.58 164.77 571.33 157.14   Q 571.78 155.91 572.89 156.60   Q 580.12 161.16 583.86 168.68   C 585.75 172.49 585.95 177.30 583.78 180.90   Q 582.61 182.86 581.96 180.67   Q 580.42 175.39 577.41 170.08   Q 576.51 168.49 576.04 170.24   Z"></path>
  <path fill="#2e3192" d="   M 376.05 183.58   Q 370.91 189.49 362.61 191.83   C 355.69 193.78 349.13 193.17 343.37 188.88   C 334.03 181.92 330.78 170.71 334.92 159.57   A 0.39 0.39 0.0 0 1 335.63 159.53   C 337.98 164.22 340.52 168.50 344.95 171.77   Q 357.46 180.99 370.75 172.28   Q 371.81 171.59 375.71 167.73   Q 376.11 167.34 376.52 167.72   C 377.74 168.85 378.66 170.02 380.14 171.16   Q 391.56 179.92 403.75 174.39   C 409.83 171.63 413.85 166.80 417.06 160.59   Q 418.22 158.34 418.84 160.80   Q 419.40 163.05 419.74 164.42   Q 420.28 166.61 420.27 168.14   Q 420.14 180.06 411.53 187.60   C 405.05 193.26 396.85 194.34 388.84 191.28   C 385.29 189.92 379.55 187.33 376.88 183.61   Q 376.49 183.07 376.05 183.58   Z"></path>
  <path fill="#2e3192" d="   M 138.08 229.57   Q 137.98 229.86 137.74 229.66   C 132.83 225.67 134.89 219.12 136.74 213.99   Q 140.70 203.01 149.05 191.97   Q 154.85 184.31 156.03 182.24   Q 158.45 177.96 160.91 171.21   Q 161.61 169.28 163.06 169.39   Q 164.05 169.46 164.98 170.63   C 167.89 174.31 171.63 181.65 168.14 185.63   Q 168.03 185.76 164.71 189.21   Q 151.30 203.16 141.45 221.71   Q 139.48 225.43 138.08 229.57   Z"></path>
  <path fill="#2e3192" d="   M 585.45 192.75   Q 585.29 193.52 584.43 193.48   Q 583.92 193.45 583.42 193.09   Q 578.16 189.31 572.64 185.94   Q 571.70 185.37 571.07 185.23   A 0.49 0.49 0.0 0 0 570.54 185.94   Q 572.77 189.95 575.85 193.42   Q 576.29 193.92 577.72 194.28   Q 588.24 196.99 594.61 206.22   C 596.15 208.45 597.49 213.02 596.16 215.75   Q 595.84 216.42 595.37 215.83   Q 590.43 209.66 584.73 205.11   A 0.42 0.42 0.0 0 0 584.05 205.38   Q 583.97 206.01 584.24 206.79   Q 585.55 210.68 588.06 214.81   Q 588.33 215.25 588.09 215.70   Q 587.68 216.46 586.93 217.00   Q 586.54 217.28 586.11 217.06   Q 584.44 216.19 583.43 214.96   Q 577.06 207.15 577.00 197.09   Q 576.99 196.47 576.38 196.55   Q 575.70 196.64 574.80 196.51   C 572.08 196.14 568.20 191.66 566.72 189.46   A 0.98 0.98 0.0 0 0 565.46 189.14   Q 562.24 190.82 558.56 190.14   Q 553.65 189.24 550.08 187.70   Q 548.97 187.23 545.32 183.95   C 541.59 180.60 538.93 178.42 534.91 176.12   A 0.48 0.48 0.0 0 1 534.81 175.35   Q 536.86 173.39 539.75 172.79   Q 547.96 171.11 554.13 176.02   Q 556.02 177.53 556.78 178.10   Q 559.28 179.98 556.19 179.50   Q 554.16 179.19 552.80 179.33   Q 548.96 179.72 552.62 180.96   Q 558.23 182.86 564.34 187.48   Q 566.29 188.95 565.04 186.85   Q 562.43 182.48 561.42 176.28   Q 561.34 175.78 561.85 175.82   Q 574.54 176.98 582.75 186.18   Q 584.19 187.80 584.86 191.37   A 0.02 0.01 80.8 0 0 584.88 191.39   L 585.16 191.34   Q 585.34 191.30 585.31 191.13   Q 584.04 183.30 587.82 176.06   Q 588.08 175.55 588.52 175.91   C 594.15 180.49 599.06 187.03 599.41 194.29   Q 599.64 199.17 596.12 202.42   A 0.54 0.53 -26.1 0 1 595.23 202.12   Q 594.00 194.80 592.51 191.61   Q 590.26 186.82 590.65 192.16   Q 590.88 195.34 592.29 200.01   A 0.31 0.31 0.0 0 1 591.85 200.38   Q 587.02 197.94 585.74 192.84   Q 585.57 192.16 585.45 192.75   Z"></path>
  <path fill="#2e3192" d="   M 173.60 195.67   Q 173.58 195.49 173.29 195.07   Q 172.55 194.04 171.97 195.16   Q 160.71 216.99 145.27 235.18   Q 144.88 235.64 144.79 235.04   Q 143.52 226.22 147.18 218.16   Q 158.58 193.08 181.69 177.53   A 0.51 0.50 -19.5 0 1 182.47 177.90   Q 185.26 205.44 170.02 228.03   Q 164.92 235.59 156.25 240.08   A 0.81 0.80 68.4 0 1 155.11 239.58   Q 154.13 236.19 154.42 232.73   Q 154.60 230.54 157.12 226.75   Q 165.72 213.83 173.49 197.73   Q 173.71 197.28 173.60 195.67   Z"></path>
  <path fill="#2e3192" d="   M 170.35 234.37   Q 168.89 235.25 169.81 233.83   Q 181.71 215.52 185.37 193.80   Q 185.86 190.88 186.93 190.10   Q 188.54 188.93 190.90 188.38   Q 195.55 187.30 201.20 186.72   A 0.62 0.62 0.0 0 1 201.77 187.70   Q 199.08 191.50 196.08 194.60   C 194.39 196.34 192.25 200.83 191.42 203.69   Q 187.56 216.99 178.70 227.71   Q 176.00 230.97 170.35 234.37   Z"></path>
  <path fill="#2e3192" d="   M 568.90 202.86   Q 568.20 202.88 568.74 203.32   Q 575.24 208.69 579.20 215.81   A 0.73 0.73 0.0 0 1 578.45 216.89   Q 571.30 215.75 566.06 210.78   Q 563.90 208.72 562.27 204.91   Q 560.14 199.95 555.62 194.15   Q 555.24 193.67 555.78 193.39   Q 558.41 191.99 561.13 192.44   Q 571.31 194.13 575.30 203.84   Q 576.11 205.82 574.32 204.65   Q 571.45 202.77 568.90 202.86   Z"></path>
  <path fill="#2e3192" d="   M 603.09 214.00   Q 602.87 217.48 604.31 222.38   Q 604.86 224.24 603.18 223.28   C 601.51 222.33 599.66 220.64 598.86 218.70   Q 595.88 211.47 598.62 203.46   C 599.08 202.12 599.38 200.73 600.48 199.76   Q 600.90 199.39 601.33 199.76   C 607.39 205.01 612.47 211.95 611.66 219.90   Q 611.27 223.74 608.36 225.97   Q 607.89 226.33 607.80 225.75   Q 606.76 219.20 604.14 213.80   Q 603.22 211.91 603.09 214.00   Z"></path>
  <path fill="#2e3192" d="   M 359.87 428.73   A 0.21 0.21 0.0 0 0 360.19 428.55   Q 359.35 358.18 358.28 298.25   Q 357.47 253.02 356.34 216.03   Q 356.31 214.95 357.16 214.30   Q 366.55 207.05 376.53 200.77   Q 377.77 199.98 379.37 200.96   Q 389.65 207.23 398.90 214.41   Q 399.55 214.91 399.53 215.73   Q 397.32 297.61 396.02 403.95   Q 395.80 422.44 395.74 428.18   A 0.47 0.47 0.0 0 0 396.47 428.57   Q 423.48 410.10 438.50 380.50   Q 450.19 357.47 454.27 332.77   Q 461.31 290.15 449.19 249.66   Q 444.14 232.77 435.50 217.60   Q 432.24 211.87 427.56 204.45   Q 427.43 204.24 427.39 203.96   A 0.43 0.42 -74.0 0 1 428.09 203.57   Q 432.06 207.10 439.33 213.52   Q 458.75 230.65 471.16 254.00   Q 489.01 287.60 487.47 325.83   Q 486.22 356.91 471.82 386.03   C 458.21 413.54 435.62 436.77 409.52 453.05   A 0.79 0.79 0.0 0 0 409.63 454.45   Q 417.10 457.60 425.55 459.24   Q 450.56 464.07 475.74 462.12   Q 476.62 462.06 476.25 462.85   Q 476.15 463.08 475.47 463.47   C 459.91 472.57 441.85 475.15 423.50 475.16   Q 407.50 475.17 392.27 470.98   Q 391.84 470.87 391.61 471.25   Q 385.67 481.17 379.33 490.34   Q 378.65 491.33 378.24 491.50   Q 377.68 491.73 377.35 491.23   L 364.31 471.38   Q 364.03 470.96 363.54 471.09   Q 329.61 479.70 295.90 470.30   Q 289.39 468.48 281.81 464.26   Q 280.81 463.71 280.36 463.23   Q 279.30 462.09 280.86 462.20   Q 307.70 464.13 333.52 458.55   Q 340.43 457.06 346.76 454.09   A 0.43 0.42 -41.7 0 0 346.81 453.34   C 313.22 432.52 287.43 401.66 275.24 364.10   C 266.85 338.26 265.91 309.40 273.33 282.77   C 282.25 250.71 301.58 223.97 328.11 203.78   Q 330.58 201.91 328.80 204.44   Q 313.87 225.67 306.63 250.12   Q 294.48 291.14 301.83 333.51   C 308.33 370.99 327.36 407.45 359.87 428.73   Z"></path>
  <path fill="#2e3192" d="   M 263.53 436.75   Q 264.08 437.44 264.16 437.60   Q 264.85 438.93 263.47 438.38   Q 229.05 424.42 211.65 391.87   Q 201.91 373.64 198.73 353.07   Q 192.62 313.59 207.44 276.69   Q 219.02 247.84 242.46 228.25   C 254.39 218.27 268.00 211.32 283.04 207.07   Q 288.41 205.56 297.27 203.68   A 0.30 0.29 -82.2 0 1 297.59 204.11   Q 297.36 204.55 296.89 204.90   Q 271.79 223.88 256.76 250.51   Q 232.62 293.28 233.05 343.27   Q 233.33 375.96 245.46 405.53   Q 252.68 423.15 263.53 436.75   Z"></path>
  <path fill="#2e3192" d="   M 452.61 205.42   Q 450.10 203.52 453.19 204.09   Q 502.93 213.23 530.47 255.51   Q 539.86 269.93 545.33 287.64   Q 557.66 327.62 546.91 367.74   Q 542.34 384.80 532.21 400.26   Q 515.34 426.03 485.85 438.27   Q 485.55 438.40 485.40 438.10   Q 485.21 437.69 485.48 437.28   Q 491.69 427.98 493.98 424.26   C 501.69 411.72 507.41 397.05 510.95 382.44   Q 519.83 345.91 512.46 306.30   C 505.05 266.48 484.95 229.82 452.61 205.42   Z"></path>
  <path fill="#2e3192" d="   M 595.62 227.80   Q 595.48 228.25 595.61 229.22   Q 596.20 233.54 597.46 238.20   A 1.42 1.41 77.7 0 1 596.34 239.96   Q 595.00 240.19 594.17 238.86   Q 587.56 228.36 591.60 216.31   A 0.84 0.84 0.0 0 1 592.84 215.86   Q 597.25 218.61 601.12 222.98   Q 605.59 228.02 606.71 233.63   Q 607.38 236.97 605.50 240.35   A 0.63 0.62 -43.8 0 1 604.39 240.33   Q 601.29 234.11 596.37 227.67   Q 595.86 227.00 595.62 227.80   Z"></path>
  <path fill="#2e3192" d="   M 583.88 227.86   A 0.43 0.42 -74.7 0 0 583.30 228.20   Q 583.23 228.69 583.66 229.10   Q 589.34 234.56 592.60 241.90   A 0.59 0.59 0.0 0 1 592.02 242.73   C 587.34 242.41 583.18 239.21 579.89 235.63   Q 577.82 233.37 576.39 229.47   Q 574.34 223.88 570.59 218.28   A 0.57 0.56 67.4 0 1 570.94 217.42   C 579.92 215.52 587.28 222.16 589.91 230.27   Q 590.29 231.43 589.27 230.75   Q 586.53 228.92 583.88 227.86   Z"></path>
  <path fill="#2e3192" d="   M 615.32 234.63   A 0.52 0.51 30.2 0 0 614.44 234.85   Q 613.71 238.16 614.18 244.63   Q 614.22 245.17 613.77 244.87   C 605.45 239.18 609.00 227.63 613.78 220.68   Q 614.12 220.18 614.53 220.62   C 619.76 226.15 624.10 234.53 622.01 241.92   Q 620.93 245.73 617.86 247.88   A 0.40 0.39 71.9 0 1 617.24 247.56   Q 617.05 240.80 615.76 235.68   Q 615.56 234.89 615.32 234.63   Z"></path>
  <path fill="#2e3192" d="   M 117.85 309.65   C 112.54 305.77 112.10 299.61 112.20 293.29   Q 112.41 279.90 116.27 267.66   Q 117.39 264.10 120.26 257.62   C 123.66 249.94 125.60 244.69 126.98 237.51   A 1.24 1.23 22.5 0 1 128.89 236.72   Q 135.43 241.16 137.54 247.68   C 138.34 250.18 137.92 252.48 136.49 255.05   Q 128.69 269.14 123.75 285.32   C 121.16 293.82 119.13 301.34 118.28 309.46   A 0.27 0.27 0.0 0 1 117.85 309.65   Z"></path>
  <path fill="#2e3192" d="   M 148.45 301.23   Q 145.86 307.12 145.12 308.37   Q 142.40 312.99 138.36 316.49   A 0.57 0.57 0.0 0 1 137.48 316.33   Q 135.41 312.43 135.08 308.76   Q 134.88 306.45 136.51 301.22   Q 141.95 283.72 145.46 264.96   Q 145.51 264.64 145.12 262.99   Q 145.03 262.58 144.69 262.34   Q 143.60 261.58 143.44 262.37   Q 139.81 279.33 133.79 296.53   Q 130.97 304.58 126.74 313.36   A 0.28 0.27 46.1 0 1 126.24 313.35   Q 123.75 307.59 124.10 300.80   Q 124.47 293.43 125.88 287.62   Q 132.22 261.47 148.55 240.85   A 0.53 0.53 0.0 0 1 149.47 241.01   Q 151.57 247.47 152.76 253.75   Q 153.63 258.34 154.10 269.65   Q 154.11 269.81 154.30 269.84   L 154.31 269.84   Q 154.45 269.87 154.48 269.66   Q 155.59 261.35 154.97 254.37   Q 154.69 251.22 155.39 249.72   Q 156.55 247.20 159.00 246.22   Q 163.07 244.59 167.84 244.15   A 0.52 0.52 0.0 0 1 168.31 244.98   Q 166.25 247.79 165.47 250.98   C 164.02 256.95 164.12 263.94 164.38 270.51   Q 164.54 274.59 163.80 278.47   Q 161.46 290.74 154.91 301.42   Q 152.21 305.81 148.02 308.97   Q 145.80 310.64 146.86 308.07   Q 148.22 304.78 148.72 301.31   Q 148.88 300.26 148.45 301.23   Z"></path>
  <path fill="#2e3192" d="   M 606.50 254.05   Q 605.69 252.70 605.52 254.26   Q 604.94 259.53 605.73 264.44   A 0.93 0.92 65.5 0 1 605.41 265.31   Q 604.59 266.01 603.49 265.73   Q 602.87 265.57 602.41 264.45   Q 598.23 254.33 602.23 244.29   Q 602.61 243.32 603.92 241.72   Q 604.23 241.33 604.62 241.64   Q 612.96 248.39 615.31 258.38   Q 616.62 263.94 613.13 267.82   Q 612.79 268.21 612.55 267.75   Q 611.96 266.63 610.21 261.84   Q 608.67 257.65 606.50 254.05   Z"></path>
  <path fill="#2e3192" d="   M 622.74 256.42   A 0.17 0.09 -28.2 0 0 622.70 256.48   Q 621.21 260.28 621.32 265.94   A 0.31 0.31 0.0 0 1 620.81 266.19   C 613.20 260.01 618.28 247.90 623.81 242.15   Q 624.22 241.73 624.56 242.20   C 630.01 249.68 634.54 263.63 624.75 269.52   A 0.56 0.55 78.7 0 1 623.92 268.96   Q 624.72 263.23 623.92 256.86   Q 623.74 255.49 622.74 256.42   Z"></path>
  <path fill="#2e3192" d="   M 594.75 259.81   Q 599.22 267.23 600.51 274.85   A 0.34 0.34 0.0 0 1 600.07 275.23   C 595.40 273.72 592.39 270.36 589.62 265.54   Q 588.22 263.10 587.73 258.67   Q 587.06 252.56 584.74 246.12   A 0.39 0.39 0.0 0 1 585.10 245.60   Q 591.43 245.52 595.58 250.23   Q 600.24 255.51 600.63 261.89   Q 600.75 263.76 599.49 262.38   Q 596.80 259.42 595.52 258.94   Q 593.85 258.31 594.75 259.81   Z"></path>
  <path fill="#2e3192" d="   M 631.32 281.04   Q 630.16 279.11 629.73 281.46   Q 628.93 285.92 628.66 290.00   A 0.48 0.47 24.4 0 1 627.85 290.30   C 625.39 287.81 624.11 284.71 624.48 280.96   Q 625.31 272.61 631.23 266.46   Q 631.66 266.01 632.02 266.51   Q 637.09 273.53 637.80 281.06   C 638.32 286.64 636.74 291.40 631.79 294.18   A 0.31 0.31 0.0 0 1 631.33 293.87   Q 631.83 289.77 631.60 283.00   Q 631.54 281.41 631.32 281.04   Z"></path>
  <path fill="#2e3192" d="   M 614.57 283.77   A 0.28 0.27 -64.8 0 0 614.11 283.94   Q 613.45 289.12 614.26 294.49   Q 614.33 295.00 614.00 295.39   Q 613.24 296.28 611.97 296.19   Q 611.45 296.15 611.23 295.67   Q 605.75 283.70 611.67 272.54   Q 612.38 271.21 613.51 272.21   Q 622.31 279.94 623.89 290.17   Q 624.57 294.60 621.67 297.99   A 0.51 0.51 0.0 0 1 620.80 297.82   Q 619.03 292.41 615.48 285.03   Q 615.11 284.28 614.57 283.77   Z"></path>
  <path fill="#2e3192" d="   M 602.37 290.56   Q 600.88 290.06 601.74 291.38   Q 606.01 297.89 607.42 305.90   A 0.51 0.51 0.0 0 1 606.88 306.49   Q 605.28 306.39 603.90 305.36   Q 595.94 299.46 594.68 290.37   Q 593.84 284.36 593.74 283.95   Q 592.82 280.26 591.83 277.73   A 0.33 0.33 0.0 0 1 592.11 277.28   Q 597.18 276.93 601.14 280.34   Q 607.00 285.39 607.58 292.85   Q 607.78 295.39 606.16 293.42   Q 604.38 291.25 602.37 290.56   Z"></path>
  <path fill="#2e3192" d="   M 635.58 308.02   Q 634.39 306.65 634.01 308.86   L 632.53 317.25   A 0.32 0.30 30.8 0 1 631.98 317.37   Q 627.85 312.56 628.97 306.75   Q 630.46 299.07 635.90 293.83   A 0.66 0.65 -40.1 0 1 636.88 293.91   Q 641.56 300.24 642.18 308.71   Q 642.77 316.80 636.26 320.98   A 0.63 0.63 0.0 0 1 635.30 320.37   Q 635.88 316.10 635.73 311.00   Q 635.71 310.27 635.74 309.53   Q 635.79 308.26 635.58 308.02   Z"></path>
  <path fill="#2e3192" d="   M 620.57 311.81   Q 619.94 310.09 619.44 311.86   Q 618.20 316.34 618.22 321.87   Q 618.22 322.39 617.72 322.54   Q 616.84 322.82 615.89 322.68   Q 615.38 322.61 615.20 322.13   Q 613.92 318.72 613.90 315.29   Q 613.84 306.22 619.08 299.31   A 1.12 1.12 0.0 0 1 620.86 299.30   Q 623.40 302.56 625.18 305.81   Q 628.75 312.34 628.31 319.45   C 628.14 322.15 626.96 323.99 625.28 326.00   A 0.57 0.57 0.0 0 1 624.28 325.75   Q 622.36 316.67 620.57 311.81   Z"></path>
  <path fill="#2e3192" d="   M 607.76 320.52   Q 606.49 319.71 607.13 321.07   Q 610.28 327.86 611.21 335.92   A 1.00 1.00 0.0 0 1 609.65 336.86   Q 604.02 332.98 601.34 326.40   Q 600.51 324.38 600.41 319.49   Q 600.28 313.29 598.77 306.89   A 0.59 0.59 0.0 0 1 599.42 306.17   Q 605.46 306.95 609.04 311.73   Q 613.15 317.22 612.71 324.01   Q 612.59 325.79 611.59 324.31   Q 609.99 321.94 607.76 320.52   Z"></path>
  <path fill="#2e3192" d="   M 143.51 335.51   Q 143.01 333.48 141.48 330.35   C 140.30 327.94 140.96 327.02 142.01 324.24   Q 144.88 316.62 151.71 312.97   A 1.59 1.58 73.0 0 1 154.03 314.21   Q 154.30 316.84 154.13 318.35   Q 152.80 330.20 153.90 340.44   Q 154.25 343.63 155.27 347.36   Q 156.70 352.60 156.95 354.25   Q 158.73 366.38 156.09 377.53   Q 154.22 385.38 147.86 390.16   A 0.32 0.32 0.0 0 1 147.34 389.89   Q 148.27 372.78 146.88 356.63   Q 145.88 344.99 143.51 335.51   Z"></path>
  <path fill="#2e3192" d="   M 123.48 391.93   Q 118.45 389.40 115.81 384.16   Q 112.22 377.05 110.94 367.89   Q 110.38 363.94 110.85 351.09   Q 111.44 334.69 110.04 320.65   Q 110.04 320.62 109.80 318.80   Q 109.46 316.15 110.49 314.17   A 1.71 1.70 -60.1 0 1 112.92 313.51   Q 120.89 318.60 124.35 327.75   A 1.23 1.21 46.1 0 1 124.34 328.64   C 123.44 330.84 122.81 332.49 122.52 334.56   Q 122.36 335.69 121.41 342.64   Q 120.91 346.31 120.85 350.81   Q 120.65 364.19 121.12 369.03   Q 122.50 383.08 123.90 391.62   A 0.29 0.29 0.0 0 1 123.48 391.93   Z"></path>
  <path fill="#2e3192" d="   M 130.98 340.51   Q 129.30 341.96 129.31 345.32   Q 129.36 368.36 132.00 394.45   Q 132.14 395.83 131.29 394.73   Q 126.80 388.95 124.50 381.81   Q 123.74 379.45 122.65 372.30   Q 121.86 367.13 121.75 362.70   Q 121.29 344.52 125.93 327.18   Q 127.64 320.82 130.32 314.95   A 0.73 0.73 0.0 0 1 131.53 314.76   Q 134.67 318.19 136.92 322.43   Q 140.32 328.82 142.25 337.53   Q 146.65 357.38 143.36 377.33   Q 142.20 384.31 139.75 390.69   A 0.22 0.22 0.0 0 1 139.33 390.67   Q 136.51 381.48 135.26 371.09   Q 133.36 355.32 133.68 341.79   A 1.64 1.63 70.4 0 0 130.98 340.51   Z"></path>
  <path fill="#2e3192" d="   M 635.01 336.77   Q 633.92 339.12 633.08 344.50   A 0.63 0.63 0.0 0 1 632.11 344.93   Q 631.46 344.49 631.10 343.79   Q 628.38 338.47 630.67 332.50   Q 633.08 326.24 638.13 322.18   Q 638.78 321.65 639.21 322.37   Q 643.74 330.00 642.93 338.39   C 642.43 343.56 640.32 346.51 636.08 349.22   A 0.66 0.66 0.0 0 1 635.08 348.52   Q 636.49 342.60 636.57 337.18   Q 636.63 333.27 635.01 336.77   Z"></path>
  <path fill="#2e3192" d="   M 618.96 339.67   Q 618.29 343.15 618.19 347.62   Q 618.17 348.52 617.87 348.84   Q 617.42 349.32 616.76 349.58   Q 615.64 350.02 615.18 348.91   C 613.32 344.47 613.55 340.57 614.50 335.79   Q 615.67 329.92 619.29 325.86   A 0.84 0.83 45.4 0 1 620.54 325.87   Q 626.29 332.40 628.03 340.49   C 628.96 344.81 628.55 349.71 625.15 352.60   Q 624.46 353.19 624.26 352.31   Q 622.23 343.49 620.84 339.53   Q 619.64 336.12 618.96 339.67   Z"></path>
  <path fill="#2e3192" d="   M 606.91 351.16   C 608.35 356.01 609.40 362.21 608.67 367.05   A 0.69 0.69 0.0 0 1 607.53 367.46   Q 602.09 362.61 600.29 355.04   Q 599.70 352.57 600.38 347.99   Q 601.14 342.84 600.61 336.67   Q 600.48 335.20 601.88 335.68   Q 608.41 337.94 611.05 344.34   Q 613.47 350.19 611.84 355.50   A 0.29 0.29 0.0 0 1 611.33 355.58   Q 610.38 354.23 608.73 351.58   Q 608.26 350.84 607.35 350.67   Q 606.73 350.56 606.91 351.16   Z"></path>
  <path fill="#2e3192" d="   M 634.77 365.15   Q 634.65 362.10 633.36 364.87   Q 631.81 368.18 631.43 373.30   Q 631.39 373.84 630.96 373.52   Q 629.02 372.11 628.47 369.99   C 626.57 362.72 630.58 355.28 635.88 350.40   A 1.05 1.05 0.0 0 1 637.48 350.63   Q 641.81 357.76 641.33 365.84   C 641.02 371.22 638.84 375.52 633.71 377.55   Q 633.10 377.79 633.27 377.16   Q 634.99 370.69 634.77 365.15   Z"></path>
  <path fill="#2e3192" d="   M 618.85 364.54   A 0.42 0.42 0.0 0 0 618.28 364.72   Q 616.05 368.98 614.66 373.82   A 1.59 1.58 -82.7 0 1 613.18 374.97   Q 612.29 375.00 611.83 374.36   Q 611.53 373.94 611.52 373.07   Q 611.41 360.31 621.45 352.46   A 0.67 0.67 0.0 0 1 622.45 352.68   Q 626.29 360.17 626.39 367.99   C 626.42 370.33 625.51 374.70 624.12 376.57   Q 622.41 378.86 620.10 380.03   Q 619.58 380.29 619.61 379.72   Q 619.82 375.07 619.59 365.90   Q 619.57 364.93 618.85 364.54   Z"></path>
  <path fill="#2e3192" d="   M 605.80 393.24   C 608.14 387.87 611.47 382.79 616.55 380.06   A 0.55 0.55 0.0 0 1 617.32 380.32   Q 621.64 389.96 619.23 399.47   Q 617.83 404.96 612.85 407.30   A 0.42 0.42 0.0 0 1 612.26 406.87   Q 613.34 397.24 613.52 393.24   Q 613.64 390.30 611.92 392.69   Q 609.49 396.07 608.04 400.01   C 607.51 401.43 606.83 402.31 605.26 401.55   Q 604.78 401.32 604.74 400.79   Q 604.51 398.17 605.16 395.15   Q 605.27 394.63 604.81 394.36   Q 604.05 393.90 603.22 393.41   C 600.18 391.62 597.94 386.33 596.80 382.56   Q 596.11 380.26 596.70 375.51   Q 597.16 371.74 597.27 368.38   Q 597.33 366.45 596.87 362.86   A 0.40 0.39 -89.5 0 1 597.32 362.41   Q 600.03 362.80 601.57 363.97   Q 610.25 370.61 608.55 381.42   Q 608.16 383.87 607.06 381.66   Q 605.81 379.17 604.29 377.77   Q 602.62 376.23 603.32 378.39   Q 605.46 385.04 605.24 393.11   Q 605.20 394.61 605.80 393.24   Z"></path>
  <path fill="#2e3192" d="   M 628.21 391.83   Q 627.87 392.20 627.51 393.04   Q 625.96 396.52 625.03 400.86   A 0.44 0.44 0.0 0 1 624.26 401.04   C 618.32 393.50 625.72 382.79 632.11 378.38   A 0.42 0.42 0.0 0 1 632.72 378.53   Q 637.74 388.36 634.65 398.03   Q 632.82 403.76 627.26 405.33   A 0.41 0.41 0.0 0 1 626.77 404.80   Q 628.87 398.98 629.33 392.31   A 0.65 0.65 0.0 0 0 628.21 391.83   Z"></path>
  <path fill="#2e3192" d="   M 155.51 385.52   Q 156.29 384.28 156.77 383.89   A 0.74 0.74 0.0 0 1 157.96 384.32   Q 159.17 390.14 160.48 395.53   Q 161.27 398.78 163.52 403.20   Q 163.83 403.81 167.75 410.24   Q 171.34 416.15 173.35 422.41   Q 178.04 437.05 179.31 452.50   Q 179.60 456.01 178.32 458.31   Q 177.92 459.04 177.10 458.93   Q 175.91 458.79 175.61 457.80   Q 167.05 429.51 151.75 404.54   Q 149.57 400.97 151.02 395.42   Q 152.25 390.71 155.51 385.52   Z"></path>
  <path fill="#2e3192" d="   M 598.00 416.87   A 0.51 0.51 0.0 0 0 598.94 417.16   Q 601.09 413.75 602.26 412.28   Q 604.27 409.79 607.75 407.91   Q 608.30 407.61 608.53 408.19   Q 612.69 418.82 610.45 427.20   Q 608.96 432.75 603.87 435.28   A 0.41 0.41 0.0 0 1 603.28 434.86   Q 604.38 426.11 604.51 420.56   Q 604.56 418.37 603.26 420.13   Q 600.72 423.57 598.98 428.48   A 1.81 1.68 -68.2 0 1 596.66 429.58   Q 595.58 429.10 595.73 427.29   Q 596.02 423.93 597.35 420.07   Q 597.42 419.85 597.24 419.72   Q 596.63 419.27 596.51 419.17   Q 591.62 415.09 589.63 407.57   Q 588.90 404.81 589.48 400.93   Q 590.44 394.45 589.65 388.42   Q 589.57 387.79 590.20 387.83   Q 592.74 388.00 594.91 389.64   Q 601.94 394.96 601.62 404.31   Q 601.56 406.17 600.97 407.65   Q 600.77 408.15 600.42 407.75   C 599.56 406.75 598.42 403.18 596.30 402.73   A 0.33 0.33 0.0 0 0 595.92 403.15   Q 598.28 411.05 598.00 416.87   Z"></path>
  <path fill="#2e3192" d="   M 146.38 452.54   Q 150.85 460.02 158.00 465.01   C 159.93 466.35 161.33 467.05 162.18 469.41   A 1.39 1.38 -20.2 0 1 161.36 471.17   C 159.23 471.96 155.67 469.91 154.25 468.75   C 144.20 460.58 137.19 450.03 131.47 437.65   Q 129.16 432.64 127.25 425.98   Q 126.45 423.18 123.72 414.07   C 122.31 409.36 120.35 405.28 119.30 401.04   A 1.49 1.49 0.0 0 1 120.88 399.20   Q 127.32 399.77 132.34 403.68   C 133.68 404.73 134.12 406.07 134.04 407.94   Q 132.98 431.32 145.30 451.18   Q 145.36 451.28 145.49 451.22   Q 145.62 451.16 145.54 451.03   Q 143.25 447.17 142.66 445.61   Q 138.28 433.99 136.55 423.05   Q 134.18 408.04 135.79 390.76   Q 135.85 390.18 136.29 390.55   Q 143.04 396.23 149.88 406.68   Q 161.77 424.87 167.67 445.82   Q 170.52 455.98 170.24 466.19   A 1.83 1.82 19.6 0 0 170.96 467.70   Q 187.95 480.57 201.09 499.25   Q 205.28 505.22 208.29 511.46   Q 210.63 516.32 211.75 521.65   A 0.38 0.38 0.0 0 1 211.35 522.11   Q 210.75 522.08 210.10 521.63   Q 207.03 519.51 201.86 514.14   Q 190.45 502.26 181.34 488.58   Q 181.17 488.33 180.87 488.27   L 180.25 488.16   Q 179.92 488.11 180.07 488.40   Q 181.69 491.61 182.49 492.84   Q 193.43 509.74 208.12 522.52   Q 208.50 522.85 209.00 522.84   Q 219.19 522.57 227.42 525.71   Q 234.54 528.43 241.48 533.12   Q 258.84 544.86 264.73 564.87   Q 265.32 566.84 263.54 565.81   C 261.53 564.64 259.76 561.93 258.71 560.82   Q 251.15 552.82 242.32 545.48   Q 237.04 541.10 231.14 537.92   Q 230.59 537.63 230.69 538.24   Q 230.77 538.74 231.32 539.14   Q 242.66 547.48 253.17 557.77   Q 258.46 562.94 261.77 567.17   Q 264.07 570.11 260.40 569.41   Q 256.84 568.74 253.68 566.98   Q 225.16 551.11 207.75 523.95   Q 207.46 523.49 206.95 523.33   Q 197.81 520.40 192.29 516.69   Q 180.10 508.48 172.33 494.22   Q 164.59 480.04 166.43 465.52   Q 166.52 464.82 167.05 465.27   Q 168.19 466.24 169.24 466.34   Q 169.77 466.39 169.48 465.95   Q 167.97 463.59 166.16 460.14   Q 154.46 437.91 145.97 412.01   Q 145.58 410.82 144.21 411.16   Q 144.04 411.21 143.92 411.36   Q 143.04 412.46 143.13 412.89   Q 146.72 430.45 153.40 447.40   Q 156.69 455.73 160.06 461.06   Q 160.33 461.49 159.82 461.45   C 153.92 460.99 149.71 457.47 146.55 452.69   Q 145.67 451.36 146.38 452.54   Z"></path>
  <path fill="#2e3192" d="   M 620.98 418.53   Q 620.57 414.95 619.13 418.33   Q 617.62 421.86 616.79 425.52   Q 616.42 427.13 615.46 425.80   C 610.21 418.56 617.50 407.77 623.43 403.59   A 0.75 0.74 -30.5 0 1 624.53 403.87   Q 627.42 409.98 627.44 416.50   C 627.47 421.79 625.14 429.03 619.23 430.31   A 0.54 0.54 0.0 0 1 618.60 429.65   Q 620.11 423.86 620.60 421.28   Q 621.03 419.02 620.98 418.53   Z"></path>
  <path fill="#2e3192" d="   M 588.48 425.02   A 0.52 0.51 12.3 0 0 587.71 425.51   Q 588.53 433.80 586.43 441.46   A 0.34 0.34 0.0 0 1 585.90 441.64   Q 583.61 439.92 582.71 437.74   Q 580.53 432.46 580.56 428.35   Q 580.57 425.89 582.31 420.92   Q 584.11 415.75 584.89 409.71   Q 584.95 409.20 585.45 409.33   Q 587.71 409.94 588.70 411.03   Q 596.61 419.76 592.07 430.62   Q 591.61 431.71 591.23 430.59   C 590.31 427.86 589.94 425.85 588.48 425.02   Z"></path>
  <path fill="#2e3192" d="   M 610.51 443.54   C 608.65 444.83 606.74 449.61 605.85 452.17   A 0.41 0.41 0.0 0 1 605.11 452.23   C 600.38 443.73 608.89 434.37 616.00 430.72   A 0.48 0.47 66.7 0 1 616.67 430.99   C 618.98 438.04 618.93 445.57 615.06 451.90   C 613.49 454.46 610.80 456.51 607.77 456.65   A 1.22 1.21 87.6 0 0 606.61 457.92   Q 607.01 467.84 601.76 474.79   C 599.07 478.34 595.24 480.71 590.71 480.18   A 0.52 0.52 0.0 0 1 590.38 479.32   Q 593.99 475.22 596.68 470.92   Q 597.46 469.68 597.58 468.99   Q 597.85 467.45 596.64 468.43   Q 592.87 471.45 590.74 474.94   Q 589.78 476.50 589.37 474.72   Q 588.90 472.70 589.46 470.24   C 590.53 465.59 595.22 461.72 599.37 459.59   Q 601.77 458.35 606.20 457.11   Q 606.68 456.98 606.90 456.53   Q 609.83 450.68 611.29 444.07   A 0.51 0.51 0.0 0 0 610.51 443.54   Z"></path>
  <path fill="#2e3192" d="   M 575.82 448.31   Q 574.75 447.10 574.94 448.70   Q 575.88 456.45 573.57 464.19   A 0.58 0.58 0.0 0 1 572.68 464.50   C 569.34 462.14 567.86 455.34 567.66 451.71   Q 567.51 449.07 568.92 445.29   Q 571.09 439.47 571.85 433.31   A 1.16 1.15 19.2 0 1 573.60 432.47   C 580.77 436.81 582.51 445.78 579.28 453.06   Q 578.56 454.68 578.09 452.98   Q 577.25 449.94 575.82 448.31   Z"></path>
  <path fill="#2e3192" d="   M 591.87 445.51   Q 589.19 448.29 586.37 453.23   Q 585.78 454.25 584.69 453.80   Q 584.00 453.51 583.77 453.15   A 3.65 2.18 -60.6 0 1 583.70 450.32   Q 587.87 438.27 597.88 434.07   Q 598.74 433.71 599.00 434.61   Q 601.88 444.64 597.76 454.01   Q 595.59 458.93 590.18 460.43   A 0.41 0.41 0.0 0 1 589.68 459.90   Q 592.24 452.40 593.03 446.06   Q 593.28 444.05 591.87 445.51   Z"></path>
  <path fill="#2e3192" d="   M 563.35 469.88   Q 562.06 467.97 562.17 470.27   Q 562.56 478.15 560.09 485.66   A 0.47 0.46 -66.0 0 1 559.42 485.92   C 556.08 484.03 554.74 476.49 554.69 472.38   Q 554.65 469.88 556.27 465.96   Q 558.63 460.26 559.57 453.83   A 0.55 0.55 0.0 0 1 560.35 453.41   C 568.29 457.18 569.70 467.57 566.12 474.70   Q 565.47 476.00 565.13 474.58   Q 564.36 471.38 563.35 469.88   Z"></path>
  <path fill="#2e3192" d="   M 215.80 512.12   Q 197.59 490.13 183.39 474.06   Q 181.11 471.48 180.55 469.55   C 179.25 465.02 179.97 461.75 180.82 456.80   Q 181.04 455.51 181.60 454.87   A 1.50 1.49 49.4 0 1 183.97 455.06   Q 189.87 464.19 191.41 466.38   Q 195.76 472.57 202.47 479.76   Q 206.27 483.83 209.68 489.80   Q 215.04 499.16 216.30 507.96   Q 216.72 510.89 216.32 512.03   Q 216.14 512.54 215.80 512.12   Z"></path>
  <path fill="#2e3192" d="   M 576.54 472.15   Q 573.54 475.48 571.63 478.84   C 570.93 480.07 569.98 480.94 568.71 479.79   Q 568.32 479.44 568.35 478.91   Q 568.48 476.60 568.70 475.99   Q 572.72 465.03 583.08 460.47   A 0.63 0.62 69.3 0 1 583.93 460.86   Q 586.92 470.85 582.73 480.05   Q 580.72 484.48 575.97 486.40   Q 574.27 487.09 574.80 485.34   Q 577.13 477.63 577.98 472.85   Q 578.49 469.98 576.54 472.15   Z"></path>
  <path fill="#2e3192" d="   M 547.68 487.34   Q 546.92 486.12 546.91 487.56   Q 546.87 495.39 544.23 502.50   Q 543.71 503.90 542.28 503.05   A 0.94 0.89 3.4 0 1 541.92 502.67   Q 538.99 497.05 539.42 490.52   Q 539.64 487.23 540.95 484.60   C 543.00 480.46 544.47 476.43 545.68 471.79   A 0.58 0.57 -67.9 0 1 546.52 471.43   C 554.26 475.85 554.80 485.71 550.60 492.82   Q 549.89 494.01 549.61 492.66   Q 548.90 489.30 547.68 487.34   Z"></path>
  <path fill="#2e3192" d="   M 197.44 521.35   C 199.99 522.74 202.55 523.53 205.67 524.64   Q 206.75 525.03 205.68 525.45   Q 196.75 529.01 187.74 525.25   Q 174.11 519.56 168.40 506.98   Q 162.99 495.04 158.90 489.15   Q 157.15 486.63 150.07 477.21   Q 149.36 476.27 150.45 475.83   Q 151.19 475.54 152.47 475.82   Q 159.96 477.46 165.07 483.77   Q 166.45 485.47 169.06 491.23   Q 173.17 500.33 180.12 507.38   C 185.53 512.86 191.14 517.94 197.44 521.35   Z"></path>
  <path fill="#2e3192" d="   M 579.11 494.41   Q 580.52 491.88 578.09 493.46   Q 574.86 495.56 571.64 499.35   A 0.31 0.31 0.0 0 1 571.11 499.23   Q 570.15 495.62 572.21 492.46   Q 574.79 488.49 577.24 487.23   Q 578.36 486.65 582.47 484.49   Q 584.75 483.29 588.93 483.00   Q 589.45 482.97 589.44 483.48   Q 589.26 493.94 581.81 501.04   Q 577.49 505.15 571.54 504.37   Q 570.93 504.29 571.35 503.84   C 574.11 500.78 577.30 497.65 579.11 494.41   Z"></path>
  <path fill="#2e3192" d="   M 560.79 493.60   Q 561.24 492.13 560.03 493.07   Q 556.68 495.69 552.74 499.96   Q 551.90 500.87 550.92 500.39   A 1.49 1.48 19.6 0 1 550.12 498.72   Q 551.01 494.97 553.93 491.66   Q 557.57 487.53 562.43 484.92   Q 565.76 483.13 568.17 483.04   Q 568.71 483.02 568.75 483.55   C 569.46 491.94 566.97 501.66 559.66 506.37   Q 557.86 507.53 555.49 507.56   A 0.50 0.50 0.0 0 1 555.04 506.82   Q 558.87 499.91 560.79 493.60   Z"></path>
  <path fill="#2e3192" d="   M 528.96 508.14   Q 527.76 514.47 523.45 522.00   A 0.25 0.25 0.0 0 1 523.04 522.04   Q 521.10 519.79 520.77 516.88   Q 519.83 508.60 524.04 502.41   Q 526.92 498.17 526.95 498.13   Q 528.85 494.83 530.63 490.94   A 0.62 0.61 -57.4 0 1 531.58 490.73   C 538.37 496.43 537.47 506.49 531.68 512.45   Q 531.26 512.88 531.20 512.28   Q 530.92 509.52 530.54 508.09   Q 529.63 504.63 528.96 508.14   Z"></path>
  <path fill="#2e3192" d="   M 543.36 511.44   A 0.31 0.31 0.0 0 0 542.89 511.14   Q 538.46 513.78 534.66 516.94   Q 533.70 517.74 533.12 517.68   Q 532.39 517.60 531.80 516.69   Q 531.49 516.22 531.73 515.71   C 535.22 508.26 543.92 503.50 551.72 502.52   A 0.86 0.85 -1.1 0 1 552.68 503.44   Q 551.94 511.80 547.45 518.44   C 544.80 522.37 540.52 525.62 535.66 525.17   A 0.46 0.46 0.0 0 1 535.34 524.42   Q 539.57 519.15 542.89 512.90   Q 543.30 512.14 543.36 511.44   Z"></path>
  <path fill="#2e3192" d="   M 559.92 515.19   Q 558.89 515.12 556.70 517.23   Q 553.69 520.14 552.14 521.70   Q 551.77 522.08 551.68 521.55   Q 551.00 517.24 552.87 514.60   Q 558.40 506.76 569.64 505.00   Q 570.20 504.92 570.18 505.49   Q 569.84 514.61 564.73 520.94   C 561.47 524.97 557.42 527.54 552.19 526.41   Q 551.59 526.28 552.02 525.85   C 554.66 523.20 558.60 519.33 560.25 515.73   Q 560.48 515.22 559.92 515.19   Z"></path>
  <path fill="#2e3192" d="   M 244.53 532.56   Q 239.31 529.43 235.72 528.30   Q 232.03 527.15 230.15 525.59   Q 222.00 518.88 222.50 507.27   A 2.00 1.99 -85.4 0 1 224.71 505.38   Q 226.11 505.54 227.88 506.65   Q 240.51 514.52 250.92 525.81   C 254.70 529.91 259.52 535.93 260.93 541.34   Q 261.95 545.25 261.73 550.27   Q 261.60 553.24 260.81 550.37   Q 259.13 544.20 255.08 540.36   Q 250.79 536.30 244.53 532.56   Z"></path>
  <path fill="#2e3192" d="   M 508.33 523.55   Q 504.92 531.13 499.04 536.84   Q 498.61 537.26 498.37 536.71   C 496.51 532.45 498.30 526.83 500.48 522.74   Q 501.75 520.38 505.52 517.18   Q 509.85 513.51 513.56 508.54   A 0.61 0.61 0.0 0 1 514.56 508.58   C 519.37 516.26 516.39 525.08 509.37 530.08   Q 508.79 530.49 508.84 529.79   C 508.95 528.05 509.87 525.20 508.91 523.52   Q 508.59 522.96 508.33 523.55   Z"></path>
  <path fill="#2e3192" d="   M 520.39 530.13   Q 515.39 531.85 511.08 535.10   Q 510.15 535.80 509.15 535.01   A 1.84 1.83 40.4 0 1 508.93 532.35   Q 517.55 522.77 530.65 522.68   Q 531.21 522.67 531.11 523.23   Q 529.77 530.84 524.83 536.83   C 521.84 540.46 516.28 544.47 511.41 542.87   Q 510.78 542.66 511.23 542.18   Q 516.42 536.64 520.66 531.20   Q 521.01 530.75 520.92 530.42   A 0.42 0.41 72.8 0 0 520.39 530.13   Z"></path>
  <path fill="#2e3192" d="   M 486.19 540.86   Q 486.01 537.76 484.67 540.60   Q 481.59 547.17 475.98 552.78   A 0.48 0.48 0.0 0 1 475.19 552.61   C 473.61 548.42 474.83 543.51 476.80 539.58   Q 478.07 537.05 482.17 533.29   Q 486.33 529.46 490.33 524.75   A 0.81 0.80 -39.9 0 1 491.64 524.86   C 496.06 532.31 493.13 541.56 485.94 546.07   Q 485.22 546.52 485.44 545.70   Q 486.29 542.40 486.19 540.86   Z"></path>
  <path fill="#2e3192" d="   M 539.48 535.53   Q 539.94 533.72 538.41 534.83   Q 534.89 537.39 531.89 540.88   A 0.38 0.38 0.0 0 1 531.25 540.76   Q 530.40 538.33 531.45 535.76   C 534.11 529.25 541.93 525.44 548.46 524.47   A 0.81 0.81 0.0 0 1 549.39 525.30   Q 549.11 533.28 545.15 539.15   C 542.39 543.24 536.94 547.67 531.71 545.71   A 0.44 0.44 0.0 0 1 531.58 544.96   Q 535.33 541.68 538.43 537.42   Q 539.31 536.20 539.48 535.53   Z"></path>
  <path fill="#2e3192" d="   M 250.47 568.06   Q 245.85 570.27 241.19 568.33   Q 234.40 565.50 228.10 560.75   Q 227.96 560.65 221.63 554.68   Q 217.67 550.96 213.04 547.95   Q 204.90 542.65 200.37 540.05   A 1.22 1.21 -50.2 0 1 200.19 538.07   C 204.26 534.61 212.42 537.33 216.63 539.70   Q 217.55 540.21 219.00 542.18   Q 220.23 543.84 221.19 544.73   Q 233.53 556.18 248.15 565.72   Q 249.36 566.51 250.53 567.74   Q 250.72 567.94 250.47 568.06   Z"></path>
  <path fill="#2e3192" d="   M 496.51 548.98   Q 498.03 546.77 495.59 547.88   Q 492.61 549.22 487.25 552.40   Q 486.56 552.81 485.54 552.41   A 1.28 1.28 0.0 0 1 484.95 550.52   C 489.54 543.62 498.67 539.91 506.72 540.23   A 0.68 0.68 0.0 0 1 507.36 541.07   C 505.37 549.85 498.11 562.39 487.37 560.40   Q 486.82 560.30 487.20 559.90   Q 493.79 552.92 496.51 548.98   Z"></path>
  <path fill="#2e3192" d="   M 517.05 553.47   Q 513.30 555.30 508.95 559.13   A 0.46 0.46 0.0 0 1 508.19 558.80   Q 508.04 553.36 512.53 549.99   Q 519.44 544.81 528.23 544.81   A 0.39 0.39 0.0 0 1 528.62 545.26   Q 527.12 556.22 518.52 562.19   Q 513.59 565.61 508.02 563.93   A 0.39 0.38 -53.7 0 1 507.92 563.24   Q 513.57 559.32 517.40 554.65   Q 517.72 554.25 517.68 553.82   A 0.44 0.44 0.0 0 0 517.05 553.47   Z"></path>
  <path fill="#2e3192" d="   M 250.19 705.86   C 235.94 677.93 222.47 652.27 209.74 624.97   Q 209.37 624.17 210.07 623.64   Q 217.48 618.02 226.26 612.94   Q 235.76 607.45 243.42 603.98   Q 285.92 584.68 331.62 577.34   Q 350.94 574.24 374.55 574.15   Q 436.13 573.91 496.92 595.10   Q 521.11 603.53 539.54 614.21   Q 542.83 616.11 552.77 623.06   Q 553.20 623.36 553.02 623.85   Q 552.45 625.42 551.30 627.84   Q 529.84 672.87 512.32 706.45   A 0.49 0.49 0.0 0 1 511.67 706.66   Q 498.10 699.83 481.75 693.79   Q 454.91 683.87 423.26 677.53   Q 398.83 672.64 377.15 673.21   Q 355.46 673.77 328.59 679.43   Q 300.51 685.34 272.99 695.97   Q 261.50 700.41 251.02 706.11   Q 250.48 706.41 250.19 705.86   Z   M 281.23 645.85   C 284.61 647.02 287.91 647.81 291.10 647.85   Q 318.83 648.19 342.40 634.43   Q 349.46 630.31 358.52 622.68   Q 366.05 616.34 376.63 606.13   Q 379.12 603.73 380.97 602.56   Q 384.17 600.51 385.05 598.91   Q 386.60 596.08 386.69 592.91   A 0.65 0.65 0.0 0 0 385.75 592.31   Q 381.77 594.34 377.85 597.85   Q 365.13 609.28 357.06 615.56   Q 330.27 636.39 296.37 636.79   C 292.91 636.83 290.04 636.44 286.05 635.94   C 283.68 635.65 283.07 636.23 281.51 638.01   Q 280.14 639.57 278.17 642.41   Q 276.10 645.42 272.31 645.25   Q 271.20 645.20 266.52 644.87   Q 263.87 644.68 262.25 645.76   Q 255.20 650.45 251.04 658.09   Q 250.46 659.15 250.43 660.13   A 0.65 0.65 0.0 0 0 251.52 660.63   C 253.74 658.61 254.89 657.32 257.15 656.34   C 260.46 654.90 264.60 655.92 267.51 655.96   C 273.03 656.04 275.56 651.62 278.24 646.96   A 2.51 2.50 -65.3 0 1 281.23 645.85   Z   M 512.36 608.05   Q 506.64 609.48 498.76 610.18   Q 496.78 610.36 483.17 611.69   Q 479.51 612.04 477.04 613.84   Q 475.64 614.86 477.37 614.82   Q 488.60 614.55 497.77 613.65   Q 504.88 612.95 509.98 611.45   Q 514.00 610.27 516.84 608.17   Q 517.97 607.33 516.57 607.34   Q 515.21 607.34 512.36 608.05   Z   M 422.32 619.35   L 419.52 618.07   A 0.90 0.90 0.0 0 0 418.25 618.96   C 418.54 622.29 423.55 622.27 425.73 621.13   C 427.29 620.31 427.99 618.89 429.37 616.90   Q 429.66 616.48 430.16 616.37   Q 431.22 616.14 432.70 616.52   Q 433.94 616.84 434.65 615.77   Q 434.83 615.49 434.84 615.45   A 1.17 1.02 -73.5 0 0 434.24 614.14   Q 431.64 613.16 429.29 614.30   C 427.65 615.09 426.45 617.12 425.29 618.62   A 2.47 2.46 -58.7 0 1 422.32 619.35   Z   M 455.66 637.03   Q 455.63 637.24 455.53 637.62   Q 455.43 637.97 455.27 638.18   C 452.31 641.97 445.21 653.74 449.74 658.04   C 451.16 659.38 453.87 659.44 455.37 658.63   Q 461.29 655.43 466.21 647.80   Q 466.33 647.62 466.21 647.44   L 466.05 647.19   Q 465.83 646.86 465.52 647.11   Q 464.63 647.85 463.42 649.14   C 460.14 652.63 455.54 649.53 456.45 645.21   Q 457.11 642.07 458.78 639.03   Q 464.55 628.52 473.85 617.34   Q 474.07 617.08 474.30 616.26   Q 474.45 615.74 473.94 615.93   C 472.29 616.58 470.56 618.31 468.44 620.18   C 464.64 623.51 460.94 628.55 457.97 630.97   Q 452.04 635.81 443.57 636.50   Q 433.38 637.33 427.34 636.34   Q 410.72 633.61 396.54 626.21   C 392.44 624.07 389.12 620.70 391.56 615.97   A 0.43 0.43 0.0 0 0 391.10 615.35   Q 390.25 615.51 389.65 616.41   C 386.97 620.40 381.62 628.49 385.94 632.31   Q 388.56 634.62 392.90 636.65   Q 407.11 643.30 422.77 644.65   Q 440.50 646.18 454.97 636.61   A 0.45 0.45 0.0 0 1 455.66 637.03   Z   M 482.25 629.55   A 2.56 2.56 0.0 0 0 483.34 627.04   L 482.67 622.70   A 2.56 2.56 0.0 0 0 478.66 621.01   L 473.30 624.82   A 2.56 2.56 0.0 0 0 472.47 627.99   L 474.11 631.50   A 2.56 2.56 0.0 0 0 477.87 632.54   L 482.25 629.55   Z   M 492.50 625.97   Q 492.79 625.59 492.54 625.33   Q 492.22 625.01 491.87 625.30   Q 488.96 627.67 485.48 631.15   Q 483.41 633.23 480.35 638.09   Q 471.78 651.76 470.57 653.82   C 468.98 656.53 466.66 662.58 468.98 665.38   C 471.13 667.98 473.98 667.44 476.68 665.66   Q 482.39 661.89 485.98 655.84   A 0.37 0.37 0.0 0 0 485.73 655.29   L 485.36 655.23   Q 484.95 655.16 484.69 655.48   Q 482.97 657.65 481.15 658.72   A 1.36 1.33 35.1 0 1 480.18 658.88   C 475.61 657.95 475.37 653.80 477.07 650.30   Q 480.08 644.08 484.33 637.84   Q 491.59 627.18 492.50 625.97   Z   M 272.07 671.77   Q 269.95 668.49 265.81 666.79   A 0.57 0.55 23.3 0 0 265.08 667.07   L 261.45 675.01   A 1.22 1.21 -62.8 0 0 261.94 676.57   L 267.12 679.55   A 1.77 1.63 36.4 0 0 269.22 679.32   Q 270.85 677.65 271.89 675.46   A 0.72 0.72 0.0 0 1 272.91 675.15   L 277.75 677.94   A 1.54 1.54 0.0 0 0 279.53 677.77   Q 280.67 676.78 281.65 674.93   Q 284.08 670.35 280.58 667.60   Q 278.59 666.04 276.72 665.27   A 1.43 1.43 0.0 0 0 274.81 666.20   Q 273.69 670.13 272.63 671.77   Q 272.35 672.20 272.07 671.77   Z   M 470.81 680.47   A 2.31 2.31 0.0 0 0 471.88 678.06   L 470.94 673.15   A 2.31 2.31 0.0 0 0 467.34 671.70   L 461.78 675.62   A 2.31 2.31 0.0 0 0 460.97 678.39   L 462.59 682.32   A 2.31 2.31 0.0 0 0 465.92 683.42   L 470.81 680.47   Z   M 279.61 684.68   A 2.48 2.48 0.0 0 0 279.07 681.86   L 275.54 678.47   A 2.48 2.48 0.0 0 0 271.52 679.34   L 269.26 685.01   A 2.48 2.48 0.0 0 0 270.33 688.08   L 274.08 690.24   A 2.48 2.48 0.0 0 0 277.57 689.12   L 279.61 684.68   Z"></path>
  <path fill="#2e3192" d="   M 178.06 714.73   Q 172.40 703.67 171.59 702.15   Q 131.89 627.86 121.09 606.93   Q 120.64 606.06 121.02 604.14   Q 123.75 590.54 135.38 585.12   Q 140.22 582.87 146.56 583.36   Q 147.00 583.40 147.18 583.80   L 201.53 702.81   Q 201.97 703.77 200.92 703.61   C 195.87 702.80 192.21 701.92 187.10 703.61   C 181.62 705.43 180.11 709.47 178.65 714.67   Q 178.43 715.45 178.06 714.73   Z"></path>
  <path fill="#2e3192" d="   M 574.58 705.95   C 568.89 701.69 563.00 702.28 556.25 703.80   A 0.39 0.39 0.0 0 1 555.81 703.26   L 610.13 584.46   A 1.90 1.88 10.4 0 1 611.74 583.36   Q 622.50 582.74 630.05 590.84   Q 634.75 595.88 636.19 602.37   C 636.70 604.69 636.76 606.48 635.60 608.78   Q 633.72 612.49 631.22 617.21   Q 609.04 659.07 579.22 715.03   Q 578.90 715.65 578.76 714.97   Q 578.42 713.29 577.32 710.13   Q 576.31 707.24 574.58 705.95   Z"></path>
  <path fill="#2e3192" d="   M 183.97 619.83   A 4.52 4.48 -62.0 0 0 184.44 621.40   Q 213.88 677.98 236.25 720.77   C 239.11 726.24 241.33 729.36 247.48 729.55   Q 251.14 729.66 256.40 729.63   A 0.44 0.44 0.0 0 1 256.73 730.36   Q 256.22 730.95 255.25 731.50   Q 250.37 734.30 244.85 736.58   Q 239.87 738.64 230.78 738.61   Q 206.71 738.51 186.21 725.71   Q 185.57 725.32 186.29 725.09   C 189.11 724.20 192.34 723.47 194.72 722.40   Q 203.16 718.59 205.98 709.48   C 206.83 706.73 206.22 704.49 204.97 701.70   Q 184.50 656.05 160.65 601.21   Q 160.45 600.74 160.97 600.76   Q 169.39 601.22 177.41 603.85   Q 187.49 607.16 195.00 614.92   Q 195.38 615.31 194.84 615.35   C 192.00 615.53 183.38 614.62 183.97 619.83   Z"></path>
  <path fill="#2e3192" d="   M 573.17 621.45   C 575.14 617.67 570.79 615.37 567.75 615.47   Q 567.03 615.50 563.11 615.01   Q 562.54 614.94 562.94 614.53   Q 567.25 610.15 571.04 608.04   Q 582.90 601.42 596.64 600.77   A 0.30 0.29 -79.3 0 1 596.92 601.19   Q 575.08 651.58 551.68 703.95   Q 550.29 707.04 552.33 711.69   Q 556.19 720.51 565.20 723.29   Q 569.64 724.65 571.45 725.23   Q 571.96 725.40 571.51 725.68   Q 548.19 740.15 520.76 738.39   Q 516.35 738.11 512.02 736.24   Q 505.64 733.49 501.11 730.81   A 0.69 0.69 0.0 0 1 501.21 729.57   C 502.35 729.13 504.55 729.43 508.19 729.42   Q 512.64 729.39 514.55 728.59   Q 517.97 727.17 519.84 723.59   Q 542.46 680.29 573.17 621.45   Z"></path>
  <path fill="#2e3192" d="   M 194.23 718.71   Q 188.40 721.41 181.21 717.84   Q 180.72 717.60 180.76 717.05   C 181.12 712.42 184.12 708.70 188.32 706.76   Q 194.15 704.07 201.34 707.64   Q 201.83 707.88 201.79 708.43   C 201.43 713.06 198.43 716.78 194.23 718.71   Z"></path>
  <path fill="#2e3192" d="   M 568.82 706.55   Q 574.93 709.13 576.79 716.15   A 1.66 1.65 69.9 0 1 575.90 718.08   Q 569.27 721.21 563.64 718.84   Q 558.02 716.47 555.63 709.53   A 1.66 1.65 -24.1 0 1 556.39 707.55   Q 562.71 703.98 568.82 706.55   Z"></path>
</svg>
