<?xml version="1.0" encoding="UTF-8" standalone="no"?>
<svg xmlns="http://www.w3.org/2000/svg" version="1.1" viewBox="0.00 0.00 1616.00 1945.00">
  <path fill="#2c2b29" d="   M 792.54 5.17   Q 789.29 4.67 785.98 4.63   Q 785.77 4.63 785.80 4.42   L 785.84 4.14   Q 785.86 4.05 785.95 4.04   L 807.46 2.46   Q 807.92 2.42 808.23 3.11   Q 808.34 3.35 808.17 3.63   A 0.54 0.54 0.0 0 0 808.30 4.33   Q 809.04 4.91 809.36 4.81   A 1.38 1.00 83.9 0 1 810.66 6.25   L 810.66 335.95   Q 810.66 337.66 808.96 337.81   Q 791.79 339.30 774.67 341.41   Q 767.09 342.34 754.94 344.65   Q 637.17 367.00 548.86 448.11   Q 548.07 448.83 543.26 453.52   C 540.47 456.24 538.04 458.18 535.73 460.65   C 531.43 465.25 527.69 468.92 524.44 472.47   C 484.04 516.59 454.23 568.66 434.93 625.30   Q 431.09 636.57 429.09 644.42   Q 425.52 658.41 421.32 680.38   Q 420.87 682.72 421.26 684.76   Q 428.62 723.23 441.76 758.04   Q 469.30 831.00 522.40 889.78   Q 538.72 907.84 554.86 922.15   Q 556.95 924.01 561.23 926.99   A 0.54 0.54 0.0 0 0 562.03 926.79   Q 567.33 915.81 575.27 906.76   Q 595.59 883.63 626.60 878.82   Q 636.00 877.36 645.00 877.94   Q 665.19 879.25 682.65 889.54   Q 691.39 894.69 698.50 901.61   Q 722.12 924.58 724.64 958.81   Q 725.21 966.48 723.75 975.63   Q 721.09 992.45 712.27 1008.03   A 1.38 1.38 0.0 0 0 713.09 1010.03   Q 742.68 1018.64 770.38 1022.98   Q 773.71 1023.50 771.52 1020.95   Q 752.81 999.21 749.67 971.47   Q 748.51 961.25 749.86 951.53   Q 753.95 922.03 776.60 900.81   Q 793.91 884.59 817.80 879.64   Q 831.63 876.77 844.34 878.43   Q 877.77 882.80 898.49 906.33   Q 914.39 924.39 918.72 949.90   Q 920.43 959.99 919.54 969.79   Q 916.97 997.98 898.27 1020.15   Q 896.56 1022.18 899.17 1021.73   Q 926.80 1017.03 955.63 1008.27   A 1.57 1.56 -22.6 0 0 956.56 1006.03   Q 945.31 985.21 945.28 961.25   Q 945.28 956.98 946.58 949.04   Q 951.48 919.10 973.16 899.66   Q 992.17 882.62 1018.96 878.62   Q 1019.05 878.61 1021.06 878.47   C 1022.33 878.38 1023.04 878.11 1024.07 878.04   Q 1058.03 875.73 1084.37 897.26   Q 1097.42 907.92 1105.96 922.66   A 0.77 0.76 -36.0 0 0 1107.14 922.84   Q 1155.61 878.98 1188.22 825.03   Q 1226.35 761.93 1240.21 690.36   Q 1242.03 680.97 1240.00 671.53   Q 1239.23 667.98 1237.30 659.91   Q 1212.16 554.81 1140.69 475.69   Q 1133.04 467.23 1130.17 464.18   C 1123.95 457.58 1120.32 454.41 1112.18 446.80   Q 1102.13 437.40 1087.25 425.28   Q 1079.82 419.22 1071.14 413.18   Q 990.93 357.40 893.75 342.23   Q 889.54 341.58 872.38 339.52   C 871.29 339.39 868.24 339.49 866.66 339.03   C 864.03 338.26 861.19 338.93 858.75 338.23   A 2.30 2.29 7.8 0 1 857.07 336.02   L 857.07 5.48   Q 857.07 4.93 857.63 4.89   L 857.98 4.86   A 0.53 0.52 -87.2 0 0 858.46 4.42   L 858.66 3.14   Q 858.75 2.56 859.33 2.67   L 871.60 4.91   Q 871.61 4.91 871.62 4.90   Q 871.77 4.47 871.63 4.87   Q 871.62 4.89 871.61 4.88   Q 867.37 4.53 863.09 4.94   Q 861.30 5.11 863.07 5.44   Q 866.74 6.12 871.00 6.34   Q 874.90 6.54 878.00 6.94   C 880.73 7.29 883.96 7.08 887.33 7.41   Q 940.94 12.71 993.53 27.18   C 1088.54 53.33 1175.75 102.35 1247.26 170.40   Q 1249.66 172.68 1250.33 173.33   Q 1265.90 188.52 1281.34 205.35   Q 1289.05 213.75 1294.60 220.35   Q 1375.46 316.53 1411.61 435.89   Q 1438.48 524.62 1436.90 618.61   Q 1436.88 619.61 1436.46 630.94   Q 1436.29 635.22 1436.29 643.27   C 1436.29 644.57 1435.71 645.82 1435.72 646.97   Q 1435.77 651.68 1435.54 654.85   Q 1435.10 660.90 1435.02 662.68   Q 1434.65 670.51 1434.37 672.47   Q 1433.87 676.02 1433.90 676.99   C 1434.04 680.45 1433.14 682.87 1433.41 686.50   Q 1434.25 697.47 1435.44 708.95   Q 1436.36 717.73 1436.34 721.47   C 1436.31 727.04 1436.89 732.30 1436.90 738.20   Q 1436.94 758.86 1436.88 776.35   Q 1436.87 780.36 1436.48 783.65   C 1436.11 786.83 1436.42 789.75 1436.14 793.46   C 1430.44 870.49 1411.43 946.17 1378.04 1015.63   Q 1338.85 1097.16 1276.98 1164.49   Q 1273.36 1168.44 1272.41 1169.42   Q 1260.31 1181.83 1251.55 1190.53   Q 1246.97 1195.08 1243.07 1198.56   Q 1241.36 1200.08 1234.35 1206.35   Q 1175.73 1258.80 1103.02 1295.72   Q 1101.74 1296.37 1102.31 1297.68   C 1104.43 1302.52 1107.20 1306.83 1109.18 1311.75   Q 1117.09 1331.45 1115.37 1352.76   Q 1114.72 1360.84 1111.32 1371.58   Q 1104.30 1393.70 1087.77 1408.22   Q 1068.23 1425.36 1042.94 1429.20   Q 1032.98 1430.71 1023.01 1429.72   Q 1000.18 1427.45 981.65 1414.96   Q 973.33 1409.36 966.64 1401.83   Q 947.66 1380.44 945.22 1350.44   Q 945.12 1349.13 943.82 1349.36   Q 910.25 1355.16 879.22 1357.85   Q 879.13 1357.85 876.27 1358.22   C 874.11 1358.49 872.08 1358.13 869.86 1358.66   Q 868.59 1358.96 867.46 1358.93   Q 863.76 1358.84 858.89 1359.64   A 1.69 1.69 0.0 0 1 856.92 1357.97   L 856.92 1234.34   A 0.59 0.58 67.5 0 0 855.92 1233.92   Q 855.51 1234.33 854.93 1234.38   Q 853.91 1234.46 853.89 1234.46   Q 842.20 1236.94 831.76 1236.42   Q 825.95 1236.12 824.51 1236.13   Q 824.02 1236.13 823.57 1235.90   C 822.58 1235.38 821.41 1235.64 820.49 1235.45   Q 816.11 1234.60 812.12 1233.74   A 0.83 0.82 6.0 0 0 811.12 1234.54   L 811.12 1358.23   A 1.37 1.37 0.0 0 1 809.71 1359.60   Q 804.97 1359.49 797.50 1358.94   Q 760.43 1356.18 726.02 1350.57   Q 724.88 1350.38 724.76 1351.53   C 722.58 1371.84 714.39 1390.74 699.74 1405.23   Q 674.33 1430.36 636.95 1430.18   Q 635.00 1430.18 634.13 1429.92   C 632.04 1429.32 629.70 1429.78 627.97 1429.32   Q 627.48 1429.18 624.49 1428.66   C 607.46 1425.68 591.44 1417.62 579.10 1405.49   Q 558.48 1385.22 554.67 1355.49   C 554.49 1354.09 554.52 1351.62 554.18 1349.66   C 553.37 1344.97 554.21 1341.25 554.44 1337.79   Q 554.64 1334.72 554.64 1334.69   Q 557.18 1316.09 566.25 1299.96   A 0.81 0.81 0.0 0 0 565.91 1298.84   C 513.07 1272.40 464.26 1239.50 420.75 1199.52   Q 414.93 1194.17 406.76 1186.00   C 402.70 1181.95 394.22 1173.62 388.60 1167.56   Q 335.48 1110.21 298.33 1042.13   Q 282.92 1013.87 269.77 981.56   Q 234.26 894.32 227.26 800.59   C 227.14 799.05 227.25 795.65 226.80 793.12   C 226.24 789.92 226.75 786.32 226.39 783.44   Q 225.98 780.12 225.97 777.05   Q 225.87 757.19 226.00 738.75   Q 226.03 733.71 226.27 730.63   Q 226.55 726.99 226.55 725.37   C 226.54 722.29 226.37 720.57 226.85 718.32   C 227.46 715.44 226.83 712.14 227.47 709.19   C 227.91 707.15 227.65 705.42 227.84 702.96   Q 228.25 697.79 228.51 694.83   Q 228.92 690.20 228.95 686.68   Q 229.06 672.42 227.23 658.01   C 226.96 655.94 227.28 653.27 226.86 650.79   C 226.32 647.57 226.72 643.67 226.33 640.46   Q 225.60 634.52 226.06 622.27   C 226.08 621.64 225.57 620.53 225.57 619.74   Q 225.53 606.66 225.76 599.01   Q 225.80 597.57 225.81 596.50   Q 225.98 582.71 226.04 582.00   Q 226.66 575.13 226.61 573.81   Q 226.51 571.14 226.91 569.56   C 227.34 567.83 227.05 565.87 227.21 563.83   Q 234.86 466.80 271.91 377.89   Q 306.11 295.80 362.77 226.63   Q 367.66 220.66 375.90 211.54   Q 388.22 197.88 401.01 185.01   C 401.75 184.27 402.14 183.58 402.85 182.85   C 447.18 137.42 499.05 100.34 556.25 71.21   Q 642.07 27.51 736.64 12.17   Q 764.49 7.66 792.53 5.44   Q 793.71 5.35 792.54 5.17   Z   M 800.15 5.02   Q 798.86 4.75 798.16 5.04   Q 797.68 5.24 798.19 5.33   Q 799.14 5.50 800.13 5.40   Q 801.35 5.27 800.15 5.02   Z   M 752.81 1039.02   Q 741.81 1037.02 730.14 1034.23   Q 714.29 1030.44 699.47 1025.62   A 1.42 1.40 -47.0 0 0 698.52 1025.66   Q 697.63 1026.03 696.91 1026.66   Q 676.08 1044.91 648.88 1048.39   C 645.10 1048.88 640.72 1048.71 637.35 1048.73   Q 632.04 1048.77 628.69 1048.30   Q 603.48 1044.78 584.93 1029.31   Q 563.22 1011.20 555.81 982.82   Q 555.26 980.72 554.66 976.72   Q 553.94 971.83 553.89 970.50   Q 553.83 969.12 553.97 954.69   C 553.99 952.65 554.91 949.61 554.34 947.02   Q 554.26 946.64 553.96 946.40   Q 530.95 927.10 509.80 904.09   Q 468.51 859.14 441.65 805.16   Q 407.38 736.27 398.54 658.00   Q 398.27 655.64 396.91 640.20   C 396.68 637.67 396.88 634.82 396.64 632.44   Q 396.33 629.26 396.28 626.69   Q 395.69 599.59 396.91 581.83   Q 402.72 496.69 440.08 420.06   Q 473.35 351.82 527.29 299.25   Q 584.64 243.36 661.04 210.28   Q 716.68 186.19 775.76 179.18   Q 783.47 178.27 784.65 178.11   C 786.45 177.87 789.04 178.19 791.05 177.39   Q 791.82 177.08 791.82 176.24   L 791.82 26.51   A 1.16 1.16 0.0 0 0 790.57 25.35   Q 745.89 28.88 702.52 38.55   Q 614.51 58.18 537.30 103.04   Q 482.27 135.02 433.06 179.70   C 424.77 187.23 417.72 194.64 408.63 203.71   Q 405.96 206.37 402.91 209.82   Q 402.37 210.42 397.29 216.02   Q 335.81 283.65 297.27 367.75   Q 257.23 455.12 247.58 552.53   Q 246.91 559.24 246.26 567.21   C 246.05 569.75 246.41 572.60 246.00 574.38   C 245.07 578.41 245.70 582.80 245.27 586.93   Q 244.88 590.78 244.89 594.12   Q 244.95 614.50 244.89 627.54   Q 244.88 630.92 245.27 634.95   C 245.70 639.29 245.16 642.95 245.93 647.07   C 246.37 649.36 245.82 652.39 246.39 655.14   Q 246.53 655.82 246.73 658.50   Q 253.13 742.31 282.85 820.20   Q 293.29 847.56 304.43 869.65   Q 389.29 1037.90 555.03 1128.59   A 1.15 1.14 -66.6 0 0 556.66 1127.94   Q 559.31 1119.92 562.78 1112.77   C 574.39 1088.91 598.30 1071.70 623.99 1066.90   Q 625.39 1066.64 625.91 1066.61   C 627.84 1066.54 628.81 1065.80 630.69 1065.90   C 633.33 1066.04 635.52 1065.24 638.15 1065.29   Q 672.80 1066.00 697.25 1088.31   Q 714.76 1104.28 721.75 1127.34   Q 724.77 1137.30 725.23 1147.01   Q 726.16 1166.77 717.77 1185.75   Q 717.40 1186.59 718.30 1186.73   L 758.57 1193.16   A 0.51 0.51 0.0 0 0 759.10 1192.42   Q 746.57 1168.24 749.43 1141.40   Q 750.53 1131.17 753.88 1121.97   C 760.48 1103.83 773.08 1088.99 789.08 1078.63   Q 790.19 1077.91 790.77 1077.24   Q 791.79 1076.06 791.79 1075.25   Q 791.83 1061.70 791.81 1044.68   A 0.52 0.51 3.1 0 0 791.35 1044.17   Q 770.36 1042.22 752.81 1039.02   Z   M 932.56 33.07   Q 932.53 33.04 932.50 33.01   Q 932.43 32.90 932.19 32.86   Q 904.23 28.02 877.66 25.67   A 1.08 1.07 2.5 0 0 876.49 26.74   L 876.49 177.22   A 0.72 0.71 3.1 0 0 877.13 177.93   Q 962.63 187.14 1037.42 227.43   Q 1104.91 263.80 1155.37 320.25   Q 1225.29 398.47 1252.12 499.18   Q 1261.89 535.88 1264.86 571.01   Q 1265.56 579.29 1265.97 583.25   C 1266.22 585.71 1265.97 588.60 1266.21 591.27   C 1266.96 599.49 1266.76 607.81 1266.69 615.81   Q 1266.66 618.74 1266.26 623.71   Q 1265.93 627.65 1266.13 631.64   C 1266.17 632.52 1265.46 633.07 1265.51 634.05   Q 1265.77 639.21 1265.06 644.28   Q 1265.00 644.70 1264.84 647.52   Q 1263.34 673.59 1257.54 701.30   C 1242.37 773.74 1207.88 841.17 1159.21 896.97   Q 1137.61 921.74 1114.97 940.86   Q 1114.58 941.19 1114.47 941.69   Q 1114.18 943.01 1114.32 944.25   Q 1114.33 944.30 1115.29 950.87   C 1115.55 952.63 1115.38 954.56 1115.64 956.44   Q 1116.06 959.44 1116.07 960.58   C 1116.11 963.58 1116.41 967.07 1115.74 969.71   C 1115.35 971.26 1115.49 973.33 1115.37 974.32   Q 1112.71 995.72 1100.87 1012.08   Q 1080.53 1040.20 1046.91 1047.25   Q 1037.61 1049.20 1027.02 1048.73   Q 994.35 1047.27 970.13 1024.27   A 1.45 1.44 -32.4 0 0 968.67 1023.95   Q 924.57 1038.71 877.63 1043.71   Q 876.44 1043.83 876.44 1045.03   L 876.44 1075.94   Q 876.44 1076.48 876.81 1076.87   Q 877.38 1077.46 878.61 1078.23   Q 905.55 1094.90 915.81 1124.13   C 923.55 1146.18 921.24 1170.01 910.58 1190.60   Q 909.98 1191.76 911.28 1191.83   Q 912.85 1191.92 915.15 1191.50   Q 920.54 1190.54 949.93 1185.79   Q 952.19 1185.43 951.26 1183.34   Q 941.48 1161.19 945.54 1137.36   C 951.98 1099.56 984.52 1068.75 1023.54 1065.83   Q 1024.95 1065.73 1027.25 1065.43   Q 1029.73 1065.11 1038.00 1065.96   Q 1044.60 1066.64 1048.57 1067.55   Q 1080.11 1074.76 1099.43 1100.78   Q 1107.67 1111.88 1112.16 1124.91   A 0.88 0.88 0.0 0 0 1113.42 1125.40   Q 1198.59 1078.23 1263.57 1007.34   Q 1348.92 914.23 1388.80 794.36   Q 1391.62 785.87 1394.71 775.25   Q 1413.90 709.26 1417.31 639.99   Q 1417.47 636.70 1417.64 634.16   Q 1417.93 629.93 1417.93 628.32   Q 1417.93 598.40 1417.99 590.50   C 1418.00 589.63 1417.58 588.77 1417.55 588.01   Q 1413.71 486.88 1376.85 394.58   C 1349.90 327.08 1310.65 263.99 1260.69 210.64   Q 1249.67 198.87 1240.89 190.59   Q 1215.78 166.90 1192.93 148.95   Q 1077.90 58.63 933.98 33.31   Q 933.91 33.30 932.71 33.14   Q 932.61 33.12 932.56 33.07   Z   M 735.62 329.09   Q 763.20 323.50 776.50 322.07   Q 781.72 321.51 784.56 321.12   C 786.36 320.87 789.09 321.18 791.35 320.22   Q 791.83 320.02 791.83 319.51   L 791.83 197.76   Q 791.83 197.23 791.31 197.15   Q 788.20 196.65 783.80 197.29   Q 768.05 199.59 762.77 200.48   Q 727.28 206.41 695.00 217.73   Q 608.19 248.16 541.77 312.12   Q 534.89 318.75 527.78 326.41   Q 495.54 361.20 471.51 402.24   Q 426.87 478.47 417.89 566.06   Q 416.78 576.88 416.50 579.60   C 416.21 582.40 416.57 584.93 416.18 587.21   Q 415.63 590.44 415.69 592.84   Q 415.82 598.96 415.23 608.50   Q 414.79 615.61 415.44 621.44   Q 415.59 622.88 416.36 621.69   Q 416.67 621.20 417.05 620.03   Q 431.47 575.56 455.28 534.51   Q 489.95 474.74 542.98 428.23   Q 585.17 391.23 633.65 366.16   Q 677.01 343.74 720.81 332.83   Q 727.42 331.18 728.23 330.95   Q 732.91 329.64 735.62 329.09   Z   M 922.92 205.09   Q 913.79 202.77 902.36 200.87   Q 902.23 200.85 902.11 200.76   Q 902.02 200.69 901.91 200.68   Q 894.43 199.53 886.97 198.30   C 885.89 198.12 884.05 198.30 882.95 197.74   Q 882.50 197.51 881.99 197.54   Q 879.58 197.67 877.17 196.87   A 0.52 0.52 0.0 0 0 876.49 197.37   L 876.49 319.66   A 1.78 1.77 -89.3 0 0 878.22 321.44   Q 880.95 321.50 888.48 322.45   Q 967.17 332.42 1036.12 369.92   Q 1089.52 398.96 1133.09 440.33   C 1185.21 489.82 1223.00 551.60 1245.85 619.94   Q 1247.13 623.74 1247.16 619.73   Q 1247.26 607.96 1247.08 594.21   C 1247.06 593.39 1246.62 592.48 1246.64 591.50   Q 1246.73 584.78 1246.21 580.29   Q 1246.09 579.23 1245.67 574.75   Q 1241.90 534.39 1231.34 496.69   Q 1228.87 487.87 1225.39 477.62   Q 1186.45 362.91 1091.87 286.69   Q 1017.11 226.44 923.98 205.33   Q 923.10 205.14 922.92 205.09   Z   M 728.34 1208.01   Q 728.30 1207.98 728.26 1207.94   Q 728.17 1207.87 728.05 1207.85   Q 718.74 1206.40 708.28 1204.11   A 1.91 1.90 27.0 0 0 706.45 1204.70   C 700.05 1211.80 693.20 1218.54 685.84 1223.26   Q 657.58 1241.37 624.77 1235.47   Q 597.68 1230.60 579.40 1212.62   Q 557.81 1191.39 554.12 1161.20   Q 553.90 1159.40 553.88 1157.58   Q 553.85 1154.93 553.23 1149.75   Q 553.17 1149.26 552.73 1149.03   C 487.22 1115.21 428.98 1069.50 379.69 1014.76   Q 317.28 945.45 279.21 861.07   Q 258.17 814.44 245.05 765.43   Q 244.36 762.85 244.26 765.52   C 244.18 767.70 244.78 770.20 244.86 772.21   C 244.98 775.41 244.81 778.78 245.32 782.57   Q 245.62 784.79 245.52 788.32   C 245.48 789.52 245.85 790.77 245.93 792.13   Q 246.67 804.02 248.23 818.54   Q 251.91 852.79 259.32 885.25   C 280.93 979.85 326.90 1069.58 391.25 1141.94   Q 470.22 1230.73 576.92 1282.67   C 579.44 1283.90 579.94 1282.60 581.63 1281.14   Q 603.31 1262.44 631.00 1259.26   Q 636.69 1258.60 642.05 1258.82   Q 648.20 1259.07 653.06 1259.92   Q 679.74 1264.59 698.74 1283.02   C 711.65 1295.55 720.17 1312.04 723.98 1329.68   A 2.35 2.34 -89.0 0 0 725.68 1331.45   Q 727.87 1332.02 730.74 1332.34   Q 743.50 1333.74 782.00 1338.73   C 782.84 1338.84 784.05 1338.64 785.11 1339.16   A 1.98 1.97 -33.8 0 0 786.08 1339.35   Q 788.48 1339.23 790.60 1339.92   Q 791.85 1340.32 791.85 1339.01   L 791.85 1226.75   A 1.58 1.58 0.0 0 0 791.17 1225.45   Q 781.06 1218.39 777.52 1215.72   Q 775.74 1214.37 773.61 1214.13   Q 772.19 1213.96 766.12 1213.39   Q 756.23 1212.45 728.53 1208.11   Q 728.43 1208.09 728.34 1208.01   Z   M 910.96 1211.05   Q 903.12 1212.21 896.31 1213.33   Q 893.98 1213.71 891.81 1215.29   Q 881.93 1222.52 876.90 1226.21   Q 876.50 1226.51 876.50 1227.02   L 876.50 1337.49   A 1.27 1.26 -87.3 0 0 877.64 1338.75   C 880.43 1339.04 883.76 1338.30 885.80 1338.15   Q 888.91 1337.92 894.32 1337.31   Q 919.18 1334.52 944.92 1329.66   A 1.17 1.17 0.0 0 0 945.82 1328.86   Q 946.17 1327.68 948.44 1319.64   C 953.05 1303.30 963.26 1288.21 976.92 1277.57   Q 996.13 1262.60 1020.29 1259.55   Q 1030.18 1258.30 1040.24 1259.45   Q 1066.73 1262.48 1087.80 1280.79   Q 1088.49 1281.39 1089.31 1280.98   Q 1185.71 1233.28 1259.49 1155.24   Q 1296.01 1116.60 1325.58 1070.36   Q 1397.63 957.70 1413.80 824.53   Q 1414.01 822.87 1415.51 810.16   C 1415.68 808.64 1415.42 807.20 1415.80 805.64   C 1416.36 803.35 1415.89 800.73 1416.36 798.76   C 1417.02 795.93 1416.45 793.02 1416.97 790.58   C 1417.65 787.36 1417.08 784.18 1417.50 781.18   C 1418.17 776.37 1417.92 772.01 1418.12 766.51   Q 1418.12 766.42 1417.92 766.31   A 0.17 0.17 0.0 0 0 1417.68 766.41   C 1408.52 798.34 1397.61 829.39 1384.07 859.59   Q 1347.68 940.70 1289.91 1007.17   Q 1250.31 1052.72 1201.14 1090.90   C 1174.40 1111.65 1146.14 1129.60 1116.49 1145.84   Q 1116.03 1146.09 1116.05 1146.61   Q 1116.43 1155.98 1114.89 1165.23   C 1111.81 1183.77 1103.16 1200.54 1089.49 1213.37   Q 1069.03 1232.57 1040.33 1236.37   C 1036.27 1236.91 1031.47 1236.78 1027.92 1236.81   Q 1022.70 1236.84 1018.61 1236.22   Q 986.35 1231.38 964.56 1206.19   Q 962.75 1204.10 961.68 1203.23   Q 961.29 1202.91 960.79 1202.99   Q 959.30 1203.23 913.49 1210.58   C 912.91 1210.68 912.16 1210.55 911.51 1210.88   A 1.79 1.75 27.2 0 1 910.96 1211.05   Z   M 810.69 1057.26   Q 810.69 1067.80 810.69 1068.17   A 0.77 0.76 83.0 0 0 811.64 1068.91   Q 822.59 1066.23 834.09 1066.23   Q 845.59 1066.23 856.54 1068.92   A 0.77 0.76 -83.0 0 0 857.49 1068.18   Q 857.49 1067.81 857.49 1057.27   Q 857.49 1046.73 857.49 1046.36   A 0.77 0.76 83.0 0 0 856.54 1045.62   Q 845.59 1048.30 834.09 1048.30   Q 822.60 1048.30 811.64 1045.60   A 0.77 0.76 -83.0 0 0 810.70 1046.35   Q 810.69 1046.72 810.69 1057.26   Z"></path>
  <circle fill="#2c2b29" cx="639.35" cy="572.57" r="85.55"></circle>
  <circle fill="#2c2b29" cx="834.53" cy="572.57" r="85.50"></circle>
  <circle fill="#2c2b29" cx="1030.41" cy="572.60" r="85.50"></circle>
  <circle fill="#2c2b29" cx="639.33" cy="769.70" r="85.53"></circle>
  <circle fill="#2c2b29" cx="834.46" cy="769.65" r="85.53"></circle>
  <circle fill="#2c2b29" cx="1030.43" cy="769.65" r="85.48"></circle>
  <circle fill="#2c2b29" cx="1030.41" cy="1543.20" r="85.53"></circle>
  <path fill="#2c2b29" d="   M 516.58 1764.74   Q 507.80 1714.18 505.09 1696.98   C 504.61 1693.95 504.09 1689.16 506.05 1687.05   Q 520.12 1671.94 554.04 1636.04   C 556.32 1633.62 558.08 1635.16 558.95 1637.65   C 563.46 1650.62 565.01 1662.06 566.29 1676.78   C 567.71 1693.10 568.44 1712.62 568.15 1730.76   Q 567.52 1769.65 566.41 1785.45   Q 564.74 1809.31 559.82 1831.55   Q 557.61 1841.53 553.58 1850.84   C 551.55 1855.53 545.62 1865.20 539.05 1862.47   C 534.26 1860.48 531.73 1850.45 530.69 1844.78   Q 526.89 1824.05 516.58 1764.74   Z"></path>
  <path fill="#2c2b29" d="   M 877.00 1764.78   Q 868.21 1714.24 865.49 1697.05   C 865.01 1694.02 864.49 1689.23 866.45 1687.12   Q 880.51 1672.02 914.41 1636.12   C 916.69 1633.70 918.44 1635.24 919.32 1637.73   C 923.83 1650.69 925.38 1662.13 926.66 1676.84   C 928.09 1693.15 928.82 1712.67 928.54 1730.80   Q 927.92 1769.68 926.81 1785.47   Q 925.15 1809.32 920.24 1831.55   Q 918.03 1841.53 914.01 1850.84   C 911.98 1855.53 906.05 1865.19 899.49 1862.47   C 894.70 1860.48 892.17 1850.45 891.12 1844.79   Q 887.32 1824.07 877.00 1764.78   Z"></path>
  <path fill="#2c2b29" d="   M 226.39 1764.91   Q 217.63 1714.44 214.92 1697.27   C 214.44 1694.25 213.92 1689.47 215.88 1687.36   Q 229.92 1672.28 263.78 1636.44   C 266.06 1634.03 267.82 1635.56 268.69 1638.05   C 273.19 1651.00 274.74 1662.41 276.01 1677.11   C 277.43 1693.40 278.16 1712.89 277.87 1730.99   Q 277.24 1769.81 276.13 1785.59   Q 274.47 1809.40 269.55 1831.61   Q 267.35 1841.57 263.33 1850.86   C 261.30 1855.54 255.38 1865.20 248.82 1862.47   C 244.04 1860.48 241.51 1850.47 240.48 1844.81   Q 236.68 1824.12 226.39 1764.91   Z"></path>
  <path fill="#2c2b29" d="   M 1183.27 1836.13   Q 1182.76 1836.40 1181.75 1837.25   Q 1161.72 1854.20 1136.56 1861.54   Q 1113.67 1868.22 1089.95 1869.94   Q 1085.86 1870.23 1079.94 1870.32   Q 1076.70 1870.37 1064.85 1870.21   Q 1063.96 1870.19 1061.84 1869.79   C 1060.49 1869.54 1058.91 1869.70 1057.72 1869.58   Q 1045.72 1868.34 1035.84 1866.07   C 1016.73 1861.67 1001.29 1849.71 993.48 1831.31   Q 989.57 1822.13 988.34 1811.76   Q 987.79 1807.07 987.70 1806.42   Q 987.28 1803.08 987.29 1801.07   Q 987.47 1776.97 994.43 1756.91   Q 995.94 1752.57 1000.32 1749.23   Q 1004.54 1746.01 1008.87 1746.84   C 1014.36 1747.89 1015.42 1752.99 1016.12 1758.35   Q 1017.32 1767.50 1018.48 1774.03   C 1019.55 1780.11 1022.12 1784.69 1026.71 1788.97   Q 1035.54 1797.19 1049.56 1800.41   Q 1062.02 1803.27 1072.75 1803.34   C 1074.16 1803.35 1075.64 1803.84 1077.11 1803.84   Q 1101.73 1803.82 1102.47 1803.85   Q 1104.63 1803.96 1107.51 1803.47   C 1110.08 1803.04 1113.07 1803.59 1115.74 1802.74   C 1116.71 1802.44 1118.69 1802.67 1120.07 1802.48   Q 1125.36 1801.75 1129.36 1801.12   Q 1148.74 1798.11 1165.10 1791.09   C 1171.81 1788.21 1178.12 1784.45 1184.17 1779.59   C 1190.78 1774.27 1198.73 1766.66 1206.64 1761.12   Q 1210.26 1758.58 1212.64 1758.62   C 1216.95 1758.69 1218.16 1763.15 1218.13 1766.88   Q 1218.06 1778.04 1211.35 1787.64   A 1.85 1.85 0.0 0 0 1212.43 1790.50   Q 1216.65 1791.52 1220.62 1792.10   C 1226.15 1792.91 1231.77 1792.68 1238.50 1792.69   C 1239.15 1792.69 1239.96 1793.13 1240.76 1793.14   Q 1250.99 1793.15 1261.23 1793.15   C 1262.09 1793.14 1263.00 1792.72 1263.95 1792.70   Q 1270.07 1792.59 1275.99 1792.55   C 1277.25 1792.54 1278.02 1791.90 1279.33 1791.93   Q 1280.26 1791.96 1280.74 1791.80   Q 1284.10 1790.69 1285.12 1790.30   Q 1293.04 1787.31 1289.31 1779.08   Q 1286.52 1772.91 1283.98 1769.43   Q 1263.02 1740.80 1236.62 1717.90   A 2.43 2.42 -65.1 0 1 1235.82 1715.69   L 1242.31 1675.01   A 4.52 4.50 -4.1 0 1 1245.44 1671.41   L 1362.29 1635.50   A 1.24 1.23 77.9 0 1 1363.88 1636.53   C 1364.21 1639.22 1363.27 1641.95 1363.36 1644.36   Q 1363.46 1646.89 1363.16 1647.99   C 1362.46 1650.62 1362.98 1653.00 1362.53 1655.87   C 1361.64 1661.68 1362.56 1667.46 1361.77 1672.37   Q 1361.38 1674.78 1361.61 1675.68   Q 1362.13 1677.76 1361.92 1678.47   Q 1361.67 1679.33 1361.61 1680.51   C 1361.46 1683.53 1359.08 1685.81 1356.37 1686.62   Q 1327.23 1695.31 1297.88 1703.23   A 1.24 1.24 0.0 0 0 1297.25 1705.23   Q 1314.22 1725.28 1324.79 1746.52   C 1332.71 1762.42 1337.35 1781.12 1334.89 1798.79   Q 1332.62 1815.10 1324.07 1829.45   C 1315.53 1843.77 1302.74 1853.49 1286.43 1857.93   Q 1276.43 1860.65 1266.01 1861.40   Q 1253.61 1862.29 1240.45 1861.84   C 1238.26 1861.77 1235.95 1861.34 1234.26 1861.38   Q 1224.28 1861.58 1216.05 1860.14   Q 1205.11 1858.23 1198.00 1852.12   Q 1190.23 1845.45 1185.16 1836.67   Q 1184.48 1835.49 1183.27 1836.13   Z"></path>
  <rect fill="#2c2b29" x="-15.62" y="-16.02" transform="translate(1539.61,1658.80) rotate(-44.9)" width="31.24" height="32.04" rx="4.77"></rect>
  <path fill="#2c2b29" d="   M 1498.82 1694.22   Q 1498.82 1693.34 1499.76 1692.31   Q 1509.47 1681.70 1517.33 1675.08   Q 1519.98 1672.85 1522.94 1675.60   Q 1531.94 1683.96 1538.33 1690.17   Q 1538.94 1690.76 1539.64 1690.76   Q 1540.31 1690.76 1540.92 1690.17   Q 1547.30 1683.95 1556.29 1675.57   Q 1559.25 1672.83 1561.90 1675.05   Q 1569.77 1681.66 1579.49 1692.25   Q 1580.43 1693.28 1580.43 1694.17   Q 1580.44 1695.07 1579.49 1696.10   Q 1569.79 1706.71 1561.93 1713.33   Q 1559.28 1715.55 1556.32 1712.81   Q 1547.32 1704.45 1540.93 1698.23   Q 1540.32 1697.64 1539.62 1697.65   Q 1538.94 1697.65 1538.34 1698.24   Q 1531.95 1704.46 1522.96 1712.83   Q 1520.00 1715.58 1517.36 1713.36   Q 1509.49 1706.75 1499.76 1696.15   Q 1498.82 1695.13 1498.82 1694.22   Z"></path>
  <rect fill="#2c2b29" x="-18.25" y="-18.25" transform="translate(695.82,1709.46) rotate(43.9)" width="36.50" height="36.50" rx="5.31"></rect>
  <path fill="#2c2b29" d="   M 1131.67 1716.37   Q 1131.66 1717.27 1130.72 1718.29   Q 1120.96 1728.85 1113.07 1735.43   Q 1110.41 1737.64 1107.46 1734.88   Q 1098.51 1726.47 1092.15 1720.23   Q 1091.55 1719.63 1090.87 1719.63   Q 1090.17 1719.63 1089.56 1720.21   Q 1083.15 1726.40 1074.12 1734.73   Q 1071.15 1737.46 1068.51 1735.22   Q 1060.68 1728.58 1051.02 1717.93   Q 1050.08 1716.90 1050.08 1715.99   Q 1050.09 1715.11 1051.03 1714.09   Q 1060.79 1703.53 1068.68 1696.95   Q 1071.34 1694.75 1074.29 1697.50   Q 1083.24 1705.91 1089.60 1712.15   Q 1090.20 1712.75 1090.88 1712.75   Q 1091.58 1712.75 1092.19 1712.17   Q 1098.60 1705.98 1107.63 1697.65   Q 1110.60 1694.92 1113.24 1697.16   Q 1121.07 1703.81 1130.74 1714.45   Q 1131.67 1715.48 1131.67 1716.37   Z"></path>
  <path fill="#2c2b29" d="   M 271.01 1939.82   C 266.96 1938.80 261.53 1936.92 260.77 1932.20   C 259.75 1925.90 263.97 1922.55 269.08 1920.33   Q 314.87 1900.45 350.62 1866.13   Q 353.41 1863.45 357.48 1855.72   Q 357.72 1855.28 357.56 1854.80   Q 356.07 1850.33 354.12 1847.89   Q 340.93 1831.41 323.94 1816.17   C 322.79 1815.13 322.40 1813.84 323.08 1812.29   C 329.52 1797.81 338.00 1778.78 347.86 1764.38   Q 348.97 1762.75 350.19 1762.42   Q 351.86 1761.97 354.01 1763.71   Q 357.89 1766.84 362.52 1771.50   Q 363.17 1772.15 374.20 1782.40   C 380.67 1788.42 387.05 1790.68 395.57 1792.32   Q 396.20 1792.45 398.46 1792.55   C 399.85 1792.61 401.05 1793.15 402.36 1793.15   Q 411.29 1793.14 415.12 1793.15   Q 415.98 1793.15 419.29 1792.83   Q 420.71 1792.69 423.51 1792.54   Q 431.44 1792.12 438.84 1790.16   Q 439.33 1790.02 439.42 1789.52   C 440.09 1785.61 438.97 1782.31 436.13 1779.42   C 431.93 1775.15 425.44 1768.58 420.02 1763.74   Q 416.04 1760.18 413.13 1757.12   C 409.94 1753.75 412.04 1751.59 414.45 1748.20   Q 427.74 1729.42 443.11 1707.85   A 1.95 1.94 36.7 0 1 445.90 1707.45   Q 446.96 1708.29 449.36 1711.08   C 461.53 1725.25 468.42 1742.66 471.42 1761.26   Q 473.16 1772.05 473.23 1775.00   Q 473.38 1781.20 473.44 1783.00   Q 473.68 1789.93 473.68 1790.69   Q 473.69 1792.92 473.37 1796.79   C 473.15 1799.35 473.61 1803.12 472.83 1805.96   C 472.46 1807.30 472.77 1808.58 472.52 1810.03   Q 471.68 1814.76 471.32 1816.44   C 467.12 1836.31 454.29 1852.17 434.35 1857.87   Q 416.38 1863.00 397.79 1861.29   Q 391.43 1860.70 385.31 1858.63   A 0.41 0.40 -82.0 0 0 384.78 1859.03   Q 385.01 1867.67 383.92 1877.28   Q 379.78 1913.71 353.31 1939.50   A 0.40 0.40 0.0 0 0 353.59 1940.18   L 354.82 1940.18   Q 355.36 1940.18 355.18 1940.69   Q 355.05 1941.08 354.60 1941.31   Q 354.14 1941.55 353.62 1941.13   Q 353.41 1940.96 352.98 1940.52   Q 352.62 1940.15 352.12 1940.15   L 274.68 1940.15   Q 273.90 1940.15 273.81 1940.92   L 273.70 1941.78   A 0.56 0.54 6.7 0 1 273.08 1942.26   Q 269.10 1941.80 266.52 1940.64   Q 265.39 1940.14 266.63 1940.14   L 270.97 1940.14   Q 272.28 1940.14 271.01 1939.82   Z"></path>
  <path fill="#2c2b29" d="   M 630.08 1939.76   C 625.67 1937.93 622.35 1936.68 621.00 1931.80   Q 620.09 1928.48 622.54 1925.32   Q 624.66 1922.57 629.52 1920.27   Q 644.35 1913.23 648.11 1911.31   Q 676.42 1896.77 701.73 1874.72   Q 705.23 1871.68 709.96 1867.47   Q 712.98 1864.78 717.95 1855.96   Q 718.20 1855.52 718.02 1855.05   Q 715.27 1848.02 711.56 1843.95   Q 694.40 1825.11 690.77 1822.06   Q 686.77 1818.71 684.11 1815.72   A 4.41 4.40 37.8 0 1 683.48 1810.80   Q 696.59 1785.10 707.13 1764.39   Q 708.30 1762.09 710.51 1761.14   Q 710.99 1760.94 711.47 1761.12   Q 714.18 1762.14 715.70 1763.68   Q 726.89 1774.94 733.58 1781.53   Q 742.10 1789.93 752.76 1791.73   L 755.60 1792.21   C 757.24 1792.89 759.91 1792.46 761.77 1792.79   C 765.11 1793.37 768.10 1793.17 772.16 1793.16   C 776.79 1793.16 780.69 1792.46 785.58 1792.59   Q 788.65 1792.68 791.93 1792.00   C 794.71 1791.43 802.82 1790.15 800.18 1785.59   Q 799.56 1784.52 798.81 1783.48   Q 793.65 1776.32 787.08 1770.14   C 781.80 1765.17 776.88 1760.35 772.11 1755.49   A 2.45 2.45 0.0 0 1 771.86 1752.34   L 803.52 1707.76   A 1.68 1.68 0.0 0 1 806.08 1707.54   Q 816.97 1718.27 823.25 1732.38   Q 830.48 1748.64 832.59 1767.76   Q 832.80 1769.75 832.99 1770.34   A 1.87 0.35 68.2 0 1 833.18 1771.31   C 833.05 1774.99 833.92 1777.92 833.82 1781.23   Q 833.81 1781.44 833.81 1800.85   C 833.81 1803.73 833.04 1806.43 833.15 1809.38   Q 833.17 1809.75 833.02 1810.09   Q 832.91 1810.37 832.88 1810.52   Q 831.57 1819.09 828.88 1826.11   Q 820.58 1847.78 799.10 1856.35   C 797.42 1857.02 794.31 1858.13 791.89 1858.65   Q 779.77 1861.26 774.75 1861.33   Q 761.94 1861.51 758.51 1861.28   Q 755.66 1861.10 745.82 1859.17   Q 745.28 1859.06 745.29 1859.62   C 745.31 1862.42 745.43 1864.71 745.04 1867.78   C 744.70 1870.46 745.14 1872.95 744.63 1875.50   Q 744.51 1876.11 744.24 1878.50   Q 740.92 1907.68 722.53 1929.88   C 719.88 1933.08 715.74 1936.95 713.46 1939.37   Q 712.87 1940.00 713.44 1940.11   Q 713.83 1940.19 714.74 1940.11   Q 715.29 1940.05 715.23 1940.60   Q 715.20 1940.91 714.84 1941.14   Q 713.51 1941.96 712.83 1940.64   A 0.87 0.87 0.0 0 0 712.05 1940.16   Q 673.17 1940.04 634.23 1940.28   Q 633.25 1940.29 632.92 1940.68   Q 632.64 1941.01 632.44 1941.63   Q 632.29 1942.11 631.78 1942.07   Q 628.75 1941.84 626.45 1940.56   Q 625.72 1940.16 626.49 1940.12   C 627.26 1940.09 629.05 1940.42 630.04 1940.20   Q 630.76 1940.04 630.08 1939.76   Z"></path>
  <rect fill="#2c2b29" x="-17.72" y="-18.04" transform="translate(87.99,1746.35) rotate(-45.0)" width="35.44" height="36.08" rx="3.80"></rect>
  <path fill="#2c2b29" d="   M 1316.22 1939.85   C 1311.10 1938.41 1302.40 1936.60 1304.47 1928.87   Q 1305.56 1924.83 1308.13 1922.89   Q 1309.40 1921.93 1313.58 1920.12   Q 1359.21 1900.35 1394.06 1866.32   Q 1395.67 1864.75 1399.01 1859.67   Q 1401.09 1856.49 1400.85 1853.90   Q 1400.54 1850.64 1398.34 1847.93   Q 1384.05 1830.36 1367.14 1815.19   A 2.42 2.41 33.4 0 1 1366.56 1812.39   Q 1377.13 1789.59 1387.56 1770.29   Q 1390.17 1765.46 1392.24 1763.48   Q 1395.31 1760.54 1398.52 1763.29   Q 1402.71 1766.87 1412.30 1776.54   Q 1418.38 1782.68 1421.64 1784.96   C 1427.49 1789.03 1434.59 1792.11 1441.70 1792.56   Q 1446.40 1792.85 1450.31 1792.60   Q 1454.65 1792.32 1459.19 1791.14   C 1464.09 1789.87 1465.96 1786.64 1467.78 1782.50   Q 1469.14 1779.37 1473.81 1766.81   Q 1475.12 1763.31 1477.78 1760.64   C 1482.04 1756.36 1488.47 1759.34 1490.05 1764.45   Q 1493.05 1774.14 1496.70 1781.07   C 1499.73 1786.84 1504.86 1792.82 1512.13 1792.74   Q 1518.42 1792.66 1521.82 1786.79   Q 1534.73 1764.47 1536.70 1761.44   C 1539.54 1757.08 1544.88 1757.96 1546.20 1763.09   C 1548.44 1771.81 1551.81 1784.31 1558.75 1790.02   Q 1566.40 1796.31 1577.16 1793.37   C 1591.27 1789.50 1582.27 1770.05 1578.19 1761.58   Q 1577.28 1759.69 1578.80 1758.06   Q 1590.74 1745.31 1597.65 1738.15   C 1599.94 1735.78 1601.72 1736.99 1603.05 1739.37   C 1606.77 1746.03 1608.57 1754.22 1609.51 1762.00   Q 1609.79 1764.34 1610.63 1766.18   Q 1610.93 1766.83 1611.16 1766.15   Q 1611.50 1765.15 1611.49 1763.62   Q 1611.49 1763.61 1611.60 1763.40   Q 1611.63 1763.34 1611.62 1763.27   L 1611.62 1763.26   Q 1611.63 1763.26 1611.64 1763.26   Q 1611.97 1768.98 1612.34 1770.79   Q 1612.77 1772.92 1612.04 1775.50   Q 1611.05 1779.00 1611.77 1784.34   Q 1612.60 1790.42 1612.59 1791.39   Q 1612.55 1796.67 1611.08 1802.35   Q 1611.07 1802.37 1611.09 1802.37   Q 1612.59 1802.58 1611.11 1802.38   Q 1611.10 1802.38 1611.10 1802.36   L 1611.18 1790.30   Q 1611.20 1787.77 1610.52 1790.23   C 1610.21 1791.35 1610.50 1792.95 1610.31 1794.26   Q 1608.78 1804.44 1606.84 1813.64   C 1603.45 1829.79 1596.28 1849.70 1580.83 1858.03   Q 1570.44 1863.63 1559.59 1859.92   C 1550.21 1856.73 1542.78 1850.21 1537.68 1842.04   A 0.62 0.62 0.0 0 0 1536.62 1842.06   C 1532.16 1849.68 1528.04 1856.51 1519.85 1859.18   C 1519.07 1859.43 1517.78 1859.50 1516.82 1859.90   Q 1516.16 1860.18 1515.63 1860.18   Q 1505.16 1860.16 1505.11 1860.17   Q 1504.64 1860.21 1504.16 1859.95   C 1503.24 1859.45 1502.33 1859.66 1501.27 1859.38   Q 1487.45 1855.69 1481.56 1842.40   A 0.99 0.99 0.0 0 0 1479.75 1842.41   Q 1474.98 1853.51 1464.92 1858.41   Q 1461.06 1860.29 1455.84 1861.12   Q 1449.47 1862.15 1446.28 1861.74   Q 1443.60 1861.40 1442.73 1861.35   Q 1440.68 1861.23 1439.34 1860.93   Q 1436.08 1860.21 1435.96 1860.21   C 1433.92 1860.24 1431.85 1859.05 1429.28 1858.90   A 0.65 0.65 0.0 0 0 1428.59 1859.56   Q 1428.63 1865.33 1428.60 1869.75   C 1428.59 1872.08 1427.91 1874.05 1428.03 1876.74   Q 1428.05 1877.24 1427.81 1877.68   C 1427.21 1878.75 1427.44 1880.15 1427.27 1881.11   Q 1421.53 1914.88 1397.49 1938.98   Q 1396.35 1940.13 1397.97 1940.13   L 1398.74 1940.13   Q 1399.43 1940.13 1399.03 1940.69   L 1398.49 1941.45   Q 1398.06 1942.06 1397.58 1941.48   L 1396.87 1940.60   Q 1396.52 1940.18 1395.98 1940.18   L 1320.23 1940.18   A 1.12 1.10 17.3 0 0 1319.32 1940.65   L 1318.64 1941.61   Q 1318.35 1942.02 1317.81 1941.97   Q 1314.42 1941.63 1311.82 1940.81   Q 1309.78 1940.17 1311.91 1940.17   L 1316.17 1940.17   Q 1317.39 1940.17 1316.22 1939.85   Z"></path>
  <path fill="#2c2b29" d="   M 4.98 1877.54   Q 4.59 1881.74 5.01 1886.21   A 0.08 0.08 0.0 0 1 4.86 1886.25   Q 3.10 1880.53 2.82 1874.50   A 0.44 0.44 0.0 0 1 3.41 1874.06   Q 4.02 1874.28 4.35 1873.97   Q 4.83 1873.53 4.83 1873.24   L 4.80 1867.09   Q 4.80 1866.40 4.11 1866.31   L 3.26 1866.21   A 0.73 0.70 -83.2 0 1 2.65 1865.40   L 4.40 1851.03   Q 4.41 1850.98 4.46 1850.99   L 4.76 1851.08   Q 4.90 1851.12 4.89 1851.27   Q 4.75 1853.30 4.88 1855.41   Q 5.03 1858.04 5.53 1855.45   Q 5.96 1853.21 8.41 1840.04   C 10.23 1830.23 13.65 1819.07 18.76 1809.61   C 21.05 1805.38 24.51 1802.48 28.77 1801.01   Q 32.61 1799.69 35.70 1800.96   C 40.94 1803.11 42.09 1809.65 41.39 1814.72   Q 40.96 1817.80 40.95 1817.86   Q 40.36 1824.51 38.73 1835.87   Q 37.78 1842.50 38.48 1846.20   Q 40.58 1857.35 51.24 1863.52   Q 58.29 1867.60 66.49 1869.52   Q 76.19 1871.79 85.38 1872.37   Q 106.44 1873.69 127.94 1871.11   Q 135.76 1870.17 140.54 1869.20   C 149.81 1867.31 158.90 1863.80 163.42 1854.91   Q 163.85 1854.07 163.75 1851.27   C 163.57 1846.36 158.70 1839.34 155.50 1835.35   Q 145.12 1822.37 131.12 1810.12   Q 129.92 1809.07 129.80 1807.61   Q 129.71 1806.53 130.55 1805.06   Q 145.38 1779.36 158.20 1757.21   C 159.12 1755.63 160.68 1755.27 162.06 1756.45   Q 173.60 1766.37 179.26 1781.35   Q 187.06 1802.00 190.77 1821.36   Q 190.99 1822.51 191.82 1828.92   Q 192.06 1830.77 192.43 1833.98   C 192.98 1838.82 192.66 1843.50 192.75 1848.40   Q 192.83 1852.82 192.22 1857.61   Q 191.43 1863.89 190.93 1866.76   Q 189.18 1876.88 187.43 1882.67   Q 177.78 1914.50 149.19 1928.16   Q 134.64 1935.11 115.24 1937.36   Q 110.49 1937.91 101.77 1938.50   Q 94.73 1938.97 88.23 1938.50   Q 79.91 1937.89 77.75 1937.84   Q 76.40 1937.81 74.28 1937.44   C 73.00 1937.23 71.45 1937.53 70.28 1937.17   Q 70.13 1937.13 70.04 1937.02   Q 69.89 1936.82 69.64 1936.79   Q 45.87 1933.73 27.95 1920.12   Q 11.88 1907.92 7.28 1888.66   Q 6.63 1885.93 5.26 1877.54   Q 5.09 1876.47 4.98 1877.54   Z"></path>
  <path fill="#2c2b29" d="   M 1611.42 1762.46   Q 1611.28 1762.10 1611.54 1762.30   Q 1611.63 1762.37 1611.62 1762.48   Q 1611.58 1762.88 1611.42 1762.46   Z"></path>
  <path fill="#2c2b29" d="   M 444.84 1904.11   Q 445.54 1904.10 446.14 1903.51   Q 452.50 1897.26 461.46 1888.84   Q 464.41 1886.08 467.07 1888.29   Q 474.97 1894.87 484.74 1905.43   Q 485.69 1906.46 485.69 1907.36   Q 485.70 1908.25 484.76 1909.28   Q 475.09 1919.94 467.26 1926.59   Q 464.62 1928.83 461.64 1926.10   Q 452.60 1917.77 446.18 1911.58   Q 445.57 1910.99 444.89 1910.99   Q 444.19 1911.00 443.59 1911.59   Q 437.23 1917.84 428.27 1926.26   Q 425.32 1929.02 422.66 1926.81   Q 414.76 1920.23 404.99 1909.67   Q 404.04 1908.64 404.04 1907.76   Q 404.03 1906.85 404.97 1905.82   Q 414.64 1895.16 422.47 1888.51   Q 425.11 1886.27 428.09 1889.00   Q 437.13 1897.34 443.55 1903.52   Q 444.16 1904.11 444.84 1904.11   Z"></path>
  <path fill="#2c2b29" d="   M 846.11 1907.50   Q 846.11 1908.38 845.17 1909.41   Q 835.46 1920.02 827.60 1926.64   Q 824.95 1928.87 821.99 1926.12   Q 812.99 1917.76 806.60 1911.54   Q 805.99 1910.95 805.29 1910.95   Q 804.62 1910.95 804.01 1911.54   Q 797.63 1917.76 788.63 1926.14   Q 785.67 1928.89 783.02 1926.67   Q 775.16 1920.06 765.43 1909.46   Q 764.49 1908.43 764.49 1907.54   Q 764.49 1906.64 765.43 1905.61   Q 775.14 1895.00 783.00 1888.38   Q 785.65 1886.16 788.61 1888.90   Q 797.61 1897.27 804.01 1903.48   Q 804.61 1904.07 805.31 1904.07   Q 805.99 1904.07 806.59 1903.48   Q 812.98 1897.26 821.97 1888.88   Q 824.93 1886.13 827.58 1888.35   Q 835.45 1894.97 845.17 1905.57   Q 846.11 1906.59 846.11 1907.50   Z"></path>
</svg>
