<?xml version="1.0" encoding="UTF-8" standalone="no"?>
<!DOCTYPE svg PUBLIC "-//W3C//DTD SVG 1.1//EN" "http://www.w3.org/Graphics/SVG/1.1/DTD/svg11.dtd">
<svg xmlns="http://www.w3.org/2000/svg" version="1.1" viewBox="0.00 0.00 640.00 634.00">
<path fill="#304294" d="
  M 289.98 0.00
  L 291.34 0.00
  Q 297.20 6.06 300.33 7.44
  C 308.44 11.03 317.55 6.55 322.48 0.00
  L 323.98 0.00
  C 330.22 11.56 346.22 11.35 352.55 0.00
  L 356.21 0.00
  C 357.19 16.86 338.70 27.47 324.02 21.71
  Q 323.27 21.41 323.87 21.95
  Q 332.45 29.55 341.13 35.30
  Q 341.36 35.45 341.36 35.73
  Q 341.29 62.20 340.31 87.76
  C 338.56 133.26 337.47 160.92 337.32 197.94
  A 0.23 0.23 0.0 0 0 337.69 198.12
  C 377.53 167.74 392.33 113.29 378.06 65.87
  C 375.41 57.07 371.26 48.02 367.94 38.87
  Q 367.65 38.09 368.36 38.54
  C 389.29 52.17 401.61 76.57 405.97 101.65
  Q 408.92 118.62 407.41 139.90
  C 405.01 173.73 388.09 207.51 357.43 222.96
  A 0.28 0.28 0.0 0 0 357.42 223.45
  C 369.52 230.20 382.72 229.09 395.40 233.05
  A 0.33 0.32 37.8 0 1 395.48 233.64
  C 385.09 239.95 371.98 242.19 360.12 243.22
  Q 350.80 244.03 340.42 241.13
  A 0.95 0.94 -58.0 0 0 339.53 241.34
  L 321.15 258.16
  Q 320.75 258.53 320.37 258.14
  L 304.69 241.70
  Q 304.12 241.11 303.31 241.17
  C 284.78 242.73 264.80 241.41 249.32 231.86
  A 0.20 0.19 -39.0 0 1 249.36 231.51
  C 261.66 226.85 275.21 228.23 287.47 223.42
  Q 288.13 223.17 287.55 222.76
  C 257.85 201.92 239.34 167.76 236.74 131.83
  C 234.18 96.37 250.08 60.06 279.01 39.32
  Q 279.82 38.73 279.39 39.63
  C 271.52 55.92 265.24 73.99 263.79 91.77
  C 260.56 131.45 275.15 169.95 304.52 196.89
  A 0.32 0.32 0.0 0 0 305.06 196.65
  Q 305.31 154.31 304.51 113.93
  Q 303.71 73.53 303.08 35.08
  Q 303.07 34.60 303.50 34.38
  Q 313.49 29.32 321.26 21.39
  Q 322.76 19.85 320.77 20.66
  Q 317.18 22.13 312.86 22.99
  C 306.43 24.29 299.45 21.74 295.14 17.14
  Q 288.47 10.02 289.98 0.00
  Z"
/>
<path fill="#304294" d="
  M 234.24 209.65
  L 232.49 210.35
  Q 231.69 210.67 230.98 210.20
  Q 205.76 193.52 195.14 168.00
  C 183.94 141.09 185.45 109.97 197.16 83.74
  Q 212.76 48.79 249.16 36.15
  Q 260.02 32.38 273.18 32.05
  Q 273.92 32.03 273.58 32.69
  Q 272.35 35.06 269.95 36.35
  Q 253.27 45.26 241.54 63.23
  C 221.83 93.46 214.26 129.19 218.48 164.87
  C 220.28 180.04 226.00 196.32 234.52 208.73
  A 0.62 0.61 -28.4 0 1 234.24 209.65
  Z"
/>
<path fill="#304294" d="
  M 448.24 84.59
  C 462.51 114.74 462.53 151.00 446.19 180.15
  Q 435.28 199.63 414.60 211.26
  A 0.32 0.32 0.0 0 1 414.12 210.96
  C 414.60 203.78 420.53 198.59 422.89 191.96
  C 427.52 178.97 429.54 166.22 430.76 152.55
  Q 431.48 144.52 430.77 136.09
  C 428.17 105.24 420.29 77.13 400.27 53.43
  C 394.63 46.75 388.28 42.22 381.53 37.09
  Q 380.06 35.98 378.78 34.71
  Q 378.20 34.13 379.02 34.19
  C 409.90 36.25 435.27 57.18 448.24 84.59
  Z"
/>
<path fill="#304294" d="
  M 217.08 291.78
  Q 213.15 295.14 209.25 298.73
  Q 190.14 316.31 172.52 333.62
  Q 165.27 340.74 158.06 347.42
  Q 135.20 368.61 112.41 391.43
  C 109.85 393.99 107.06 396.05 103.29 395.83
  Q 74.92 394.16 43.11 394.49
  A 0.50 0.50 0.0 0 1 42.61 393.99
  L 42.42 335.05
  A 0.39 0.38 90.0 0 1 42.80 334.66
  C 56.68 334.46 70.44 334.83 84.25 334.24
  A 1.37 1.36 -67.3 0 0 85.12 333.88
  C 92.66 326.98 100.39 319.87 107.55 312.76
  Q 133.99 286.53 160.85 261.24
  C 177.06 245.98 192.48 230.34 208.92 214.34
  C 213.81 209.58 220.22 207.29 225.57 212.79
  Q 268.75 257.18 310.47 300.12
  Q 314.09 303.85 316.07 308.30
  Q 316.29 308.80 315.97 309.25
  C 313.94 312.05 311.92 314.87 309.47 317.31
  Q 267.22 359.40 221.98 404.44
  Q 221.50 404.93 220.81 404.93
  L 212.53 404.93
  Q 211.96 404.93 211.55 404.52
  Q 191.55 384.38 171.09 364.16
  Q 165.27 358.41 159.38 351.89
  Q 159.03 351.51 159.38 351.13
  Q 179.53 329.62 199.91 311.35
  A 1.19 1.18 -60.6 0 1 200.93 311.06
  Q 204.98 311.86 208.05 314.72
  Q 212.22 318.61 216.58 322.16
  A 0.73 0.72 40.8 0 0 217.57 322.09
  L 231.77 306.80
  Q 232.00 306.56 231.77 306.32
  L 217.94 291.82
  Q 217.53 291.40 217.08 291.78
  Z"
/>
<path fill="#304294" d="
  M 423.76 294.48
  Q 415.98 300.91 408.64 309.17
  Q 408.27 309.60 408.64 310.03
  Q 415.85 318.29 423.97 325.97
  Q 424.33 326.31 424.70 325.98
  C 461.65 292.58 496.17 256.54 532.69 222.39
  Q 533.12 221.99 533.72 221.99
  L 597.75 222.10
  Q 598.39 222.10 598.39 222.75
  L 598.50 281.79
  A 0.29 0.28 0.0 0 1 598.21 282.07
  L 557.26 282.07
  Q 556.70 282.07 556.29 282.47
  C 532.23 305.76 507.53 329.21 483.29 353.20
  Q 463.33 372.96 439.93 394.93
  C 435.73 398.87 431.86 403.35 427.00 406.79
  C 422.63 409.88 417.49 405.49 414.55 402.50
  Q 372.26 359.40 332.11 318.61
  Q 328.85 315.30 326.30 311.60
  C 323.93 308.15 326.61 304.69 328.99 302.31
  Q 373.98 257.21 419.44 211.79
  Q 419.82 211.41 420.36 211.38
  C 423.52 211.19 428.41 210.88 430.78 213.26
  Q 456.85 239.44 482.40 265.15
  A 0.22 0.20 46.9 0 1 482.40 265.45
  Q 462.47 284.28 443.98 302.96
  C 441.48 305.49 438.11 306.55 435.01 304.20
  C 431.30 301.39 428.04 298.09 424.83 294.55
  Q 424.33 294.00 423.76 294.48
  Z"
/>
<path fill="#304294" d="
  M 83.88 278.81
  C 71.12 278.05 58.37 278.46 45.40 278.48
  Q 44.78 278.49 44.78 277.86
  Q 44.82 248.28 44.07 220.50
  Q 44.06 219.88 44.68 219.88
  Q 75.72 219.78 107.93 219.62
  C 110.56 219.61 112.78 221.16 114.55 222.98
  Q 131.68 240.71 153.39 261.86
  Q 153.82 262.28 153.38 262.71
  L 111.75 302.69
  Q 111.27 303.15 110.78 302.69
  Q 98.08 290.49 85.15 279.33
  Q 84.60 278.86 83.88 278.81
  Z"
/>
<path fill="#304294" d="
  M 1.70 302.67
  C 2.80 297.09 10.66 286.11 16.86 285.95
  Q 30.01 285.59 43.34 285.62
  C 54.75 285.64 66.21 285.06 77.32 284.86
  Q 79.82 284.82 82.26 285.48
  Q 82.77 285.63 83.12 286.03
  L 100.13 306.05
  Q 100.46 306.43 100.09 306.79
  Q 93.29 313.39 86.35 321.03
  Q 84.26 323.33 80.97 325.59
  Q 80.49 325.91 79.92 325.91
  Q 54.65 325.87 24.71 326.22
  Q 17.55 326.30 14.31 324.95
  C 5.93 321.47 -0.13 311.90 1.70 302.67
  Z"
/>
<path fill="#304294" d="
  M 637.41 320.18
  C 634.20 325.92 630.21 332.20 622.84 332.27
  Q 591.88 332.61 559.69 333.09
  Q 559.14 333.09 558.79 332.68
  L 540.72 311.68
  Q 539.83 310.66 540.82 309.73
  L 558.92 292.72
  Q 559.23 292.43 559.66 292.43
  Q 593.36 292.34 622.41 292.05
  C 629.84 291.97 634.84 298.53 638.73 304.07
  A 1.76 1.72 -63.3 0 1 639.05 305.08
  Q 639.04 310.82 639.08 316.26
  C 639.09 317.81 638.12 318.90 637.41 320.18
  Z"
/>
<path fill="#304294" d="
  M 558.03 340.66
  L 596.74 340.66
  A 0.34 0.34 0.0 0 1 597.08 340.98
  Q 598.18 362.81 599.30 384.75
  Q 599.58 390.09 599.22 400.01
  Q 599.20 400.54 598.67 400.53
  L 530.14 398.31
  A 0.86 0.84 -20.8 0 1 529.55 398.05
  L 488.94 356.97
  Q 488.52 356.53 488.95 356.10
  L 531.62 313.17
  Q 531.94 312.84 532.25 313.18
  L 556.82 340.13
  Q 557.31 340.66 558.03 340.66
  Z"
/>
<path fill="#304294" d="
  M 334.63 385.23
  C 343.38 389.62 350.12 397.08 352.86 406.05
  C 355.22 413.76 354.93 422.16 351.33 429.14
  Q 342.26 446.73 323.15 448.98
  Q 322.48 449.06 322.48 449.74
  Q 322.64 477.65 322.64 506.82
  Q 322.64 510.41 319.87 512.58
  Q 319.48 512.89 319.12 512.54
  Q 270.91 465.68 224.89 416.99
  Q 224.42 416.50 224.43 415.82
  C 224.44 413.47 224.07 410.10 225.90 408.30
  Q 267.79 367.14 312.66 323.02
  Q 316.41 319.33 321.26 316.89
  Q 321.99 316.53 322.75 316.83
  C 324.96 317.71 327.67 318.17 329.41 319.93
  Q 377.18 368.47 423.41 415.47
  Q 423.99 416.07 423.16 416.11
  Q 402.32 416.97 381.34 416.47
  Q 380.75 416.45 380.45 415.95
  C 370.61 399.39 354.22 386.65 334.74 384.83
  Q 333.65 384.73 334.63 385.23
  Z
  M 299.63 442.29
  Q 300.60 442.58 299.89 441.85
  C 294.70 436.48 289.70 429.69 288.51 422.25
  Q 287.76 417.51 287.94 412.71
  C 288.32 402.45 294.49 393.03 302.85 387.02
  Q 304.23 386.03 302.60 386.51
  C 291.54 389.77 280.84 395.02 273.49 403.81
  C 265.92 412.86 267.98 424.74 277.37 431.42
  Q 287.51 438.62 299.63 442.29
  Z"
/>
<path fill="#304294" d="
  M 387.49 531.46
  Q 381.58 529.48 377.29 533.00
  Q 375.84 534.19 373.93 533.70
  Q 373.32 533.54 373.64 533.00
  C 378.53 525.00 388.21 526.04 395.71 529.69
  Q 396.24 529.95 395.91 530.44
  C 392.28 535.91 385.69 537.59 380.12 540.12
  Q 378.43 540.89 376.96 542.19
  Q 376.59 542.52 376.91 542.90
  L 381.55 548.31
  A 3.94 3.93 69.0 0 1 378.67 554.80
  L 370.96 555.01
  Q 370.41 555.03 370.00 555.39
  C 365.45 559.32 363.55 565.48 360.86 570.75
  Q 359.48 573.47 360.10 570.48
  Q 360.98 566.25 361.31 562.34
  Q 361.35 561.76 360.82 561.52
  L 357.97 560.24
  A 2.62 2.62 0.0 0 0 355.14 560.69
  C 349.37 565.96 345.61 572.62 341.61 579.40
  Q 341.34 579.85 340.87 580.07
  Q 334.44 583.13 327.10 584.51
  Q 324.69 584.97 326.77 583.68
  Q 333.07 579.77 338.12 576.28
  Q 340.75 574.46 342.68 571.94
  A 0.89 0.89 0.0 0 0 342.26 570.56
  C 339.87 569.72 333.81 569.50 335.72 565.17
  Q 338.28 559.38 342.02 554.61
  Q 342.34 554.21 342.75 554.51
  C 345.49 556.49 347.63 558.94 349.72 561.63
  Q 350.21 562.25 350.66 561.61
  C 353.11 558.11 356.55 551.94 361.57 553.10
  Q 362.11 553.23 362.37 553.71
  L 364.04 556.76
  A 0.27 0.27 0.0 0 0 364.49 556.79
  Q 370.75 548.73 375.07 541.16
  C 377.29 537.28 383.69 534.29 387.55 532.04
  A 0.32 0.32 0.0 0 0 387.49 531.46
  Z"
/>
<path fill="#304294" d="
  M 182.12 578.70
  C 190.35 578.57 194.44 569.98 194.13 562.59
  C 193.70 552.37 192.90 540.88 198.86 532.22
  Q 199.83 530.80 199.56 532.50
  Q 197.74 543.74 198.65 555.26
  C 199.00 559.72 204.49 559.67 207.96 559.22
  A 1.64 1.64 0.0 0 0 208.84 558.83
  Q 211.87 556.22 215.72 555.00
  C 219.70 553.74 222.89 549.68 225.71 546.76
  Q 226.47 545.98 226.17 547.02
  C 224.07 554.35 219.00 560.65 211.60 561.66
  Q 210.97 561.74 210.59 562.25
  C 207.48 566.36 202.69 572.03 197.17 568.67
  Q 196.60 568.32 196.49 568.98
  Q 194.68 579.13 187.45 584.20
  C 185.08 585.86 181.43 583.67 179.19 582.47
  Q 178.74 582.22 178.77 581.71
  Q 178.95 578.45 180.78 575.98
  Q 181.15 575.49 181.21 574.88
  C 182.27 563.03 181.79 550.44 186.80 539.36
  Q 187.57 537.66 187.61 539.53
  C 187.89 552.66 187.34 565.72 181.76 578.16
  Q 181.52 578.71 182.12 578.70
  Z"
/>
<path fill="#304294" d="
  M 485.35 561.71
  A 0.79 0.79 0.0 0 0 484.61 562.90
  Q 486.13 565.46 487.35 567.99
  Q 488.50 570.39 487.08 572.40
  C 484.91 575.46 480.74 574.80 477.49 574.31
  Q 477.02 574.24 476.74 574.61
  Q 474.48 577.59 472.58 581.02
  C 471.31 583.34 468.63 584.21 466.33 585.12
  Q 465.79 585.33 465.28 585.05
  C 461.39 582.87 459.51 580.15 459.44 575.43
  Q 459.14 555.19 466.79 536.81
  Q 467.10 536.08 467.00 536.87
  Q 465.71 547.30 464.02 558.53
  Q 463.31 563.24 463.75 567.96
  Q 464.17 572.61 468.70 574.50
  A 1.81 1.77 -41.5 0 0 469.89 574.56
  C 480.82 571.35 480.22 558.05 490.34 555.07
  A 1.13 1.10 -41.3 0 1 491.08 555.11
  L 495.63 556.90
  Q 496.10 557.09 496.53 556.83
  Q 502.42 553.36 507.71 549.35
  A 0.40 0.40 0.0 0 1 508.35 549.60
  C 509.40 555.39 498.90 560.05 494.72 561.02
  Q 489.94 562.12 485.35 561.71
  Z"
/>
<path fill="#304294" d="
  M 60.91 579.72
  C 65.02 566.82 63.78 553.25 71.61 541.94
  Q 72.09 541.25 71.97 542.08
  Q 70.41 552.75 69.20 562.99
  C 68.48 569.11 65.81 575.75 61.27 579.95
  Q 60.65 580.52 60.91 579.72
  Z"
/>
<path fill="#304294" d="
  M 107.56 579.26
  C 106.57 580.80 106.52 582.31 105.65 583.82
  Q 105.24 584.53 105.24 583.71
  Q 105.23 580.70 106.01 577.81
  Q 108.05 570.26 108.61 564.62
  C 109.45 556.15 111.63 549.53 116.02 542.58
  Q 116.17 542.34 116.15 542.62
  Q 115.24 551.95 113.96 560.99
  Q 112.47 571.62 107.56 579.26
  Z"
/>
<path fill="#304294" d="
  M 544.51 581.55
  C 549.06 568.91 547.49 554.64 555.53 542.99
  Q 556.03 542.27 555.92 543.14
  Q 554.69 553.37 553.36 563.04
  Q 551.87 573.84 545.04 581.85
  Q 543.95 583.13 544.51 581.55
  Z"
/>
<path fill="#304294" d="
  M 228.70 581.67
  C 232.98 569.62 231.60 554.97 238.99 544.17
  Q 239.49 543.43 239.44 544.33
  Q 238.49 560.58 236.15 569.23
  Q 234.16 576.61 229.10 581.92
  Q 228.32 582.74 228.70 581.67
  Z"
/>
<path fill="#304294" d="
  M 156.05 570.37
  L 161.50 572.89
  Q 161.89 573.07 162.13 573.44
  C 164.55 577.15 163.65 581.15 162.64 585.14
  C 159.73 596.58 152.72 608.46 140.09 609.89
  Q 132.54 610.74 128.79 604.62
  C 127.19 602.01 126.00 599.09 125.85 596.05
  Q 125.50 588.59 128.23 581.50
  Q 131.59 572.74 134.90 564.73
  Q 135.21 563.98 136.02 564.06
  L 136.44 564.11
  Q 137.22 564.19 136.92 564.91
  C 133.33 573.54 128.85 581.69 130.13 591.27
  C 130.48 593.88 133.29 596.25 135.03 598.08
  Q 135.46 598.53 136.08 598.61
  C 146.23 599.87 156.41 596.03 159.90 586.01
  Q 160.09 585.47 159.59 585.18
  L 152.26 580.93
  Q 151.72 580.61 151.67 579.99
  C 150.76 570.20 157.80 563.47 164.16 557.11
  Q 164.70 556.57 163.99 556.28
  Q 163.29 555.98 162.74 555.52
  Q 162.29 555.14 162.56 554.61
  L 167.72 544.70
  Q 168.02 544.13 168.57 544.47
  L 175.98 549.07
  Q 176.48 549.38 176.29 549.94
  Q 174.37 555.40 169.78 558.35
  C 165.20 561.30 158.43 564.79 155.82 569.68
  Q 155.57 570.15 156.05 570.37
  Z"
/>
<path fill="#304294" d="
  M 434.55 582.85
  Q 429.59 581.48 426.89 576.75
  Q 426.64 576.30 426.77 575.79
  C 430.21 562.63 439.08 550.95 451.71 545.66
  Q 452.30 545.41 452.18 546.04
  Q 451.32 550.62 449.20 555.83
  Q 449.00 556.31 448.48 556.28
  C 442.03 555.97 437.24 561.00 433.39 565.65
  C 430.56 569.08 435.68 571.07 438.05 572.12
  A 1.45 1.44 10.6 0 1 438.90 573.35
  Q 439.87 590.10 428.97 602.29
  C 423.61 608.30 417.62 609.25 410.13 608.41
  C 405.60 607.90 402.97 604.33 402.28 599.98
  C 400.30 587.50 405.39 578.01 410.42 567.15
  Q 412.08 563.56 413.96 561.59
  Q 415.67 559.81 414.70 562.08
  C 411.03 570.61 407.03 579.33 405.00 587.94
  Q 404.85 588.54 405.09 589.11
  L 407.24 594.40
  Q 407.44 594.90 407.91 595.16
  C 417.11 600.24 427.47 596.79 433.95 588.97
  C 435.22 587.44 434.84 585.51 435.09 583.66
  Q 435.17 583.02 434.55 582.85
  Z"
/>
<path fill="#304294" d="
  M 278.15 569.61
  C 281.12 571.25 284.95 572.82 284.89 576.87
  C 284.73 588.32 280.48 598.77 271.66 606.22
  Q 268.87 608.58 265.51 609.06
  C 259.79 609.88 252.26 610.03 249.56 604.10
  C 246.26 596.83 247.37 589.32 250.07 582.18
  Q 253.16 574.00 257.37 565.63
  Q 258.45 563.47 260.05 561.69
  Q 260.58 561.11 260.44 561.88
  Q 260.01 564.37 259.03 566.63
  Q 256.08 573.47 253.41 580.24
  Q 251.10 586.10 251.62 591.87
  C 251.96 595.63 255.52 597.92 259.03 598.27
  C 269.18 599.29 278.65 594.51 282.11 584.58
  Q 282.32 583.98 281.73 583.76
  L 273.56 580.64
  A 0.84 0.82 12.4 0 1 273.03 579.83
  C 273.59 564.68 284.44 552.24 297.97 546.55
  Q 298.81 546.20 298.48 547.04
  L 294.75 556.70
  Q 294.53 557.26 293.92 557.26
  C 286.45 557.23 281.65 562.54 277.89 568.59
  Q 277.48 569.24 278.15 569.61
  Z"
/>
<path fill="#304294" d="
  M 83.11 571.24
  C 85.64 566.39 87.39 560.44 92.41 557.41
  Q 97.42 554.38 101.83 550.01
  Q 102.56 549.30 102.20 550.25
  C 100.51 554.67 98.87 560.55 94.29 562.84
  C 89.86 565.05 86.89 568.25 85.65 573.28
  C 83.71 581.17 75.66 584.07 68.18 584.21
  Q 67.62 584.22 67.95 583.76
  Q 68.74 582.68 69.82 581.86
  Q 75.03 577.90 80.73 573.94
  A 7.59 7.58 -3.6 0 0 83.11 571.24
  Z"
/>
<path fill="#304294" d="
  M 573.23 578.08
  C 569.80 583.43 563.01 585.35 557.02 586.53
  Q 554.34 587.06 556.58 585.49
  Q 562.79 581.12 566.86 578.24
  C 571.64 574.85 575.08 567.19 577.78 561.80
  Q 578.03 561.32 578.46 561.64
  L 579.38 562.31
  Q 579.92 562.71 579.60 563.29
  Q 577.41 567.24 578.79 571.03
  C 580.28 575.11 585.40 575.23 588.48 572.93
  C 591.68 570.53 594.60 567.08 599.03 567.68
  Q 599.56 567.75 599.87 567.31
  C 602.99 562.79 606.17 557.87 610.68 554.51
  Q 613.71 552.25 616.75 554.61
  A 1.38 1.37 17.7 0 1 617.28 555.63
  C 617.94 568.49 604.58 580.81 592.07 575.34
  Q 591.42 575.05 591.02 575.65
  C 588.16 579.94 582.76 588.85 576.34 583.63
  Q 573.77 581.54 573.78 578.24
  Q 573.78 577.22 573.23 578.08
  Z
  M 601.84 567.93
  Q 601.51 568.34 602.03 568.32
  C 606.52 568.20 614.16 565.12 612.68 559.61
  Q 612.55 559.15 612.07 559.16
  C 607.20 559.30 604.48 564.60 601.84 567.93
  Z"
/>
<path fill="#304294" d="
  M 315.36 575.00
  C 312.52 581.43 306.17 582.63 300.00 584.26
  Q 299.27 584.46 299.68 583.81
  Q 300.49 582.52 301.69 581.40
  Q 306.55 576.88 310.87 572.67
  C 316.16 567.53 315.67 560.32 319.95 554.82
  Q 320.53 554.08 320.41 555.02
  Q 318.84 567.12 315.36 575.00
  Z"
/>
<path fill="#304294" d="
  M 525.90 570.41
  C 523.31 570.10 520.28 569.83 518.97 567.22
  Q 518.79 566.85 518.89 566.44
  C 519.79 562.85 521.80 557.24 524.78 555.14
  C 527.50 553.23 531.45 555.64 531.32 558.90
  Q 530.99 567.31 527.94 574.16
  Q 526.36 577.70 524.22 579.47
  C 520.87 582.24 515.76 583.52 511.57 584.76
  Q 510.51 585.07 511.33 584.33
  C 516.24 579.89 522.06 576.15 526.21 571.19
  Q 526.77 570.51 525.90 570.41
  Z"
/>
<path fill="#304294" d="
  M 16.87 593.60
  C 17.27 594.43 17.88 595.35 18.71 595.80
  C 30.36 602.12 45.01 595.90 50.14 584.08
  Q 51.33 581.34 51.20 578.15
  C 50.89 570.22 52.03 563.42 56.90 556.83
  Q 57.73 555.72 57.55 557.09
  Q 56.45 565.67 55.29 574.80
  C 53.08 592.10 40.36 612.91 19.95 609.19
  Q 17.62 608.77 16.08 606.91
  C 6.74 595.64 13.29 579.91 20.63 569.00
  Q 22.08 566.84 21.32 569.33
  Q 19.57 575.08 17.30 580.41
  Q 14.08 587.94 16.87 593.60
  Z"
/>
<path fill="#304294" d="
  M 37.48 580.70
  L 29.33 576.66
  A 0.40 0.40 0.0 0 1 29.16 576.10
  L 34.88 566.10
  A 0.27 0.27 0.0 0 1 35.27 566.02
  L 40.41 569.87
  A 1.05 1.05 0.0 0 1 40.83 570.75
  Q 40.61 575.99 38.07 580.51
  Q 37.86 580.89 37.48 580.70
  Z"
/>
<path fill="#304294" d="
  M 378.13 591.13
  L 383.74 583.08
  A 0.33 0.33 0.0 0 1 384.26 583.05
  L 389.77 589.14
  A 0.33 0.33 0.0 0 1 389.81 589.53
  L 384.79 598.17
  A 0.33 0.33 0.0 0 1 384.26 598.23
  L 378.16 591.54
  A 0.33 0.33 0.0 0 1 378.13 591.13
  Z"
/>
<path fill="#304294" d="
  M 78.44 616.71
  L 83.96 608.76
  A 0.40 0.40 0.0 0 1 84.59 608.72
  L 90.00 614.70
  A 0.40 0.40 0.0 0 1 90.05 615.17
  L 85.10 623.72
  A 0.40 0.40 0.0 0 1 84.46 623.79
  L 78.47 617.21
  A 0.40 0.40 0.0 0 1 78.44 616.71
  Z"
/>
<path fill="#304294" d="
  M 89.94 616.73
  L 95.53 608.71
  A 0.34 0.34 0.0 0 1 96.06 608.68
  L 101.56 614.74
  A 0.34 0.34 0.0 0 1 101.60 615.14
  L 96.57 623.78
  A 0.34 0.34 0.0 0 1 96.03 623.84
  L 89.97 617.15
  A 0.34 0.34 0.0 0 1 89.94 616.73
  Z"
/>
<path fill="#304294" d="
  M 480.25 625.85
  L 476.51 632.37
  A 0.31 0.31 0.0 0 1 476.01 632.42
  L 469.89 625.66
  A 0.31 0.31 0.0 0 1 469.86 625.28
  L 475.51 617.19
  A 0.31 0.31 0.0 0 1 476.00 617.17
  L 481.40 623.28
  A 0.31 0.31 0.0 0 0 481.89 623.25
  L 486.20 617.23
  A 0.31 0.31 0.0 0 1 486.68 617.21
  L 492.18 623.30
  A 0.31 0.31 0.0 0 1 492.22 623.67
  L 487.15 632.38
  A 0.31 0.31 0.0 0 1 486.66 632.43
  L 480.75 625.80
  A 0.31 0.31 0.0 0 0 480.25 625.85
  Z"
/>
</svg>
