<?xml version="1.0" encoding="UTF-8" standalone="no"?>
<svg xmlns="http://www.w3.org/2000/svg" version="1.1" viewBox="0.00 0.00 330.00 330.00">
  <path fill="#000000" d="   M 168.41 0.00   Q 219.68 1.76 260.40 30.62   Q 291.61 52.73 309.80 86.43   Q 328.29 120.69 330.00 159.67   L 330.00 170.40   Q 327.76 219.62 300.32 259.34   Q 294.48 267.79 287.93 275.01   Q 247.39 319.70 186.61 328.83   Q 183.49 329.30 178.87 329.56   Q 174.99 329.77 171.12 330.00   L 158.79 330.00   C 111.20 328.14 66.86 305.84 36.79 268.95   Q 2.81 227.25 0.00 171.37   L 0.00 159.61   Q 1.83 117.01 23.04 81.05   Q 40.19 51.98 68.13 31.63   Q 109.13 1.77 161.64 0.00   L 168.41 0.00   Z   M 323.04 165.13   A 158.09 158.09 0.0 0 0 164.95 7.04   A 158.09 158.09 0.0 0 0 6.86 165.13   A 158.09 158.09 0.0 0 0 164.95 323.22   A 158.09 158.09 0.0 0 0 323.04 165.13   Z"></path>
  <path fill="#000000" d="   M 189.26 296.02   Q 188.94 309.27 189.02 312.76   C 189.11 316.70 187.08 316.35 183.81 316.51   Q 168.19 317.27 152.56 317.08   C 148.55 317.03 145.01 316.48 141.25 315.90   A 0.76 0.75 -85.2 0 1 140.61 315.14   L 141.07 296.25   Q 141.08 295.61 140.46 295.44   L 120.87 290.15   A 0.69 0.68 -68.1 0 0 120.08 290.49   Q 115.30 299.20 111.28 305.31   Q 109.69 307.73 107.53 306.70   Q 87.73 297.22 69.87 284.75   A 1.41 1.40 32.6 0 1 69.46 282.90   L 78.83 266.67   A 0.48 0.47 -52.2 0 0 78.76 266.09   L 64.04 251.38   A 0.52 0.51 52.8 0 0 63.42 251.29   L 46.38 261.13   A 0.34 0.34 0.0 0 1 45.93 261.03   Q 33.11 242.88 23.99 223.80   Q 23.26 222.27 23.10 220.83   Q 23.05 220.32 23.45 220.00   C 28.62 215.87 36.64 211.74 39.75 209.84   Q 40.10 209.63 39.99 209.24   L 34.66 189.71   A 0.26 0.26 0.0 0 0 34.42 189.52   L 14.65 189.04   Q 14.23 189.03 14.12 188.63   Q 13.34 185.60 13.23 178.26   Q 13.04 164.52 13.17 151.80   Q 13.23 146.40 14.17 141.37   Q 14.28 140.75 14.91 140.77   L 33.90 141.23   A 0.89 0.87 6.3 0 0 34.78 140.54   Q 37.18 129.67 39.99 121.13   Q 40.14 120.66 39.72 120.42   Q 30.04 114.78 25.55 111.98   Q 24.97 111.62 23.31 110.08   Q 22.93 109.72 23.05 109.22   Q 23.46 107.54 24.30 105.79   Q 33.33 87.09 45.83 69.38   Q 46.11 68.98 46.53 69.22   L 63.25 78.88   Q 63.76 79.17 64.17 78.76   L 78.70 64.23   A 0.58 0.58 0.0 0 0 78.79 63.52   L 69.42 47.30   A 1.34 1.34 0.0 0 1 69.82 45.54   Q 88.01 32.86 107.77 23.46   Q 109.61 22.59 110.76 24.27   Q 115.42 31.08 120.05 39.77   A 0.76 0.74 67.7 0 0 120.91 40.14   L 140.35 34.84   A 0.36 0.36 0.0 0 0 140.61 34.51   L 141.08 14.80   Q 141.09 14.52 141.36 14.43   Q 143.61 13.68 145.00 13.63   Q 162.45 12.90 182.27 13.49   Q 185.59 13.59 188.77 14.42   Q 189.35 14.58 189.34 15.18   L 188.89 33.73   A 1.12 1.12 0.0 0 0 189.72 34.84   L 209.05 40.06   Q 209.62 40.22 209.90 39.70   Q 213.36 33.45 217.08 27.35   Q 218.16 25.57 219.64 23.89   Q 220.67 22.73 222.07 23.40   Q 237.43 30.69 253.63 41.09   Q 258.29 44.08 260.70 46.24   A 0.47 0.47 0.0 0 1 260.79 46.83   L 251.16 63.51   Q 250.94 63.91 251.26 64.23   L 265.84 78.81   Q 266.20 79.17 266.63 78.92   L 283.49 69.18   A 0.47 0.46 57.0 0 1 284.10 69.32   Q 293.48 82.67 301.05 96.71   Q 304.65 103.40 306.86 108.71   A 1.49 1.48 -29.3 0 1 306.36 110.48   Q 299.66 115.29 290.45 120.11   A 0.85 0.83 68.8 0 0 290.03 121.08   L 295.25 140.23   Q 295.39 140.75 295.94 140.77   L 315.21 141.23   Q 315.72 141.24 315.84 141.73   Q 316.41 144.03 316.51 146.28   Q 317.31 165.93 316.47 184.75   Q 316.39 186.61 315.64 188.96   A 0.79 0.78 -80.5 0 1 314.88 189.51   L 296.10 189.05   A 0.77 0.76 7.6 0 0 295.34 189.62   L 290.02 209.31   A 0.69 0.68 21.8 0 0 290.36 210.09   Q 300.38 215.38 306.58 219.95   A 0.88 0.87 20.9 0 1 306.93 220.72   Q 306.82 222.07 305.42 224.93   Q 296.25 243.74 284.03 261.02   Q 283.85 261.29 283.56 261.13   L 266.61 251.34   A 0.63 0.61 37.1 0 0 265.86 251.43   L 251.18 266.11   A 0.45 0.43 -38.6 0 0 251.11 266.65   L 260.68 283.24   A 0.84 0.82 56.4 0 1 260.47 284.32   Q 255.46 288.14 249.83 291.58   Q 238.19 298.70 228.82 303.57   Q 224.58 305.78 221.51 306.96   A 1.74 1.73 -28.0 0 1 219.45 306.33   Q 214.46 299.16 209.89 290.44   A 0.62 0.62 0.0 0 0 209.19 290.13   L 189.70 295.45   Q 189.27 295.57 189.26 296.02   Z   M 155.29 47.61   Q 135.17 50.19 114.46 58.46   Q 114.00 58.64 113.75 58.21   L 104.16 41.61   A 0.27 0.26 -29.4 0 0 103.79 41.51   L 90.20 49.36   Q 88.52 50.33 89.44 52.03   L 97.30 66.72   A 1.64 1.63 -33.3 0 1 96.87 68.77   C 88.93 75.03 82.09 80.97 75.89 88.24   Q 71.74 93.11 68.61 97.03   A 1.62 1.61 -56.6 0 1 66.59 97.45   L 51.00 89.12   A 0.79 0.79 0.0 0 0 49.97 89.37   Q 45.38 96.33 41.43 103.87   A 0.51 0.51 0.0 0 0 41.63 104.54   L 58.08 114.04   Q 58.56 114.32 58.35 114.84   Q 50.40 133.73 47.38 155.58   Q 47.29 156.23 46.64 156.21   L 28.59 155.78   A 0.72 0.71 -84.5 0 0 27.86 156.39   Q 26.55 164.91 27.83 173.69   Q 27.88 174.04 28.24 174.05   L 47.18 174.51   Q 47.52 174.52 47.57 174.86   Q 50.38 197.02 58.35 215.48   Q 58.55 215.96 58.10 216.22   L 41.50 225.80   Q 41.14 226.02 41.35 226.38   L 49.58 240.64   Q 50.14 241.61 51.13 241.08   L 66.56 232.82   A 1.75 1.74 57.5 0 1 68.78 233.32   Q 81.11 249.77 97.82 262.20   Q 98.25 262.53 97.98 263.00   L 89.41 277.85   Q 88.28 279.80 90.23 280.93   L 103.59 288.64   A 0.50 0.50 0.0 0 0 104.27 288.46   L 113.67 272.17   Q 113.97 271.66 114.51 271.88   Q 134.19 279.78 155.46 282.74   Q 156.11 282.83 156.09 283.49   L 155.65 301.68   A 0.64 0.63 -84.8 0 0 156.18 302.32   Q 164.72 303.73 173.54 302.26   Q 173.85 302.21 173.86 301.89   L 174.31 283.10   Q 174.31 282.80 174.61 282.76   Q 195.15 279.74 214.92 272.02   A 1.21 1.21 0.0 0 1 216.41 272.54   L 225.72 288.66   A 0.30 0.29 59.5 0 0 226.12 288.77   L 240.41 280.52   A 0.82 0.82 0.0 0 0 240.79 279.58   Q 240.21 277.44 238.89 275.10   Q 235.05 268.25 231.99 262.96   Q 231.71 262.49 232.16 262.16   Q 249.20 249.37 262.12 232.15   A 0.48 0.47 32.9 0 1 262.74 232.02   L 278.77 241.28   Q 279.69 241.81 280.24 240.85   L 288.62 226.35   A 0.39 0.39 0.0 0 0 288.48 225.82   L 272.02 216.32   Q 271.40 215.96 271.67 215.29   Q 277.28 201.74 280.36 187.42   Q 281.70 181.21 281.78 178.75   C 281.87 176.02 282.28 174.46 285.26 174.39   Q 293.16 174.18 301.52 174.30   Q 302.03 174.31 302.10 173.81   Q 303.41 165.02 302.09 156.42   Q 302.02 155.98 301.58 155.98   Q 293.95 156.10 285.26 155.86   Q 282.05 155.77 281.91 153.29   Q 281.56 147.13 280.50 142.90   Q 275.90 124.64 271.61 114.85   A 0.66 0.65 -27.5 0 1 271.88 114.02   L 288.50 104.43   A 0.36 0.36 0.0 0 0 288.63 103.94   L 280.23 89.38   A 0.88 0.87 60.5 0 0 279.06 89.05   L 263.27 97.49   A 1.58 1.58 0.0 0 1 261.25 97.05   Q 248.83 80.47 232.31 68.21   A 0.74 0.73 33.3 0 1 232.11 67.26   Q 235.90 60.60 238.99 54.97   Q 240.33 52.52 240.78 50.67   A 0.87 0.86 -68.5 0 0 240.37 49.72   L 226.40 41.65   Q 225.86 41.34 225.54 41.88   L 216.30 57.88   A 1.06 1.05 25.4 0 1 215.00 58.34   Q 194.94 50.46 174.46 47.49   Q 173.86 47.40 173.87 46.79   L 174.30 29.06   Q 174.32 28.08 173.34 27.94   Q 164.30 26.72 156.40 28.01   Q 156.10 28.05 156.10 28.35   L 155.64 47.21   Q 155.64 47.56 155.29 47.61   Z"></path>
  <path fill="#000000" d="   M 170.82 58.63   Q 170.77 59.40 169.15 59.98   Q 168.17 60.34 167.48 59.56   Q 167.06 59.09 167.11 58.38   Q 167.16 57.67 167.64 57.26   Q 168.43 56.58 169.35 57.07   Q 170.88 57.87 170.82 58.63   Z"></path>
  <ellipse fill="#000000" cx="0.00" cy="0.00" transform="translate(146.97,58.86) rotate(-6.3)" rx="3.06" ry="1.24"></ellipse>
  <path fill="#000000" d="   M 141.78 70.93   Q 142.26 71.32 143.84 71.91   C 146.20 72.78 146.64 75.16 145.53 77.32   C 143.58 81.12 139.62 83.38 135.66 84.47   C 131.60 85.59 128.49 81.98 128.29 78.07   Q 128.06 73.72 128.58 72.26   Q 129.86 68.74 130.35 72.46   Q 130.53 73.76 130.72 77.31   Q 130.83 79.25 133.61 79.46   Q 137.79 79.77 141.41 76.72   A 0.71 0.70 -57.5 0 0 141.14 75.50   L 139.16 74.96   Q 138.60 74.81 138.28 74.33   Q 137.03 72.43 138.16 70.12   Q 140.12 66.09 144.91 65.16   C 147.10 64.73 148.47 66.06 149.87 67.74   Q 150.94 69.04 151.59 69.34   Q 153.26 70.10 155.62 69.44   A 0.89 0.89 0.0 0 0 156.01 67.95   L 154.49 66.43   A 0.68 0.67 -46.6 0 1 154.47 65.50   Q 157.16 62.49 161.44 63.85   A 1.84 1.84 0.0 0 1 162.48 66.52   L 162.13 67.12   A 1.22 1.22 0.0 0 0 163.47 68.92   Q 167.40 67.98 170.48 69.68   Q 170.98 69.96 171.49 69.69   L 173.62 68.55   Q 174.19 68.24 174.68 68.66   Q 175.86 69.67 176.95 70.09   Q 177.42 70.27 177.84 69.99   C 181.75 67.45 184.81 65.52 189.04 66.93   C 192.84 68.20 192.92 72.88 190.58 75.56   Q 189.41 76.90 186.96 77.01   Q 183.49 77.15 182.85 77.00   Q 169.52 73.76 157.26 73.33   Q 156.47 73.30 151.99 74.45   C 149.33 75.13 147.28 70.55 145.92 69.73   Q 143.28 68.14 141.70 70.13   Q 141.35 70.58 141.78 70.93   Z   M 186.23 70.62   A 0.37 0.37 0.0 0 0 186.00 70.58   L 181.83 71.16   A 0.37 0.37 0.0 0 0 181.79 71.88   L 185.92 73.02   A 0.37 0.37 0.0 0 0 186.14 73.01   L 188.08 72.30   A 0.37 0.37 0.0 0 0 188.13 71.63   L 186.23 70.62   Z"></path>
  <path fill="#000000" d="   M 217.32 81.48   L 218.70 89.07   A 3.25 3.25 0.0 0 0 220.22 91.28   C 222.19 92.48 223.43 92.95 224.90 94.58   Q 225.61 95.38 227.01 96.07   C 228.17 96.63 228.42 97.13 228.90 98.30   Q 229.08 98.75 229.52 98.96   Q 231.13 99.70 231.42 100.08   Q 233.23 102.52 234.73 104.46   Q 236.30 106.49 236.40 103.96   Q 236.42 103.59 237.19 101.33   Q 237.80 99.51 239.69 100.07   L 240.04 100.18   A 2.21 1.71 -71.8 0 1 241.00 102.87   C 239.91 105.94 236.57 110.10 232.98 109.13   Q 231.51 108.74 230.01 106.73   Q 226.43 101.96 223.46 98.82   Q 221.05 96.27 219.68 95.55   Q 217.34 94.33 215.84 93.12   Q 214.32 91.89 213.10 91.18   Q 212.30 90.72 210.23 90.26   Q 207.48 89.66 205.76 87.24   C 204.82 85.91 204.82 84.67 205.43 83.09   Q 208.49 75.02 213.87 68.45   A 1.60 0.93 27.7 0 1 215.48 68.38   L 215.72 68.49   A 0.66 0.44 -63.1 0 1 215.82 69.32   Q 214.87 71.07 211.68 76.76   Q 209.64 80.38 209.60 82.10   Q 209.51 85.62 213.70 87.26   A 0.46 0.46 0.0 0 0 214.31 86.71   L 212.34 79.50   A 1.78 1.77 71.4 0 1 213.38 77.39   Q 214.54 76.91 216.61 77.12   Q 226.95 78.14 230.22 78.61   Q 231.93 78.86 230.62 79.98   Q 229.63 80.83 227.50 80.79   Q 220.59 80.66 218.00 80.66   A 0.70 0.69 -5.6 0 0 217.32 81.48   Z"></path>
  <path fill="#000000" d="   M 111.64 76.34   Q 111.55 76.67 111.52 77.05   Q 111.48 77.53 111.29 77.83   Q 110.74 78.70 109.70 78.45   Q 109.19 78.33 109.09 77.82   Q 108.54 74.86 108.83 72.78   A 1.60 1.59 18.1 0 1 111.16 71.60   L 114.00 73.12   A 0.40 0.40 0.0 0 1 114.18 73.30   Q 114.63 74.22 114.65 75.39   Q 114.66 75.91 114.15 75.90   L 112.28 75.85   Q 111.76 75.84 111.64 76.34   Z"></path>
  <path fill="#000000" d="   M 195.8880 84.3691   A 5.98 3.88 117.4 0 1 195.1953 77.2744   A 5.98 3.88 117.4 0 1 201.3920 73.7509   A 5.98 3.88 117.4 0 1 202.0847 80.8456   A 5.98 3.88 117.4 0 1 195.8880 84.3691   Z   M 199.6800 79.8470   A 1.20 0.51 44.9 0 0 199.1900 78.6387   A 1.20 0.51 44.9 0 0 197.9800 78.1530   A 1.20 0.51 44.9 0 0 198.4700 79.3613   A 1.20 0.51 44.9 0 0 199.6800 79.8470   Z"></path>
  <ellipse fill="#000000" cx="0.00" cy="0.00" transform="translate(224.46,75.85) rotate(7.4)" rx="3.51" ry="0.61"></ellipse>
  <path fill="#000000" d="   M 121.60 79.95   Q 122.34 79.97 122.01 79.31   Q 120.61 76.52 121.26 75.88   A 1.80 1.79 49.9 0 1 123.99 76.12   Q 126.33 79.41 125.42 81.40   Q 124.87 82.60 121.74 84.10   Q 118.07 85.86 113.59 89.86   Q 111.96 91.32 111.83 91.52   C 110.90 92.91 111.34 95.41 111.46 97.55   C 111.65 100.83 109.68 103.52 106.99 104.95   Q 105.63 105.66 104.10 105.20   A 0.48 0.47 25.5 0 1 103.84 104.48   Q 106.50 100.43 108.44 97.20   Q 109.66 95.17 108.51 93.67   C 107.84 92.80 106.23 92.21 105.10 91.62   C 103.68 90.87 103.34 89.39 104.36 88.19   A 1.00 0.90 15.3 0 1 105.04 87.85   L 109.89 87.44   A 1.90 1.83 5.3 0 0 111.54 86.12   Q 111.95 84.70 112.96 83.44   Q 113.28 83.02 113.81 83.04   L 116.18 83.09   Q 116.81 83.11 116.98 82.50   L 117.52 80.48   Q 117.69 79.86 118.34 79.87   L 121.60 79.95   Z"></path>
  <path fill="#000000" d="   M 165.37 81.79   C 167.99 81.75 172.88 83.82 174.48 86.85   A 1.43 1.42 -35.6 0 1 174.19 88.56   Q 170.41 92.08 166.76 94.53   Q 166.26 94.87 165.56 94.89   Q 164.85 94.89 164.34 94.57   Q 160.62 92.22 156.74 88.81   A 1.43 1.42 34.0 0 1 156.40 87.11   C 157.91 84.04 162.74 81.83 165.37 81.79   Z"></path>
  <path fill="#000000" d="   M 230.54 90.72   Q 229.39 90.73 228.78 90.35   A 0.97 0.97 0.0 0 1 229.04 88.60   L 233.22 87.46   A 1.11 1.11 0.0 0 1 234.62 88.46   Q 234.77 91.17 233.44 93.38   Q 233.04 94.05 232.58 94.13   Q 232.07 94.21 231.68 93.72   Q 231.42 93.40 231.39 92.82   Q 231.34 91.52 231.24 91.25   Q 231.04 90.71 230.54 90.72   Z"></path>
  <path fill="#000000" d="   M 165.85 98.83   Q 166.25 98.67 166.84 98.09   Q 170.13 94.83 173.58 91.52   Q 176.11 89.09 179.62 88.93   Q 181.83 88.83 182.14 88.85   Q 185.49 89.10 183.45 91.69   C 181.14 94.60 176.45 98.43 174.21 101.46   Q 170.02 107.12 168.73 110.99   Q 167.46 114.80 166.16 118.78   Q 165.63 120.38 165.01 118.81   Q 164.76 118.16 161.08 108.93   Q 159.51 104.97 155.07 100.22   Q 149.21 93.97 147.10 91.45   A 1.54 1.54 0.0 0 1 147.99 88.95   Q 152.01 88.17 155.39 90.95   Q 158.10 93.18 164.55 98.65   A 1.35 1.20 -33.7 0 0 165.85 98.83   Z"></path>
  <path fill="#000000" d="   M 97.22 94.83   Q 95.15 93.85 93.85 92.60   A 1.21 1.20 -31.5 0 1 94.34 90.58   C 99.03 89.16 102.15 94.00 101.00 98.10   Q 100.61 99.52 98.41 102.03   Q 93.24 107.95 85.92 119.40   Q 84.33 121.88 81.11 124.05   C 77.63 126.40 74.63 124.36 73.00 121.30   A 0.50 0.50 0.0 0 1 73.45 120.57   Q 78.01 120.67 81.15 117.14   Q 84.34 113.54 87.97 107.72   C 88.99 106.09 89.15 105.14 88.27 103.39   C 87.16 101.20 85.86 95.43 90.21 96.14   Q 90.93 96.26 91.47 97.04   Q 91.92 97.69 92.39 98.18   A 2.22 2.22 0.0 0 0 94.93 98.68   Q 97.19 97.66 97.63 95.65   A 0.74 0.74 0.0 0 0 97.22 94.83   Z   M 91.65 101.47   A 0.70 0.70 0.0 0 0 90.95 100.77   A 0.70 0.70 0.0 0 0 90.25 101.47   A 0.70 0.70 0.0 0 0 90.95 102.17   A 0.70 0.70 0.0 0 0 91.65 101.47   Z"></path>
  <path fill="#000000" d="   M 147.60 117.65   Q 146.16 112.71 143.98 108.41   Q 143.57 107.59 136.42 93.77   Q 135.50 91.98 137.50 92.12   C 139.25 92.25 141.49 93.98 142.95 94.91   Q 151.23 100.21 155.72 109.03   Q 159.71 116.85 160.92 121.56   Q 161.99 125.69 162.05 133.00   Q 162.33 165.69 162.08 209.75   Q 162.06 214.00 161.52 218.02   Q 161.45 218.53 161.07 218.89   C 158.80 221.00 155.06 219.79 152.70 218.26   Q 152.30 218.00 152.31 217.52   Q 152.54 197.65 152.62 161.00   C 152.66 144.90 151.74 131.87 147.60 117.65   Z"></path>
  <path fill="#000000" d="   M 179.23 135.38   A 3.09 2.99 52.1 0 0 179.16 136.03   Q 179.20 171.88 178.59 212.06   Q 178.54 214.97 178.19 217.64   Q 177.98 219.17 176.40 219.66   Q 174.45 220.26 171.67 219.86   C 168.74 219.44 169.06 217.30 169.01 214.75   Q 168.43 186.31 169.48 130.85   Q 169.71 118.48 174.71 109.17   Q 178.28 102.50 184.86 97.07   Q 189.34 93.37 193.12 92.12   Q 194.20 91.77 194.23 92.90   Q 194.26 93.99 193.63 95.38   C 190.74 101.80 187.38 107.72 185.26 113.58   Q 181.79 123.17 179.23 135.38   Z"></path>
  <ellipse fill="#000000" cx="0.00" cy="0.00" transform="translate(244.38,95.98) rotate(43.9)" rx="1.64" ry="1.40"></ellipse>
  <ellipse fill="#000000" cx="0.00" cy="0.00" transform="translate(79.22,104.19) rotate(93.0)" rx="1.97" ry="1.49"></ellipse>
  <ellipse fill="#000000" cx="0.00" cy="0.00" transform="translate(243.57,109.31) rotate(133.4)" rx="8.81" ry="1.65"></ellipse>
  <path fill="#000000" d="   M 98.53 111.70   L 96.47 115.26   A 0.77 0.77 0.0 0 1 95.37 115.52   Q 94.69 115.08 94.40 114.57   A 0.65 0.63 57.3 0 1 94.57 113.74   Q 95.79 112.83 97.12 110.22   Q 97.33 109.80 97.80 109.83   Q 98.54 109.88 98.69 110.72   Q 98.79 111.24 98.53 111.70   Z"></path>
  <path fill="#000000" d="   M 248.24 120.55   Q 248.44 118.35 248.00 115.06   Q 247.73 113.03 248.82 112.31   A 2.03 2.00 62.4 0 1 251.78 113.27   Q 253.42 117.29 251.78 121.26   C 250.60 124.14 246.56 125.70 243.53 124.12   Q 240.78 122.69 239.78 119.80   A 2.50 2.50 0.0 0 1 240.01 117.65   Q 241.09 115.90 242.75 117.01   Q 243.36 117.42 247.28 120.93   A 0.58 0.58 0.0 0 0 248.24 120.55   Z"></path>
  <path fill="#000000" d="   M 198.49 146.74   Q 198.33 146.76 198.09 146.79   A 2.18 2.18 0.0 0 0 196.17 148.80   Q 195.33 161.02 195.13 182.55   Q 195.12 183.04 194.86 183.45   Q 191.21 189.12 186.48 193.86   A 0.77 0.77 0.0 0 1 185.17 193.33   Q 184.80 168.42 185.11 144.26   Q 185.17 139.82 186.04 135.43   C 187.74 126.78 193.79 120.47 201.37 116.07   Q 204.25 114.40 207.35 114.07   C 210.74 113.70 220.91 112.90 222.00 116.20   A 1.04 1.04 0.0 0 1 221.88 117.12   C 220.42 119.28 219.44 120.57 219.17 122.77   Q 218.81 125.80 218.72 130.00   Q 218.17 156.35 217.56 167.46   A 2.44 2.42 -12.7 0 1 216.27 169.48   L 204.80 175.62   A 1.26 1.26 0.0 0 1 203.11 175.12   Q 202.29 173.65 202.22 171.77   Q 201.64 156.64 201.09 148.84   A 2.28 2.28 0.0 0 0 198.49 146.74   Z"></path>
  <path fill="#000000" d="   M 134.19 147.03   C 132.48 146.12 130.43 146.86 129.84 148.87   Q 129.13 151.30 129.17 153.26   Q 129.39 164.03 129.48 169.75   Q 129.54 173.25 128.70 175.94   A 1.18 1.18 0.0 0 1 127.02 176.63   L 113.95 169.64   Q 113.53 169.42 113.53 168.94   Q 113.64 142.39 113.37 127.25   Q 113.35 126.32 113.01 124.28   C 112.57 121.67 111.12 119.47 110.23 117.12   A 1.98 1.97 69.7 0 1 111.39 114.58   C 113.16 113.93 115.12 114.08 116.78 114.05   C 129.84 113.87 141.19 121.43 144.62 134.13   Q 145.81 138.55 146.09 153.28   Q 146.53 176.56 146.15 189.53   Q 146.07 192.15 145.45 194.24   A 0.83 0.83 0.0 0 1 143.95 194.46   Q 140.86 189.72 138.81 187.70   Q 136.62 185.55 136.18 183.56   Q 135.51 180.53 135.49 178.50   Q 135.21 154.74 135.15 151.19   Q 135.11 149.44 134.78 147.83   Q 134.67 147.29 134.19 147.03   Z"></path>
  <path fill="#000000" d="   M 234.69 131.56   L 233.91 163.98   Q 233.82 167.85 229.94 167.76   L 227.91 167.71   Q 224.31 167.62 224.15 164.03   Q 223.54 150.83 224.62 138.44   Q 224.82 136.19 226.67 133.65   Q 229.51 129.73 234.47 131.26   A 0.31 0.30 10.0 0 1 234.69 131.56   Z"></path>
  <path fill="#000000" d="   M 107.26 145.76   Q 107.49 157.29 106.56 165.61   Q 106.18 169.00 102.87 168.67   L 100.38 168.42   Q 96.87 168.06 96.79 164.66   Q 96.49 151.09 96.96 133.25   Q 96.97 132.71 97.50 132.61   C 104.75 131.23 107.14 140.23 107.26 145.76   Z"></path>
  <path fill="#000000" d="   M 223.86 186.43   Q 222.64 184.99 220.83 185.59   C 211.37 188.70 202.16 199.87 198.29 208.03   Q 195.56 213.76 194.37 216.17   Q 192.23 220.52 186.53 219.37   Q 184.96 219.05 184.62 218.65   C 183.23 216.99 184.49 212.42 185.28 210.56   Q 191.59 195.71 202.11 185.36   Q 205.54 181.98 211.93 178.45   Q 229.15 168.93 246.13 177.90   Q 251.09 180.52 256.84 184.98   Q 258.88 186.56 259.36 188.13   A 1.58 1.57 76.1 0 1 258.15 190.15   Q 257.32 190.31 256.88 190.28   Q 245.96 189.46 236.22 194.42   Q 225.56 199.84 219.10 207.87   Q 217.77 209.53 213.64 215.66   Q 209.92 221.20 202.69 219.49   Q 201.03 219.10 201.06 217.39   Q 201.10 216.05 201.78 214.54   Q 203.61 210.50 207.19 206.17   Q 213.14 198.97 220.77 191.53   Q 222.98 189.37 223.98 187.32   Q 224.21 186.84 223.86 186.43   Z"></path>
  <path fill="#000000" d="   M 107.26 188.08   Q 107.12 189.83 108.82 191.23   C 111.64 193.56 116.10 195.97 118.59 198.49   Q 125.63 205.63 130.00 215.35   Q 131.14 217.88 129.82 219.15   Q 129.14 219.81 126.76 219.99   C 123.82 220.20 120.15 220.32 118.51 217.57   C 110.68 204.38 96.91 192.84 81.37 191.71   Q 74.36 191.20 72.30 190.91   A 0.94 0.94 0.0 0 1 71.65 189.46   C 76.57 182.10 86.02 177.35 94.55 175.04   Q 102.91 172.77 110.39 175.35   C 128.34 181.53 141.93 197.48 147.61 215.43   Q 148.13 217.08 147.59 218.69   A 1.34 1.30 86.0 0 1 146.98 219.41   Q 146.19 219.82 144.01 220.07   Q 138.97 220.63 137.28 216.57   Q 129.75 198.54 115.09 188.12   Q 112.75 186.45 109.34 186.26   A 1.98 1.97 -86.1 0 0 107.26 188.08   Z"></path>
  <path fill="#000000" d="   M 236.17 215.43   Q 231.68 219.55 225.86 227.61   Q 224.56 229.40 222.77 228.11   Q 220.35 226.37 218.09 224.06   Q 217.25 223.21 217.09 222.75   C 215.85 219.20 227.43 208.67 230.36 206.06   Q 236.30 200.76 243.06 198.28   Q 251.18 195.30 257.82 194.84   C 260.38 194.67 263.69 194.63 265.83 196.96   Q 268.93 200.32 270.31 204.01   A 0.90 0.90 0.0 0 1 269.50 205.23   Q 261.53 205.56 256.99 205.97   Q 245.30 207.04 236.17 215.43   Z"></path>
  <path fill="#000000" d="   M 106.67 230.04   C 104.78 227.59 103.35 224.57 101.17 221.96   Q 91.78 210.72 77.65 207.53   C 73.09 206.50 68.74 206.84 63.01 206.89   A 1.41 1.40 7.7 0 1 61.64 205.10   Q 63.18 199.79 67.90 196.87   Q 69.06 196.15 72.54 196.46   Q 75.79 196.76 77.07 196.82   Q 89.55 197.40 99.50 205.38   C 103.71 208.77 109.06 213.92 112.99 218.80   Q 115.64 222.07 113.00 225.23   Q 110.87 227.76 107.80 230.18   A 0.81 0.80 51.8 0 1 106.67 230.04   Z"></path>
  <ellipse fill="#000000" cx="0.00" cy="0.00" transform="translate(165.74,233.15) rotate(87.9)" rx="8.81" ry="8.39"></ellipse>
  <path fill="#000000" d="   M 209.56 242.07   A 0.62 0.62 0.0 0 0 209.90 241.03   Q 207.67 238.67 204.74 237.44   Q 202.82 236.63 198.71 236.49   Q 194.17 236.34 184.52 236.33   Q 181.35 236.32 179.33 235.91   A 2.96 2.96 0.0 0 1 177.01 233.51   Q 176.50 230.48 177.45 226.09   Q 177.56 225.59 178.07 225.59   Q 190.94 225.60 202.49 226.28   C 210.02 226.73 214.47 229.77 219.60 235.37   C 225.50 241.82 228.82 250.34 227.32 259.12   Q 227.23 259.62 226.84 259.94   Q 225.60 260.94 224.16 261.16   Q 220.19 261.78 213.75 261.80   Q 197.73 261.85 185.00 261.41   Q 180.69 261.26 177.92 260.69   A 1.28 1.27 -87.8 0 1 176.91 259.59   Q 176.05 251.98 176.74 245.34   C 177.02 242.74 181.06 242.25 183.50 242.28   Q 204.54 242.53 207.04 242.41   Q 207.92 242.37 209.56 242.07   Z"></path>
  <path fill="#000000" d="   M 121.91 241.64   A 1.15 1.14 -88.1 0 0 122.95 242.76   Q 126.16 243.07 129.09 243.05   Q 143.91 242.97 152.88 243.52   A 1.81 1.80 88.3 0 1 154.56 245.11   Q 155.50 252.89 154.63 259.62   A 1.69 1.69 0.0 0 1 153.19 261.07   Q 149.75 261.57 145.13 261.63   Q 127.07 261.89 108.36 261.44   Q 104.89 261.36 103.61 259.58   Q 103.31 259.16 103.24 258.64   Q 102.99 256.75 103.95 252.70   Q 105.61 245.68 107.05 242.79   C 112.28 232.23 121.91 227.02 133.49 226.15   Q 143.41 225.40 150.83 225.92   Q 152.67 226.05 154.18 227.15   A 1.34 1.32 -79.7 0 1 154.69 227.90   Q 155.66 231.72 154.46 235.01   A 1.17 1.15 89.6 0 1 153.79 235.70   Q 151.53 236.62 149.19 236.64   Q 139.59 236.71 131.50 236.94   Q 126.86 237.07 123.02 239.76   Q 121.89 240.56 121.91 241.64   Z"></path>
  <path fill="#000000" d="   M 173.08 270.30   C 171.11 270.87 168.36 274.14 166.43 275.86   A 1.34 1.34 0.0 0 1 164.42 275.61   Q 161.09 270.69 155.26 269.17   A 1.53 1.53 0.0 0 1 154.31 266.95   Q 158.80 258.90 164.91 251.72   Q 165.74 250.75 166.61 251.68   Q 173.17 258.68 178.55 267.15   A 1.20 1.20 0.0 0 1 177.86 268.95   Q 174.78 269.81 173.08 270.30   Z"></path>
</svg>
