<?xml version="1.0" encoding="UTF-8" standalone="no"?>
<svg xmlns="http://www.w3.org/2000/svg" version="1.1" viewBox="0.00 0.00 1910.00 1646.00">
  <g stroke-width="2.00" fill="none" stroke-linecap="butt">
    <path stroke="#dd5d6f" vector-effect="non-scaling-stroke" d="   M 1187.30 647.14   Q 1185.92 646.37 1184.00 649.01   Q 1183.88 649.17 1183.74 649.23   Q 1183.48 649.35 1183.38 649.21   A 0.98 0.86 -44.0 0 1 1183.47 648.11   Q 1190.51 639.37 1200.81 627.76   Q 1202.40 625.97 1203.84 624.48   Q 1205.10 623.18 1206.77 621.15   Q 1236.05 585.56 1247.18 541.18   Q 1249.50 531.91 1251.13 521.59   Q 1255.33 495.07 1255.33 468.27   C 1255.33 463.49 1254.94 458.58 1254.85 453.60   Q 1254.83 452.39 1254.56 450.81   C 1253.90 446.90 1254.35 443.12 1253.44 439.26   C 1252.43 435.00 1252.21 431.02 1251.21 426.34   Q 1240.91 378.21 1216.99 335.65   Q 1211.72 326.27 1202.96 313.16   Q 1189.26 292.68 1178.35 279.53   Q 1176.97 277.86 1175.61 275.87   C 1174.44 274.16 1172.44 272.29 1171.06 270.17   Q 1170.15 268.76 1169.40 267.88   Q 1158.41 254.80 1151.45 246.93   Q 1150.05 245.35 1149.73 244.96   Q 1143.02 236.85 1134.24 227.11   C 1133.72 226.53 1133.49 225.72 1133.09 225.40   C 1130.89 223.63 1129.96 221.19 1128.51 219.53   Q 1111.96 200.64 1105.46 193.05   Q 1104.13 191.49 1100.37 187.63   Q 1098.93 186.15 1092.38 177.81   Q 1090.51 175.42 1086.23 170.09   Q 1082.13 164.99 1080.24 162.08   C 1078.95 160.10 1077.03 158.30 1075.54 156.25   Q 1071.35 150.44 1067.20 144.65   Q 1056.96 130.32 1044.20 108.59   Q 1033.61 90.56 1025.44 71.60   Q 1017.96 54.27 1013.82 36.93   Q 1012.88 33.03 1011.84 25.86   Q 1010.75 18.35 1009.80 14.83   C 1008.16 8.73 1004.31 3.87 997.65 5.67   C 994.43 6.54 990.58 9.89 988.67 12.66   Q 977.65 28.66 969.40 48.83   Q 965.48 58.40 964.55 61.00   Q 962.15 67.74 956.14 86.88   Q 947.78 113.51 940.99 151.96   Q 940.08 157.09 940.03 159.19   Q 939.94 162.57 939.19 166.39   Q 938.10 171.94 937.79 177.20   Q 934.64 232.10 943.29 286.26   Q 944.12 291.46 944.47 292.57   A 1.31 1.21 16.2 0 0 944.79 293.10   Q 945.27 293.58 945.14 294.18   Q 944.92 295.27 944.94 295.38   Q 945.06 295.95 945.55 296.31   Q 945.94 296.60 945.97 297.07   C 946.17 300.71 946.17 302.62 947.17 306.09   Q 947.88 308.58 948.00 311.19   Q 948.13 314.02 948.59 316.28   Q 952.09 333.60 957.83 352.38   Q 958.64 355.06 959.06 355.61   Q 959.39 356.05 959.41 356.51   Q 959.45 357.14 959.90 358.56   Q 964.46 373.06 970.63 387.98   Q 970.89 388.61 970.92 389.15   Q 970.96 389.92 971.48 390.34   A 1.30 1.27 -80.2 0 1 971.90 390.95   L 973.22 395.20   A 0.43 0.42 -84.6 0 1 972.62 395.70   Q 970.95 394.82 970.01 393.62   Q 968.82 392.10 967.97 391.57   Q 965.84 390.26 964.55 389.31   Q 959.76 385.78 953.80 380.52   Q 950.70 377.79 941.40 367.05   Q 934.57 359.16 930.22 352.75   Q 913.16 327.61 906.30 297.98   Q 901.13 275.67 899.52 253.67   C 899.04 247.03 899.31 240.74 898.87 234.98   C 898.15 225.63 898.49 217.70 898.63 205.53   C 898.67 201.65 899.56 198.67 899.68 194.98   Q 900.26 175.94 900.75 171.25   Q 902.31 155.98 903.69 149.99   Q 907.47 133.52 909.91 120.25   Q 910.67 116.11 908.47 112.58   C 907.89 111.65 907.39 111.90 906.75 111.43   Q 906.23 111.05 905.24 110.88   Q 897.70 109.63 891.63 112.76   Q 890.93 113.12 888.84 114.20   Q 887.30 114.99 886.26 115.99   Q 871.59 130.22 862.31 141.31   Q 855.68 149.24 847.16 160.14   Q 844.54 163.50 838.76 172.79   Q 837.86 174.25 834.10 178.86   Q 831.88 181.59 829.05 186.93   Q 826.00 192.67 824.45 195.25   Q 814.42 211.94 805.57 232.25   Q 797.33 251.13 792.57 270.51   Q 788.13 288.56 786.11 309.80   C 784.77 323.90 785.07 341.15 786.47 353.85   Q 788.78 374.81 789.91 381.26   Q 793.61 402.24 800.01 425.40   Q 800.31 426.47 800.36 426.88   C 800.54 428.49 801.46 430.19 801.84 431.77   Q 802.54 434.69 802.71 435.28   Q 804.78 442.16 810.50 460.98   Q 811.09 462.92 809.51 461.64   Q 806.33 459.08 802.95 455.53   Q 801.47 453.97 792.81 443.69   C 791.65 442.30 790.84 440.59 789.63 439.05   C 786.23 434.71 783.33 430.23 779.62 424.61   Q 777.35 421.16 772.27 410.85   Q 767.88 401.94 765.85 396.48   Q 760.24 381.38 756.88 365.02   C 756.11 361.25 756.13 357.87 755.50 354.58   Q 754.84 351.15 754.54 346.76   Q 753.92 337.66 752.60 316.28   Q 752.10 308.27 748.93 302.07   Q 745.29 294.94 737.55 295.16   Q 733.35 295.28 728.60 298.84   Q 723.71 302.52 721.22 305.46   Q 716.17 311.43 712.28 318.18   Q 710.64 321.03 705.10 331.93   Q 682.80 375.75 669.80 420.48   Q 658.59 459.04 656.04 499.53   Q 655.48 508.31 655.93 516.76   Q 657.11 539.24 660.89 558.53   Q 661.88 563.57 663.61 567.60   Q 664.10 568.73 664.22 570.09   Q 664.26 570.59 664.89 572.63   Q 667.26 580.22 669.07 584.91   Q 670.51 588.60 677.03 601.34   Q 679.36 605.88 683.19 611.70   Q 687.28 617.89 689.94 621.55   Q 701.02 636.78 716.42 648.68"></path>
    <path stroke="#6e6eb5" vector-effect="non-scaling-stroke" d="   M 708.28 687.00   Q 698.29 687.82 691.79 688.92   C 676.86 691.46 665.08 703.98 662.47 718.82   Q 661.52 724.24 660.56 734.01"></path>
    <path stroke="#6e6eb5" vector-effect="non-scaling-stroke" d="   M 712.80 787.59   C 707.95 787.05 702.33 787.28 699.66 787.30   Q 695.58 787.34 692.01 786.26   Q 684.54 784.00 682.30 782.78   Q 665.45 773.59 662.36 754.93   Q 661.12 747.43 660.47 736.96"></path>
    <path stroke="#6e6eb5" vector-effect="non-scaling-stroke" d="   M 1193.70 788.31   Q 1207.10 788.20 1220.18 785.40   Q 1230.34 783.23 1237.94 775.42   C 1245.12 768.04 1248.32 757.07 1249.00 747.01   Q 1249.80 734.97 1248.51 723.67   Q 1247.29 712.94 1243.33 706.40   C 1238.25 698.02 1229.55 691.30 1219.86 688.87   Q 1216.99 688.15 1210.58 688.23   Q 1201.61 688.32 1192.71 687.57"></path>
    <path stroke="#6e6eb5" vector-effect="non-scaling-stroke" d="   M 798.29 826.80   C 793.78 827.85 788.80 828.57 784.83 829.86   C 774.29 833.30 764.21 840.08 759.92 850.64   C 752.04 870.01 761.50 889.64 774.50 904.08   Q 782.67 913.16 792.54 920.30   Q 802.07 927.19 804.30 929.00   Q 814.71 937.45 822.51 944.03   Q 826.34 947.26 829.49 950.17   C 835.21 955.47 841.37 960.55 846.53 965.52   Q 859.16 977.69 871.43 992.03   Q 872.57 993.36 873.62 994.80   Q 874.64 996.18 875.63 997.28   Q 878.15 1000.07 878.84 1000.96   Q 895.29 1022.36 905.55 1042.41   Q 912.77 1056.51 917.05 1066.97   Q 923.95 1083.87 930.16 1104.15   Q 932.08 1110.45 939.79 1140.10   Q 943.73 1155.22 944.81 1160.20   Q 945.23 1162.09 946.63 1166.57   Q 948.57 1172.79 954.66 1174.17   C 959.22 1175.21 962.90 1170.29 963.87 1166.47   Q 966.13 1157.54 977.64 1112.89   C 980.89 1100.27 985.75 1086.18 989.39 1076.42   Q 1011.46 1017.36 1056.34 973.08   C 1074.22 955.43 1092.73 938.46 1113.23 923.52   Q 1124.81 915.08 1128.06 912.10   Q 1134.75 905.98 1140.63 898.15   C 1147.60 888.89 1153.41 877.11 1153.57 865.46   C 1153.80 849.37 1144.50 837.41 1129.97 831.58   Q 1121.44 828.16 1114.73 827.56   Q 1109.24 827.07 1093.04 826.99"></path>
    <path stroke="#adabd7" vector-effect="non-scaling-stroke" d="   M 1708.26 1636.55   Q 1713.12 1635.17 1718.83 1635.18   A 0.63 0.63 0.0 0 0 1719.32 1634.14   Q 1719.18 1633.98 1718.19 1633.84"></path>
    <path stroke="#6e6eb5" vector-effect="non-scaling-stroke" d="   M 1718.19 1633.84   C 1753.05 1628.90 1785.11 1617.84 1814.13 1599.13   C 1863.64 1567.20 1893.88 1514.33 1902.26 1456.52   Q 1904.13 1443.58 1905.06 1428.53   Q 1905.66 1418.77 1904.97 1411.01   C 1903.79 1397.89 1902.37 1385.02 1899.87 1373.27   Q 1891.79 1335.29 1872.04 1301.91   C 1868.18 1295.38 1863.51 1289.19 1858.83 1283.14   C 1840.70 1259.70 1814.91 1244.29 1786.01 1237.22   Q 1770.36 1233.40 1749.88 1231.96   Q 1746.20 1231.70 1740.14 1232.07   Q 1735.03 1232.39 1730.38 1231.87   Q 1726.54 1231.44 1723.17 1232.02   Q 1702.44 1235.57 1686.15 1241.64   Q 1664.05 1249.89 1644.98 1263.96   C 1624.05 1279.40 1608.28 1300.22 1599.10 1324.60   Q 1595.23 1334.88 1593.65 1343.82   Q 1588.57 1372.54 1598.75 1399.79   Q 1603.44 1412.34 1609.68 1423.44   Q 1618.95 1439.93 1634.66 1450.32   Q 1652.43 1462.07 1675.61 1465.37   C 1691.27 1467.59 1709.44 1466.91 1724.68 1461.43   Q 1736.23 1457.28 1748.21 1446.70   Q 1751.98 1443.37 1756.78 1441.50   Q 1763.89 1438.73 1767.37 1444.44   C 1769.62 1448.14 1768.25 1454.05 1767.12 1458.25   Q 1767.06 1458.47 1766.70 1458.78   Q 1766.33 1459.10 1766.12 1459.54   Q 1762.89 1466.35 1761.58 1468.08   C 1741.32 1494.75 1710.63 1506.87 1677.61 1504.75   Q 1633.55 1501.92 1599.15 1475.03   C 1579.01 1459.29 1564.75 1437.01 1558.03 1412.37   Q 1549.58 1381.40 1551.23 1351.28   C 1553.03 1318.70 1564.57 1288.34 1584.07 1261.83   Q 1605.59 1232.57 1640.02 1221.30   C 1646.82 1219.08 1655.32 1218.99 1662.57 1217.86   Q 1666.13 1217.31 1667.64 1216.51   C 1672.09 1214.16 1671.86 1210.17 1671.15 1205.22   C 1662.51 1145.53 1645.31 1088.95 1616.14 1037.35   Q 1605.83 1019.13 1593.52 1002.78   Q 1581.64 987.03 1577.14 981.86   Q 1550.13 950.90 1518.82 928.71   Q 1460.90 887.67 1388.31 876.07   Q 1374.24 873.82 1365.59 873.22   C 1346.46 871.87 1325.01 871.60 1305.11 874.06   Q 1263.64 879.17 1227.16 891.97   Q 1155.77 917.01 1101.65 970.18   Q 1048.91 1021.98 1019.81 1090.48   Q 1010.62 1112.09 1003.95 1132.96   Q 1002.15 1138.61 998.25 1153.64   Q 996.59 1160.06 995.04 1168.42   C 991.59 1187.01 984.25 1206.76 967.87 1217.07   Q 955.95 1224.57 943.83 1217.91   C 931.76 1211.27 925.84 1200.61 920.78 1187.39   Q 918.06 1180.29 915.35 1167.35   Q 903.45 1110.57 876.44 1059.63   Q 846.56 1003.28 798.03 959.66   Q 792.07 954.30 782.61 946.90   Q 735.79 910.27 679.70 890.34   Q 664.85 885.07 649.21 881.37   Q 620.96 874.68 591.53 872.91   C 526.05 868.98 459.87 885.09 404.49 920.74   Q 378.27 937.61 356.35 958.35   Q 333.45 980.02 314.34 1007.07   Q 283.69 1050.47 265.53 1100.47   Q 262.18 1109.70 259.03 1119.07   Q 258.74 1119.93 254.07 1135.04   Q 251.42 1143.61 249.58 1151.12   Q 243.32 1176.62 239.70 1202.62   Q 238.74 1209.48 239.00 1211.42   Q 239.76 1217.18 246.85 1217.70   Q 262.54 1218.87 274.15 1222.65   C 292.48 1228.62 307.45 1240.35 320.47 1254.70   Q 322.91 1257.39 326.30 1261.94   Q 330.28 1267.26 331.68 1269.34   C 336.99 1277.23 341.98 1285.88 345.57 1294.89   Q 352.14 1311.38 354.02 1318.76   Q 356.36 1327.95 357.83 1337.33   Q 359.83 1350.11 358.52 1363.03"></path>
    <path stroke="#6e6eb5" vector-effect="non-scaling-stroke" d="   M 1718.19 1633.84   C 1711.95 1634.78 1705.56 1635.96 1699.42 1635.94   Q 1689.05 1635.89 1678.67 1636.06   Q 1671.95 1636.16 1663.43 1635.05   Q 1651.23 1633.46 1646.15 1632.51   Q 1599.80 1623.84 1561.83 1594.60   Q 1533.71 1572.95 1513.28 1544.24   Q 1507.58 1536.23 1503.24 1529.28   Q 1494.37 1515.12 1486.80 1500.97   A 2.22 2.21 -28.4 0 0 1483.79 1500.08   Q 1456.50 1514.98 1426.26 1517.89   Q 1410.63 1519.40 1396.71 1520.63   Q 1394.22 1520.85 1376.76 1521.97   Q 1330.17 1524.95 1288.39 1541.70   C 1268.14 1549.82 1254.66 1565.02 1253.22 1587.32   Q 1252.26 1602.26 1255.17 1612.70   Q 1260.00 1630.05 1260.46 1631.43   C 1261.68 1635.01 1261.87 1642.64 1255.41 1640.17   Q 1246.81 1636.89 1240.82 1630.51   Q 1221.33 1609.75 1206.94 1585.01   C 1200.11 1573.27 1194.36 1560.12 1191.40 1546.51   Q 1189.55 1538.05 1189.59 1525.25   C 1189.65 1505.90 1196.80 1487.12 1209.01 1472.26   Q 1212.36 1468.19 1214.05 1466.29   C 1218.80 1460.97 1221.44 1454.95 1221.39 1447.79   Q 1221.37 1443.53 1219.58 1440.22   Q 1201.33 1406.34 1204.31 1368.68   Q 1205.51 1353.54 1209.52 1339.23   Q 1222.81 1291.70 1262.78 1264.56   Q 1271.01 1258.96 1280.24 1254.82   Q 1319.54 1237.20 1362.57 1241.97   C 1371.25 1242.93 1377.61 1244.62 1385.12 1247.45   Q 1388.11 1248.57 1387.89 1251.52   Q 1387.76 1253.22 1385.46 1254.65   Q 1380.11 1257.96 1376.48 1258.90   C 1356.28 1264.12 1340.00 1273.41 1332.72 1293.76   Q 1324.45 1316.88 1334.18 1339.42   Q 1341.82 1357.12 1358.19 1367.18   C 1370.02 1374.44 1383.96 1377.42 1398.32 1378.48   Q 1429.58 1380.80 1453.93 1364.80   C 1460.66 1360.38 1467.07 1354.47 1473.44 1348.44   C 1480.02 1342.21 1484.99 1335.42 1490.92 1327.02   Q 1512.68 1296.20 1522.24 1261.46   Q 1523.62 1256.48 1524.86 1247.12   C 1525.40 1243.05 1525.97 1239.24 1526.20 1235.10   Q 1526.72 1225.63 1526.44 1223.04   Q 1526.15 1220.30 1526.72 1216.12   Q 1527.19 1212.69 1526.84 1209.02   Q 1526.40 1204.42 1526.34 1202.99   Q 1526.22 1199.96 1525.91 1196.94"></path>
    <path stroke="#6e6eb5" vector-effect="non-scaling-stroke" d="   M 1525.48 1193.71   Q 1526.57 1189.76 1526.32 1186.75   Q 1525.32 1174.89 1522.04 1162.56   Q 1515.39 1137.48 1503.19 1114.77   Q 1498.37 1105.78 1492.71 1097.62   Q 1461.16 1052.12 1411.86 1028.12   Q 1404.47 1024.52 1396.40 1021.57   Q 1387.07 1018.15 1380.42 1016.16   Q 1369.01 1012.74 1354.67 1010.44   Q 1345.86 1009.02 1334.85 1008.88   Q 1314.73 1008.62 1304.85 1009.38   Q 1270.59 1011.99 1239.30 1026.08   Q 1220.72 1034.44 1206.72 1043.97   Q 1178.44 1063.23 1157.95 1089.44   C 1134.10 1119.94 1118.64 1158.13 1116.74 1197.24   Q 1116.03 1211.90 1116.77 1227.00   Q 1117.22 1236.08 1119.11 1247.58"></path>
    <path stroke="#6e6eb5" vector-effect="non-scaling-stroke" d="   M 1119.11 1247.58   Q 1120.09 1252.91 1121.06 1258.28   Q 1122.38 1265.61 1117.52 1270.76   C 1112.47 1276.11 1104.54 1278.82 1097.28 1280.92   A 1.40 1.39 64.0 0 0 1096.54 1283.08   C 1099.36 1286.98 1102.40 1289.74 1108.11 1295.58   C 1113.71 1301.31 1118.79 1307.33 1123.21 1312.74   Q 1138.34 1331.25 1144.88 1353.50   Q 1149.14 1368.02 1150.69 1380.84   Q 1152.83 1398.58 1152.95 1400.50   C 1154.75 1427.52 1151.76 1456.26 1142.46 1481.88   C 1122.51 1536.88 1080.04 1582.95 1025.91 1605.85   Q 1022.25 1607.40 1016.85 1609.27   Q 1010.16 1611.59 1007.68 1612.33   C 988.80 1617.95 969.95 1621.22 950.76 1620.48   Q 898.28 1618.46 853.67 1591.40   Q 844.83 1586.03 837.45 1580.18   Q 815.61 1562.87 799.27 1540.10   Q 791.92 1529.86 790.62 1527.63   C 786.68 1520.87 782.01 1513.12 778.74 1506.37   Q 765.27 1478.53 759.45 1448.63   C 758.90 1445.80 759.03 1442.73 758.62 1439.97   C 757.57 1433.02 757.51 1425.42 756.83 1419.30   Q 756.26 1414.10 756.95 1407.75   Q 757.07 1406.65 758.87 1387.54   Q 759.94 1376.15 763.69 1360.81   Q 770.55 1332.75 789.14 1310.62   Q 800.81 1296.73 812.10 1286.10   Q 813.99 1284.33 814.11 1284.13   C 815.15 1282.53 814.29 1280.75 812.45 1280.30   C 804.10 1278.25 794.85 1274.67 790.23 1267.47   C 787.66 1263.47 789.10 1259.52 789.98 1254.39   Q 792.57 1239.44 793.82 1224.02   Q 795.40 1204.58 791.98 1179.62   Q 791.40 1175.35 789.57 1167.36   Q 787.42 1157.93 786.55 1155.20   Q 777.46 1126.47 763.67 1105.86   Q 753.78 1091.08 750.68 1087.60   Q 748.42 1085.07 742.69 1078.11   C 733.10 1066.48 721.39 1056.60 708.03 1046.83   Q 688.99 1032.91 665.98 1023.79   Q 643.59 1014.92 619.16 1010.86   Q 609.37 1009.23 599.30 1008.86   Q 579.33 1008.12 562.47 1009.92   C 532.98 1013.05 505.18 1022.81 480.08 1038.07   Q 461.07 1049.63 443.76 1066.78   Q 420.47 1089.83 405.47 1117.75   Q 383.66 1158.36 382.81 1204.49   Q 382.76 1207.31 385.23 1207.65"></path>
    <path stroke="#6e6eb5" vector-effect="non-scaling-stroke" d="   M 383.25 1212.09   Q 382.19 1266.33 410.91 1312.74"></path>
    <path stroke="#6e6eb5" vector-effect="non-scaling-stroke" d="   M 420.25 1326.68   Q 430.59 1341.93 445.16 1355.32   C 471.79 1379.79 504.76 1384.39 538.69 1373.40   Q 550.14 1369.69 558.44 1362.75   Q 576.45 1347.69 580.37 1325.65   Q 581.04 1321.86 581.13 1316.85   Q 581.20 1313.08 581.08 1308.00   Q 581.03 1305.96 580.18 1304.16   C 579.77 1303.29 579.95 1302.66 579.79 1301.86   Q 577.86 1292.48 573.29 1284.80   Q 573.03 1284.37 573.00 1283.87   Q 572.93 1282.74 571.57 1282.44   Q 571.36 1282.39 571.33 1282.17   Q 571.30 1281.98 571.38 1281.93   Q 571.79 1281.71 571.50 1281.46   Q 571.41 1281.38 571.23 1281.40   Q 570.99 1281.42 570.85 1281.22   Q 567.81 1276.87 563.45 1273.20   Q 555.57 1266.56 545.99 1262.78   Q 543.17 1261.67 534.85 1259.39   Q 529.58 1257.95 522.98 1253.35   C 519.38 1250.83 524.21 1247.72 526.39 1246.86   C 545.25 1239.35 567.10 1240.07 587.25 1242.58   C 623.54 1247.09 657.65 1264.03 679.36 1293.75   Q 695.22 1315.47 701.65 1341.13   Q 705.06 1354.75 706.45 1370.52   Q 707.17 1378.61 706.57 1385.30   C 705.07 1402.26 701.95 1418.14 694.37 1433.37   Q 690.21 1441.74 689.65 1444.21   Q 687.99 1451.57 691.20 1458.29   Q 692.33 1460.64 698.37 1467.85   Q 706.88 1478.01 712.61 1489.58   Q 723.13 1510.83 721.03 1533.62   C 719.06 1555.02 709.71 1576.44 698.03 1594.29   Q 685.33 1613.70 669.32 1630.83   Q 662.59 1638.03 653.53 1640.59   Q 651.49 1641.17 650.15 1639.70   C 649.00 1638.43 649.46 1636.11 649.50 1634.44"></path>
    <path stroke="#6e6eb5" vector-effect="non-scaling-stroke" d="   M 649.50 1634.44   C 650.61 1626.70 654.26 1618.71 655.84 1612.18   Q 656.97 1607.52 657.11 1602.08   C 657.28 1595.10 658.01 1587.72 656.37 1581.06   Q 654.91 1575.16 654.59 1574.19   Q 649.02 1557.21 633.85 1547.87   Q 625.64 1542.81 616.99 1539.90   Q 616.50 1539.73 616.41 1539.44   A 0.14 0.14 0.0 0 0 616.31 1539.34   L 597.84 1533.16   Q 597.17 1532.94 597.87 1532.86   Q 598.16 1532.83 598.39 1532.85   A 0.07 0.05 39.5 0 1 598.42 1532.96   Q 596.38 1532.83 592.63 1531.80   Q 572.19 1526.22 552.68 1523.81   Q 546.30 1523.02 532.82 1521.95   Q 496.92 1519.11 487.31 1518.28   Q 454.36 1515.44 425.65 1499.50   A 1.24 1.24 0.0 0 0 423.95 1500.02   C 408.40 1530.82 388.35 1558.85 362.92 1582.41   Q 319.43 1622.71 261.42 1632.90   Q 244.38 1635.90 231.02 1636.27   Q 222.10 1636.52 201.52 1634.96   C 196.18 1634.56 192.05 1633.74 185.83 1632.78   Q 144.75 1626.43 107.06 1605.73   Q 98.01 1600.75 84.29 1590.93   Q 81.51 1588.94 78.94 1586.63   Q 74.14 1582.31 73.67 1581.90   Q 68.93 1577.69 65.77 1574.45   Q 19.13 1526.55 8.46 1460.46   Q 6.79 1450.06 6.28 1446.40   C 5.80 1442.93 5.94 1440.02 5.41 1436.82   C 4.45 1430.92 4.94 1423.03 4.90 1418.38   Q 4.86 1412.52 5.42 1407.14   Q 7.47 1387.43 8.14 1383.82   Q 15.20 1345.56 33.65 1311.14   Q 42.08 1295.42 51.59 1283.35   Q 55.47 1278.43 62.51 1271.49   Q 82.08 1252.18 108.11 1242.56   Q 133.85 1233.05 159.17 1232.77   C 160.62 1232.76 161.55 1231.74 163.14 1231.88   Q 172.49 1232.67 176.24 1231.91   Q 179.01 1231.36 182.51 1231.73   Q 223.36 1236.04 258.03 1258.54   Q 272.97 1268.23 281.54 1277.80   Q 289.54 1286.73 291.90 1289.70   Q 316.26 1320.31 318.19 1359.44   Q 318.90 1373.86 314.33 1390.66   C 308.39 1412.52 296.46 1437.17 277.47 1449.20   Q 244.46 1470.10 204.50 1465.85   Q 179.47 1463.19 161.15 1445.88   Q 155.30 1440.36 147.74 1440.94   C 143.91 1441.23 142.09 1444.46 142.10 1448.24   Q 142.12 1455.85 146.15 1462.61   Q 149.30 1467.91 150.62 1469.63   Q 168.52 1492.83 196.50 1500.75   Q 209.91 1504.54 223.76 1505.12   Q 229.78 1505.37 238.79 1504.38   Q 246.43 1503.53 253.63 1502.09   C 283.00 1496.20 308.92 1480.73 328.50 1458.50   Q 341.58 1443.65 348.00 1425.50   Q 351.65 1415.15 352.87 1411.68   Q 353.40 1410.14 353.76 1408.20   Q 354.41 1404.64 354.42 1404.62   Q 355.75 1401.40 355.84 1399.41   Q 355.88 1398.68 357.84 1388.27   Q 359.25 1380.74 358.51 1367.69"></path>
    <path stroke="#adabd7" vector-effect="non-scaling-stroke" d="   M 650.54 1620.46   Q 650.52 1626.48 649.14 1631.67   C 648.51 1634.03 648.52 1636.05 648.53 1638.36   Q 648.53 1638.37 648.68 1638.51   L 648.69 1638.52   Q 648.82 1638.64 648.85 1638.38   Q 649.09 1636.40 649.50 1634.44"></path>
    <path stroke="#adabd7" vector-effect="non-scaling-stroke" d="   M 1119.11 1247.58   L 1121.70 1245.06"></path>
    <path stroke="#6e6eb5" vector-effect="non-scaling-stroke" d="   M 1025.44 1422.54   A 70.18 70.18 0.0 0 0 955.26 1352.36   A 70.18 70.18 0.0 0 0 885.08 1422.54   A 70.18 70.18 0.0 0 0 955.26 1492.72   A 70.18 70.18 0.0 0 0 1025.44 1422.54"></path>
  </g>
  <path fill="#cd9fba" d="   M 1187.30 647.14   Q 1185.92 646.37 1184.00 649.01   Q 1183.88 649.17 1183.74 649.23   Q 1183.48 649.35 1183.38 649.21   A 0.98 0.86 -44.0 0 1 1183.47 648.11   Q 1190.51 639.37 1200.81 627.76   Q 1202.40 625.97 1203.84 624.48   Q 1205.10 623.18 1206.77 621.15   Q 1236.05 585.56 1247.18 541.18   Q 1249.50 531.91 1251.13 521.59   Q 1255.33 495.07 1255.33 468.27   C 1255.33 463.49 1254.94 458.58 1254.85 453.60   Q 1254.83 452.39 1254.56 450.81   C 1253.90 446.90 1254.35 443.12 1253.44 439.26   C 1252.43 435.00 1252.21 431.02 1251.21 426.34   Q 1240.91 378.21 1216.99 335.65   Q 1211.72 326.27 1202.96 313.16   Q 1189.26 292.68 1178.35 279.53   Q 1176.97 277.86 1175.61 275.87   C 1174.44 274.16 1172.44 272.29 1171.06 270.17   Q 1170.15 268.76 1169.40 267.88   Q 1158.41 254.80 1151.45 246.93   Q 1150.05 245.35 1149.73 244.96   Q 1143.02 236.85 1134.24 227.11   C 1133.72 226.53 1133.49 225.72 1133.09 225.40   C 1130.89 223.63 1129.96 221.19 1128.51 219.53   Q 1111.96 200.64 1105.46 193.05   Q 1104.13 191.49 1100.37 187.63   Q 1098.93 186.15 1092.38 177.81   Q 1090.51 175.42 1086.23 170.09   Q 1082.13 164.99 1080.24 162.08   C 1078.95 160.10 1077.03 158.30 1075.54 156.25   Q 1071.35 150.44 1067.20 144.65   Q 1056.96 130.32 1044.20 108.59   Q 1033.61 90.56 1025.44 71.60   Q 1017.96 54.27 1013.82 36.93   Q 1012.88 33.03 1011.84 25.86   Q 1010.75 18.35 1009.80 14.83   C 1008.16 8.73 1004.31 3.87 997.65 5.67   C 994.43 6.54 990.58 9.89 988.67 12.66   Q 977.65 28.66 969.40 48.83   Q 965.48 58.40 964.55 61.00   Q 962.15 67.74 956.14 86.88   Q 947.78 113.51 940.99 151.96   Q 940.08 157.09 940.03 159.19   Q 939.94 162.57 939.19 166.39   Q 938.10 171.94 937.79 177.20   Q 934.64 232.10 943.29 286.26   Q 944.12 291.46 944.47 292.57   A 1.31 1.21 16.2 0 0 944.79 293.10   Q 945.27 293.58 945.14 294.18   Q 944.92 295.27 944.94 295.38   Q 945.06 295.95 945.55 296.31   Q 945.94 296.60 945.97 297.07   C 946.17 300.71 946.17 302.62 947.17 306.09   Q 947.88 308.58 948.00 311.19   Q 948.13 314.02 948.59 316.28   Q 952.09 333.60 957.83 352.38   Q 958.64 355.06 959.06 355.61   Q 959.39 356.05 959.41 356.51   Q 959.45 357.14 959.90 358.56   Q 964.46 373.06 970.63 387.98   Q 970.89 388.61 970.92 389.15   Q 970.96 389.92 971.48 390.34   A 1.30 1.27 -80.2 0 1 971.90 390.95   L 973.22 395.20   A 0.43 0.42 -84.6 0 1 972.62 395.70   Q 970.95 394.82 970.01 393.62   Q 968.82 392.10 967.97 391.57   Q 965.84 390.26 964.55 389.31   Q 959.76 385.78 953.80 380.52   Q 950.70 377.79 941.40 367.05   Q 934.57 359.16 930.22 352.75   Q 913.16 327.61 906.30 297.98   Q 901.13 275.67 899.52 253.67   C 899.04 247.03 899.31 240.74 898.87 234.98   C 898.15 225.63 898.49 217.70 898.63 205.53   C 898.67 201.65 899.56 198.67 899.68 194.98   Q 900.26 175.94 900.75 171.25   Q 902.31 155.98 903.69 149.99   Q 907.47 133.52 909.91 120.25   Q 910.67 116.11 908.47 112.58   C 907.89 111.65 907.39 111.90 906.75 111.43   Q 906.23 111.05 905.24 110.88   Q 897.70 109.63 891.63 112.76   Q 890.93 113.12 888.84 114.20   Q 887.30 114.99 886.26 115.99   Q 871.59 130.22 862.31 141.31   Q 855.68 149.24 847.16 160.14   Q 844.54 163.50 838.76 172.79   Q 837.86 174.25 834.10 178.86   Q 831.88 181.59 829.05 186.93   Q 826.00 192.67 824.45 195.25   Q 814.42 211.94 805.57 232.25   Q 797.33 251.13 792.57 270.51   Q 788.13 288.56 786.11 309.80   C 784.77 323.90 785.07 341.15 786.47 353.85   Q 788.78 374.81 789.91 381.26   Q 793.61 402.24 800.01 425.40   Q 800.31 426.47 800.36 426.88   C 800.54 428.49 801.46 430.19 801.84 431.77   Q 802.54 434.69 802.71 435.28   Q 804.78 442.16 810.50 460.98   Q 811.09 462.92 809.51 461.64   Q 806.33 459.08 802.95 455.53   Q 801.47 453.97 792.81 443.69   C 791.65 442.30 790.84 440.59 789.63 439.05   C 786.23 434.71 783.33 430.23 779.62 424.61   Q 777.35 421.16 772.27 410.85   Q 767.88 401.94 765.85 396.48   Q 760.24 381.38 756.88 365.02   C 756.11 361.25 756.13 357.87 755.50 354.58   Q 754.84 351.15 754.54 346.76   Q 753.92 337.66 752.60 316.28   Q 752.10 308.27 748.93 302.07   Q 745.29 294.94 737.55 295.16   Q 733.35 295.28 728.60 298.84   Q 723.71 302.52 721.22 305.46   Q 716.17 311.43 712.28 318.18   Q 710.64 321.03 705.10 331.93   Q 682.80 375.75 669.80 420.48   Q 658.59 459.04 656.04 499.53   Q 655.48 508.31 655.93 516.76   Q 657.11 539.24 660.89 558.53   Q 661.88 563.57 663.61 567.60   Q 664.10 568.73 664.22 570.09   Q 664.26 570.59 664.89 572.63   Q 667.26 580.22 669.07 584.91   Q 670.51 588.60 677.03 601.34   Q 679.36 605.88 683.19 611.70   Q 687.28 617.89 689.94 621.55   Q 701.02 636.78 716.42 648.68   Q 715.42 648.94 715.37 649.20   A 0.66 0.65 24.1 0 1 714.33 649.59   C 708.10 644.85 702.40 640.19 697.15 634.40   Q 685.93 622.02 677.55 607.53   Q 672.92 599.53 669.87 593.03   C 664.71 582.02 659.83 567.61 657.51 554.91   Q 655.00 541.13 653.98 527.65   C 653.38 519.71 653.67 509.34 653.78 500.44   Q 653.86 494.69 654.26 489.56   Q 657.00 454.59 666.83 420.78   Q 677.87 382.83 692.75 351.18   Q 700.46 334.77 703.38 328.80   Q 705.35 324.79 708.05 319.80   Q 712.56 311.49 718.30 304.81   C 725.03 296.98 733.86 289.72 744.47 293.65   C 751.53 296.27 754.65 308.07 755.13 314.87   Q 757.00 341.15 757.37 345.78   Q 760.54 385.74 779.71 419.58   Q 788.73 435.51 802.76 451.18   C 803.36 451.85 803.90 453.14 804.87 453.68   Q 805.68 454.12 805.41 453.24   Q 798.69 431.38 793.01 408.84   Q 784.76 376.11 783.06 343.77   Q 782.66 336.17 783.01 321.51   Q 784.00 280.20 798.58 241.52   Q 804.98 224.54 815.27 205.73   C 818.91 199.07 820.97 194.59 822.40 192.88   Q 822.67 192.56 822.79 192.33   Q 825.69 186.69 826.59 185.35   Q 830.48 179.49 834.32 173.60   Q 835.13 172.36 836.05 171.22   Q 837.82 169.05 837.89 168.92   A 15.36 2.02 -50.2 0 1 841.28 163.56   Q 849.98 151.48 860.30 139.79   C 870.63 128.08 875.59 122.00 881.63 116.52   C 888.43 110.35 894.89 107.24 904.53 107.75   Q 907.67 107.92 909.50 109.75   Q 912.70 112.97 912.61 118.01   Q 912.56 121.27 910.66 130.44   C 908.69 139.98 906.21 148.86 905.05 157.52   Q 902.73 174.82 901.08 192.38   Q 900.65 196.90 900.99 204.62   Q 901.32 212.04 900.57 220.88   Q 900.53 221.42 900.02 222.43   A 1.05 1.04 47.3 0 0 899.99 223.33   Q 901.07 225.76 900.80 228.42   Q 900.38 232.67 900.38 232.74   C 900.37 239.49 901.73 248.31 902.21 254.13   C 903.80 273.43 907.06 293.10 912.82 311.08   Q 915.50 319.42 921.06 330.96   Q 922.56 334.07 927.20 342.42   Q 929.29 346.19 931.26 348.98   Q 933.17 351.68 934.24 353.44   Q 935.49 355.51 937.19 357.69   C 946.60 369.81 953.71 378.07 963.97 385.82   Q 965.13 386.69 966.35 387.41   A 0.69 0.68 -86.4 0 0 967.32 386.55   Q 960.06 369.31 954.49 349.69   Q 949.40 331.77 948.83 328.44   Q 948.58 327.00 948.25 325.22   Q 947.98 323.80 947.41 322.51   Q 946.52 320.47 946.47 319.68   C 946.31 316.62 945.30 315.02 944.43 311.88   Q 944.18 310.96 944.12 310.06   Q 944.05 309.00 944.04 308.95   Q 936.66 267.77 935.21 233.57   Q 934.75 222.91 935.06 189.82   Q 935.19 175.71 936.06 171.26   Q 937.35 164.57 937.46 160.18   Q 937.59 155.23 939.29 145.76   Q 947.70 99.02 963.50 55.68   Q 968.94 40.76 975.37 30.10   Q 976.22 28.67 976.43 28.26   Q 981.43 18.30 984.81 13.57   Q 985.05 13.23 985.93 11.93   Q 988.88 7.57 992.84 4.89   Q 997.94 1.44 1003.60 2.71   Q 1004.47 2.90 1005.15 3.58   Q 1007.39 5.80 1008.14 6.49   C 1010.94 9.06 1012.26 12.14 1012.93 15.85   Q 1015.51 30.16 1016.91 37.40   Q 1017.74 41.71 1021.08 51.76   Q 1030.82 81.11 1048.17 109.64   Q 1054.91 120.72 1061.89 131.65   Q 1066.45 138.78 1074.63 149.75   C 1077.59 153.71 1081.89 160.42 1086.09 165.17   C 1089.30 168.81 1091.50 171.91 1094.55 175.71   C 1095.62 177.03 1098.64 179.69 1099.43 181.76   C 1099.76 182.64 1100.61 182.98 1101.17 183.96   Q 1101.42 184.39 1101.88 184.59   Q 1102.57 184.88 1102.92 185.49   Q 1103.42 186.40 1103.59 186.59   Q 1105.20 188.38 1111.78 196.25   Q 1116.28 201.62 1118.39 203.89   C 1123.20 209.09 1127.47 215.10 1132.51 220.30   C 1133.11 220.92 1133.71 222.19 1134.67 222.93   Q 1135.38 223.47 1135.68 223.88   Q 1138.09 227.12 1144.05 233.45   Q 1144.68 234.13 1145.30 235.44   Q 1145.52 235.89 1145.88 236.22   Q 1149.32 239.30 1151.20 241.98   Q 1151.40 242.27 1154.46 246.11   Q 1163.79 257.82 1169.32 263.94   Q 1176.08 271.42 1180.80 277.80   Q 1185.97 284.79 1190.77 292.15   Q 1192.54 294.87 1194.55 297.11   Q 1197.59 300.49 1198.54 301.96   Q 1199.37 303.24 1201.18 305.57   Q 1203.55 308.62 1207.58 314.51   Q 1209.92 317.93 1213.15 323.54   Q 1221.90 338.76 1223.91 342.45   Q 1226.28 346.82 1226.91 348.64   Q 1227.22 349.51 1227.59 349.96   Q 1227.86 350.29 1228.21 351.02   C 1241.54 378.99 1252.29 409.38 1256.26 439.79   Q 1257.73 451.02 1257.93 464.05   Q 1258.40 495.95 1252.77 528.28   Q 1248.25 554.24 1236.91 578.68   Q 1230.52 592.46 1224.07 602.59   Q 1220.82 607.69 1213.46 617.74   Q 1209.50 623.13 1201.46 631.76   Q 1194.24 639.49 1187.30 647.14   Z"></path>
  <path fill="#ed1b24" d="   M 1187.30 647.14   L 1184.00 651.20   Q 1183.67 651.62 1183.17 651.43   Q 1182.54 651.20 1182.06 650.79   A 1.45 1.42 -24.5 0 0 1181.13 650.45   Q 1152.54 650.38 883.28 649.91   Q 782.63 649.73 718.00 649.80   Q 716.34 649.80 716.42 648.68   Q 701.02 636.78 689.94 621.55   Q 687.28 617.89 683.19 611.70   Q 679.36 605.88 677.03 601.34   Q 670.51 588.60 669.07 584.91   Q 667.26 580.22 664.89 572.63   Q 664.26 570.59 664.22 570.09   Q 664.10 568.73 663.61 567.60   Q 661.88 563.57 660.89 558.53   Q 657.11 539.24 655.93 516.76   Q 655.48 508.31 656.04 499.53   Q 658.59 459.04 669.80 420.48   Q 682.80 375.75 705.10 331.93   Q 710.64 321.03 712.28 318.18   Q 716.17 311.43 721.22 305.46   Q 723.71 302.52 728.60 298.84   Q 733.35 295.28 737.55 295.16   Q 745.29 294.94 748.93 302.07   Q 752.10 308.27 752.60 316.28   Q 753.92 337.66 754.54 346.76   Q 754.84 351.15 755.50 354.58   C 756.13 357.87 756.11 361.25 756.88 365.02   Q 760.24 381.38 765.85 396.48   Q 767.88 401.94 772.27 410.85   Q 777.35 421.16 779.62 424.61   C 783.33 430.23 786.23 434.71 789.63 439.05   C 790.84 440.59 791.65 442.30 792.81 443.69   Q 801.47 453.97 802.95 455.53   Q 806.33 459.08 809.51 461.64   Q 811.09 462.92 810.50 460.98   Q 804.78 442.16 802.71 435.28   Q 802.54 434.69 801.84 431.77   C 801.46 430.19 800.54 428.49 800.36 426.88   Q 800.31 426.47 800.01 425.40   Q 793.61 402.24 789.91 381.26   Q 788.78 374.81 786.47 353.85   C 785.07 341.15 784.77 323.90 786.11 309.80   Q 788.13 288.56 792.57 270.51   Q 797.33 251.13 805.57 232.25   Q 814.42 211.94 824.45 195.25   Q 826.00 192.67 829.05 186.93   Q 831.88 181.59 834.10 178.86   Q 837.86 174.25 838.76 172.79   Q 844.54 163.50 847.16 160.14   Q 855.68 149.24 862.31 141.31   Q 871.59 130.22 886.26 115.99   Q 887.30 114.99 888.84 114.20   Q 890.93 113.12 891.63 112.76   Q 897.70 109.63 905.24 110.88   Q 906.23 111.05 906.75 111.43   C 907.39 111.90 907.89 111.65 908.47 112.58   Q 910.67 116.11 909.91 120.25   Q 907.47 133.52 903.69 149.99   Q 902.31 155.98 900.75 171.25   Q 900.26 175.94 899.68 194.98   C 899.56 198.67 898.67 201.65 898.63 205.53   C 898.49 217.70 898.15 225.63 898.87 234.98   C 899.31 240.74 899.04 247.03 899.52 253.67   Q 901.13 275.67 906.30 297.98   Q 913.16 327.61 930.22 352.75   Q 934.57 359.16 941.40 367.05   Q 950.70 377.79 953.80 380.52   Q 959.76 385.78 964.55 389.31   Q 965.84 390.26 967.97 391.57   Q 968.82 392.10 970.01 393.62   Q 970.95 394.82 972.62 395.70   A 0.43 0.42 -84.6 0 0 973.22 395.20   L 971.90 390.95   A 1.30 1.27 -80.2 0 0 971.48 390.34   Q 970.96 389.92 970.92 389.15   Q 970.89 388.61 970.63 387.98   Q 964.46 373.06 959.90 358.56   Q 959.45 357.14 959.41 356.51   Q 959.39 356.05 959.06 355.61   Q 958.64 355.06 957.83 352.38   Q 952.09 333.60 948.59 316.28   Q 948.13 314.02 948.00 311.19   Q 947.88 308.58 947.17 306.09   C 946.17 302.62 946.17 300.71 945.97 297.07   Q 945.94 296.60 945.55 296.31   Q 945.06 295.95 944.94 295.38   Q 944.92 295.27 945.14 294.18   Q 945.27 293.58 944.79 293.10   A 1.31 1.21 16.2 0 1 944.47 292.57   Q 944.12 291.46 943.29 286.26   Q 934.64 232.10 937.79 177.20   Q 938.10 171.94 939.19 166.39   Q 939.94 162.57 940.03 159.19   Q 940.08 157.09 940.99 151.96   Q 947.78 113.51 956.14 86.88   Q 962.15 67.74 964.55 61.00   Q 965.48 58.40 969.40 48.83   Q 977.65 28.66 988.67 12.66   C 990.58 9.89 994.43 6.54 997.65 5.67   C 1004.31 3.87 1008.16 8.73 1009.80 14.83   Q 1010.75 18.35 1011.84 25.86   Q 1012.88 33.03 1013.82 36.93   Q 1017.96 54.27 1025.44 71.60   Q 1033.61 90.56 1044.20 108.59   Q 1056.96 130.32 1067.20 144.65   Q 1071.35 150.44 1075.54 156.25   C 1077.03 158.30 1078.95 160.10 1080.24 162.08   Q 1082.13 164.99 1086.23 170.09   Q 1090.51 175.42 1092.38 177.81   Q 1098.93 186.15 1100.37 187.63   Q 1104.13 191.49 1105.46 193.05   Q 1111.96 200.64 1128.51 219.53   C 1129.96 221.19 1130.89 223.63 1133.09 225.40   C 1133.49 225.72 1133.72 226.53 1134.24 227.11   Q 1143.02 236.85 1149.73 244.96   Q 1150.05 245.35 1151.45 246.93   Q 1158.41 254.80 1169.40 267.88   Q 1170.15 268.76 1171.06 270.17   C 1172.44 272.29 1174.44 274.16 1175.61 275.87   Q 1176.97 277.86 1178.35 279.53   Q 1189.26 292.68 1202.96 313.16   Q 1211.72 326.27 1216.99 335.65   Q 1240.91 378.21 1251.21 426.34   C 1252.21 431.02 1252.43 435.00 1253.44 439.26   C 1254.35 443.12 1253.90 446.90 1254.56 450.81   Q 1254.83 452.39 1254.85 453.60   C 1254.94 458.58 1255.33 463.49 1255.33 468.27   Q 1255.33 495.07 1251.13 521.59   Q 1249.50 531.91 1247.18 541.18   Q 1236.05 585.56 1206.77 621.15   Q 1205.10 623.18 1203.84 624.48   Q 1202.40 625.97 1200.81 627.76   Q 1190.51 639.37 1183.47 648.11   A 0.98 0.86 -44.0 0 0 1183.38 649.21   Q 1183.48 649.35 1183.74 649.23   Q 1183.88 649.17 1184.00 649.01   Q 1185.92 646.37 1187.30 647.14   Z"></path>
  <path fill="#adabd7" d="   M 708.28 687.00   Q 698.29 687.82 691.79 688.92   C 676.86 691.46 665.08 703.98 662.47 718.82   Q 661.52 724.24 660.56 734.01   Q 660.59 730.49 659.99 723.90   C 658.46 707.16 672.94 690.33 688.90 686.93   Q 694.08 685.82 697.00 686.21   Q 702.63 686.95 708.28 687.00   Z"></path>
  <path fill="#adabd7" d="   M 1193.70 788.31   Q 1207.10 788.20 1220.18 785.40   Q 1230.34 783.23 1237.94 775.42   C 1245.12 768.04 1248.32 757.07 1249.00 747.01   Q 1249.80 734.97 1248.51 723.67   Q 1247.29 712.94 1243.33 706.40   C 1238.25 698.02 1229.55 691.30 1219.86 688.87   Q 1216.99 688.15 1210.58 688.23   Q 1201.61 688.32 1192.71 687.57   Q 1194.49 687.16 1196.32 687.09   Q 1207.47 686.69 1217.53 686.56   Q 1221.49 686.51 1224.40 687.63   Q 1244.68 695.36 1250.02 715.75   Q 1250.86 718.95 1250.98 725.66   C 1251.09 731.76 1251.91 736.91 1251.48 743.10   Q 1251.46 743.51 1250.96 751.38   Q 1250.15 764.17 1242.73 774.38   C 1237.63 781.40 1229.38 785.73 1221.19 787.94   C 1217.52 788.93 1213.82 788.82 1209.95 788.89   Q 1201.80 789.04 1193.70 788.31   Z"></path>
  <path fill="#2e3192" d="   M 1192.71 687.57   Q 1201.61 688.32 1210.58 688.23   Q 1216.99 688.15 1219.86 688.87   C 1229.55 691.30 1238.25 698.02 1243.33 706.40   Q 1247.29 712.94 1248.51 723.67   Q 1249.80 734.97 1249.00 747.01   C 1248.32 757.07 1245.12 768.04 1237.94 775.42   Q 1230.34 783.23 1220.18 785.40   Q 1207.10 788.20 1193.70 788.31   Q 1166.39 788.14 1139.06 787.91   C 1136.08 787.88 1133.68 788.25 1130.98 787.84   Q 1129.38 787.60 1119.25 787.60   Q 916.02 787.53 712.80 787.59   C 707.95 787.05 702.33 787.28 699.66 787.30   Q 695.58 787.34 692.01 786.26   Q 684.54 784.00 682.30 782.78   Q 665.45 773.59 662.36 754.93   Q 661.12 747.43 660.47 736.96   L 660.56 734.01   Q 661.52 724.24 662.47 718.82   C 665.08 703.98 676.86 691.46 691.79 688.92   Q 698.29 687.82 708.28 687.00   L 1192.71 687.57   Z"></path>
  <path fill="#adabd7" d="   M 660.47 736.96   Q 661.12 747.43 662.36 754.93   Q 665.45 773.59 682.30 782.78   Q 684.54 784.00 692.01 786.26   Q 695.58 787.34 699.66 787.30   C 702.33 787.28 707.95 787.05 712.80 787.59   Q 706.48 788.45 699.99 788.05   Q 698.57 787.96 698.18 789.14   A 0.86 0.85 -76.3 0 1 697.24 789.72   Q 688.28 788.45 680.32 784.58   Q 672.20 780.62 666.98 773.21   Q 660.07 763.40 659.12 752.44   Q 658.59 746.32 660.47 736.96   Z"></path>
  <path fill="#adabd7" d="   M 798.29 826.80   C 793.78 827.85 788.80 828.57 784.83 829.86   C 774.29 833.30 764.21 840.08 759.92 850.64   C 752.04 870.01 761.50 889.64 774.50 904.08   Q 782.67 913.16 792.54 920.30   Q 802.07 927.19 804.30 929.00   Q 814.71 937.45 822.51 944.03   Q 826.34 947.26 829.49 950.17   C 835.21 955.47 841.37 960.55 846.53 965.52   Q 859.16 977.69 871.43 992.03   Q 872.57 993.36 873.62 994.80   Q 874.64 996.18 875.63 997.28   Q 878.15 1000.07 878.84 1000.96   Q 895.29 1022.36 905.55 1042.41   Q 912.77 1056.51 917.05 1066.97   Q 923.95 1083.87 930.16 1104.15   Q 932.08 1110.45 939.79 1140.10   Q 943.73 1155.22 944.81 1160.20   Q 945.23 1162.09 946.63 1166.57   Q 948.57 1172.79 954.66 1174.17   C 959.22 1175.21 962.90 1170.29 963.87 1166.47   Q 966.13 1157.54 977.64 1112.89   C 980.89 1100.27 985.75 1086.18 989.39 1076.42   Q 1011.46 1017.36 1056.34 973.08   C 1074.22 955.43 1092.73 938.46 1113.23 923.52   Q 1124.81 915.08 1128.06 912.10   Q 1134.75 905.98 1140.63 898.15   C 1147.60 888.89 1153.41 877.11 1153.57 865.46   C 1153.80 849.37 1144.50 837.41 1129.97 831.58   Q 1121.44 828.16 1114.73 827.56   Q 1109.24 827.07 1093.04 826.99   C 1100.49 826.49 1107.93 826.45 1115.39 826.12   Q 1120.32 825.91 1125.70 827.35   C 1141.44 831.57 1152.57 841.91 1155.82 858.15   Q 1157.21 865.09 1155.12 874.89   C 1154.47 877.96 1152.72 881.74 1151.53 885.05   Q 1150.74 887.25 1149.78 888.95   Q 1145.40 896.76 1138.50 905.40   Q 1136.05 908.46 1134.25 909.96   Q 1131.95 911.87 1129.68 914.22   Q 1128.41 915.52 1125.65 917.68   C 1123.76 919.16 1121.39 921.33 1118.98 922.88   Q 1116.46 924.50 1116.32 924.60   C 1110.96 928.69 1106.40 931.80 1101.25 936.20   Q 1087.03 948.30 1086.25 948.98   Q 1065.69 967.04 1048.90 984.93   C 1045.58 988.47 1042.71 992.41 1039.54 995.44   C 1037.93 996.98 1036.98 998.98 1035.30 1000.65   Q 1034.40 1001.54 1033.66 1002.77   Q 1033.19 1003.55 1028.63 1009.26   Q 1025.45 1013.24 1015.70 1028.72   Q 1009.46 1038.62 1005.73 1046.07   Q 998.24 1061.01 993.56 1073.30   Q 990.90 1080.28 985.27 1096.88   Q 982.49 1105.06 979.64 1116.06   Q 971.50 1147.44 966.14 1168.37   Q 965.44 1171.11 962.14 1174.42   C 955.33 1181.27 945.42 1173.70 943.72 1166.45   Q 943.15 1164.03 941.73 1158.59   Q 939.98 1151.86 939.74 1150.82   Q 932.96 1121.62 924.05 1093.34   Q 922.73 1089.15 920.31 1082.69   Q 917.47 1075.10 916.55 1072.00   Q 916.07 1070.37 915.21 1069.27   Q 914.72 1068.64 914.38 1067.34   Q 914.17 1066.53 913.66 1065.36   Q 904.35 1043.88 891.58 1023.45   Q 887.44 1016.82 877.98 1004.33   Q 877.70 1003.96 877.66 1003.85   A 1.75 0.38 73.4 0 0 877.14 1002.90   Q 875.45 1001.32 873.88 999.14   Q 872.61 997.38 870.54 995.09   Q 867.36 991.56 858.58 981.88   Q 855.84 978.85 844.19 967.13   Q 841.85 964.78 839.23 962.67   Q 837.68 961.43 835.88 959.57   Q 834.03 957.69 832.43 956.44   Q 827.08 952.29 823.99 948.94   Q 822.57 947.39 821.22 946.40   Q 819.38 945.04 818.39 944.00   Q 817.45 943.01 814.43 940.79   C 812.63 939.47 811.02 937.71 809.32 936.41   Q 803.25 931.76 802.76 931.32   Q 800.08 928.96 796.58 926.62   Q 793.33 924.43 790.38 921.91   C 789.10 920.80 787.77 920.47 786.57 919.36   Q 785.47 918.35 780.52 914.20   Q 775.76 910.21 769.29 902.26   Q 762.86 894.36 758.72 885.14   C 755.24 877.35 754.05 869.40 754.56 861.00   Q 755.07 852.67 760.11 844.85   C 768.30 832.16 782.98 824.56 798.29 826.80   Z"></path>
  <path fill="#2e3192" d="   M 1093.04 826.99   Q 1109.24 827.07 1114.73 827.56   Q 1121.44 828.16 1129.97 831.58   C 1144.50 837.41 1153.80 849.37 1153.57 865.46   C 1153.41 877.11 1147.60 888.89 1140.63 898.15   Q 1134.75 905.98 1128.06 912.10   Q 1124.81 915.08 1113.23 923.52   C 1092.73 938.46 1074.22 955.43 1056.34 973.08   Q 1011.46 1017.36 989.39 1076.42   C 985.75 1086.18 980.89 1100.27 977.64 1112.89   Q 966.13 1157.54 963.87 1166.47   C 962.90 1170.29 959.22 1175.21 954.66 1174.17   Q 948.57 1172.79 946.63 1166.57   Q 945.23 1162.09 944.81 1160.20   Q 943.73 1155.22 939.79 1140.10   Q 932.08 1110.45 930.16 1104.15   Q 923.95 1083.87 917.05 1066.97   Q 912.77 1056.51 905.55 1042.41   Q 895.29 1022.36 878.84 1000.96   Q 878.15 1000.07 875.63 997.28   Q 874.64 996.18 873.62 994.80   Q 872.57 993.36 871.43 992.03   Q 859.16 977.69 846.53 965.52   C 841.37 960.55 835.21 955.47 829.49 950.17   Q 826.34 947.26 822.51 944.03   Q 814.71 937.45 804.30 929.00   Q 802.07 927.19 792.54 920.30   Q 782.67 913.16 774.50 904.08   C 761.50 889.64 752.04 870.01 759.92 850.64   C 764.21 840.08 774.29 833.30 784.83 829.86   C 788.80 828.57 793.78 827.85 798.29 826.80   L 1093.04 826.99   Z"></path>
  <path fill="#adabd7" d="   M 1708.26 1636.55   Q 1713.12 1635.17 1718.83 1635.18   A 0.63 0.63 0.0 0 0 1719.32 1634.14   Q 1719.18 1633.98 1718.19 1633.84   C 1753.05 1628.90 1785.11 1617.84 1814.13 1599.13   C 1863.64 1567.20 1893.88 1514.33 1902.26 1456.52   Q 1904.13 1443.58 1905.06 1428.53   Q 1905.66 1418.77 1904.97 1411.01   C 1903.79 1397.89 1902.37 1385.02 1899.87 1373.27   Q 1891.79 1335.29 1872.04 1301.91   C 1868.18 1295.38 1863.51 1289.19 1858.83 1283.14   C 1840.70 1259.70 1814.91 1244.29 1786.01 1237.22   Q 1770.36 1233.40 1749.88 1231.96   Q 1746.20 1231.70 1740.14 1232.07   Q 1735.03 1232.39 1730.38 1231.87   Q 1726.54 1231.44 1723.17 1232.02   Q 1702.44 1235.57 1686.15 1241.64   Q 1664.05 1249.89 1644.98 1263.96   C 1624.05 1279.40 1608.28 1300.22 1599.10 1324.60   Q 1595.23 1334.88 1593.65 1343.82   Q 1588.57 1372.54 1598.75 1399.79   Q 1603.44 1412.34 1609.68 1423.44   Q 1618.95 1439.93 1634.66 1450.32   Q 1652.43 1462.07 1675.61 1465.37   C 1691.27 1467.59 1709.44 1466.91 1724.68 1461.43   Q 1736.23 1457.28 1748.21 1446.70   Q 1751.98 1443.37 1756.78 1441.50   Q 1763.89 1438.73 1767.37 1444.44   C 1769.62 1448.14 1768.25 1454.05 1767.12 1458.25   Q 1767.06 1458.47 1766.70 1458.78   Q 1766.33 1459.10 1766.12 1459.54   Q 1762.89 1466.35 1761.58 1468.08   C 1741.32 1494.75 1710.63 1506.87 1677.61 1504.75   Q 1633.55 1501.92 1599.15 1475.03   C 1579.01 1459.29 1564.75 1437.01 1558.03 1412.37   Q 1549.58 1381.40 1551.23 1351.28   C 1553.03 1318.70 1564.57 1288.34 1584.07 1261.83   Q 1605.59 1232.57 1640.02 1221.30   C 1646.82 1219.08 1655.32 1218.99 1662.57 1217.86   Q 1666.13 1217.31 1667.64 1216.51   C 1672.09 1214.16 1671.86 1210.17 1671.15 1205.22   C 1662.51 1145.53 1645.31 1088.95 1616.14 1037.35   Q 1605.83 1019.13 1593.52 1002.78   Q 1581.64 987.03 1577.14 981.86   Q 1550.13 950.90 1518.82 928.71   Q 1460.90 887.67 1388.31 876.07   Q 1374.24 873.82 1365.59 873.22   C 1346.46 871.87 1325.01 871.60 1305.11 874.06   Q 1263.64 879.17 1227.16 891.97   Q 1155.77 917.01 1101.65 970.18   Q 1048.91 1021.98 1019.81 1090.48   Q 1010.62 1112.09 1003.95 1132.96   Q 1002.15 1138.61 998.25 1153.64   Q 996.59 1160.06 995.04 1168.42   C 991.59 1187.01 984.25 1206.76 967.87 1217.07   Q 955.95 1224.57 943.83 1217.91   C 931.76 1211.27 925.84 1200.61 920.78 1187.39   Q 918.06 1180.29 915.35 1167.35   Q 903.45 1110.57 876.44 1059.63   Q 846.56 1003.28 798.03 959.66   Q 792.07 954.30 782.61 946.90   Q 735.79 910.27 679.70 890.34   Q 664.85 885.07 649.21 881.37   Q 620.96 874.68 591.53 872.91   C 526.05 868.98 459.87 885.09 404.49 920.74   Q 378.27 937.61 356.35 958.35   Q 333.45 980.02 314.34 1007.07   Q 283.69 1050.47 265.53 1100.47   Q 262.18 1109.70 259.03 1119.07   Q 258.74 1119.93 254.07 1135.04   Q 251.42 1143.61 249.58 1151.12   Q 243.32 1176.62 239.70 1202.62   Q 238.74 1209.48 239.00 1211.42   Q 239.76 1217.18 246.85 1217.70   Q 262.54 1218.87 274.15 1222.65   C 292.48 1228.62 307.45 1240.35 320.47 1254.70   Q 322.91 1257.39 326.30 1261.94   Q 330.28 1267.26 331.68 1269.34   C 336.99 1277.23 341.98 1285.88 345.57 1294.89   Q 352.14 1311.38 354.02 1318.76   Q 356.36 1327.95 357.83 1337.33   Q 359.83 1350.11 358.52 1363.03   Q 358.81 1359.96 358.00 1357.04   Q 357.21 1354.22 357.06 1352.47   Q 356.83 1349.79 356.49 1347.82   Q 354.54 1336.52 353.91 1332.70   C 353.52 1330.31 352.32 1327.61 352.01 1325.30   Q 351.63 1322.41 351.08 1320.66   C 350.36 1318.40 350.19 1316.40 349.60 1314.48   Q 347.23 1306.87 344.96 1297.59   C 344.79 1296.88 344.16 1296.47 344.01 1295.98   C 343.20 1293.36 341.61 1291.73 340.27 1289.12   Q 334.02 1277.04 331.90 1274.08   Q 320.14 1257.64 313.11 1250.85   Q 310.37 1248.21 310.30 1248.11   Q 309.04 1246.44 307.59 1245.55   Q 306.95 1245.16 304.10 1242.54   Q 302.93 1241.46 301.40 1240.62   Q 300.19 1239.96 299.15 1238.41   Q 298.83 1237.93 298.26 1237.87   Q 296.55 1237.67 294.89 1236.06   Q 293.38 1234.61 291.64 1233.73   Q 290.08 1232.95 287.92 1231.59   C 287.22 1231.16 285.40 1230.50 284.58 1229.59   Q 284.24 1229.22 283.75 1229.11   Q 282.11 1228.74 279.88 1227.54   Q 278.49 1226.80 276.01 1225.95   Q 263.97 1221.78 250.22 1220.89   C 243.99 1220.49 239.24 1219.63 236.97 1213.87   Q 235.91 1211.18 236.56 1206.13   Q 237.02 1202.53 237.66 1198.34   Q 243.19 1161.74 253.55 1127.22   Q 253.63 1126.96 257.56 1114.35   Q 257.62 1114.15 257.83 1114.15   L 258.08 1114.15   Q 258.15 1114.15 258.14 1114.09   Q 257.99 1112.52 258.80 1110.28   Q 265.59 1091.41 271.70 1077.41   Q 273.66 1072.93 274.22 1070.73   Q 274.34 1070.25 274.65 1069.86   Q 275.80 1068.44 277.29 1065.32   Q 282.70 1053.95 289.18 1041.51   Q 290.62 1038.75 291.93 1036.92   C 293.42 1034.86 293.84 1032.85 295.40 1030.64   Q 296.06 1029.70 302.10 1020.13   Q 307.89 1010.97 317.15 998.44   Q 323.31 990.11 329.62 982.82   Q 352.81 956.01 380.35 934.47   C 380.76 934.15 381.07 933.53 381.50 933.25   Q 384.48 931.28 386.98 929.26   Q 389.68 927.07 392.45 925.24   Q 408.38 914.70 410.91 913.37   Q 415.76 910.83 418.09 909.46   Q 423.21 906.45 423.24 906.44   Q 461.76 885.60 505.30 876.60   C 571.18 862.98 642.12 869.86 703.41 896.70   C 738.25 911.96 770.27 931.70 798.73 956.77   Q 801.47 959.19 810.71 968.02   C 832.88 989.21 852.00 1013.59 868.17 1040.22   Q 877.93 1056.29 885.14 1071.17   Q 905.19 1112.60 916.12 1157.57   Q 916.13 1157.61 918.69 1170.03   Q 921.28 1182.60 926.55 1194.16   Q 929.01 1199.57 932.24 1203.44   Q 932.65 1203.94 932.83 1204.54   Q 932.96 1205.01 933.42 1205.22   Q 934.10 1205.51 934.10 1205.76   Q 934.09 1206.46 934.44 1206.64   Q 935.16 1207.01 939.29 1211.32   Q 940.94 1213.05 946.87 1216.36   Q 954.35 1220.54 962.00 1217.27   Q 970.43 1213.67 977.27 1205.00   Q 983.00 1197.72 987.78 1185.07   Q 989.97 1179.27 990.80 1174.52   C 990.97 1173.52 991.52 1172.70 991.62 1171.97   Q 992.93 1161.72 995.77 1151.79   Q 996.03 1150.90 996.39 1147.26   A 2.01 2.00 64.8 0 1 996.71 1146.36   Q 997.39 1145.36 998.08 1142.82   Q 1000.41 1134.23 1009.43 1107.94   Q 1009.52 1107.67 1009.81 1107.66   Q 1009.94 1107.65 1010.07 1107.70   Q 1010.15 1107.73 1010.14 1107.65   Q 1009.98 1106.29 1010.40 1105.03   Q 1010.53 1104.64 1010.90 1104.47   Q 1011.28 1104.30 1011.12 1103.68   Q 1010.99 1103.15 1011.39 1102.77   C 1012.09 1102.09 1012.01 1100.79 1012.52 1099.78   Q 1012.58 1099.67 1013.37 1098.26   Q 1013.81 1097.47 1014.07 1096.65   Q 1015.72 1091.58 1017.40 1088.96   Q 1018.56 1087.15 1018.46 1086.22   Q 1018.40 1085.70 1018.74 1085.31   Q 1019.63 1084.28 1020.24 1082.54   Q 1021.03 1080.24 1021.35 1079.60   Q 1023.09 1076.16 1024.64 1072.63   C 1025.06 1071.67 1026.18 1070.59 1026.31 1068.98   Q 1026.35 1068.47 1026.73 1068.11   C 1027.51 1067.36 1027.66 1065.60 1028.30 1064.49   Q 1029.39 1062.57 1029.83 1061.61   Q 1030.18 1060.81 1031.48 1059.13   Q 1031.91 1058.57 1033.05 1056.53   Q 1052.44 1021.71 1076.96 992.71   Q 1114.99 947.73 1164.64 917.95   Q 1176.87 910.61 1192.90 902.93   Q 1202.22 898.46 1211.23 894.92   Q 1248.61 880.27 1288.71 873.65   Q 1300.68 871.67 1311.53 870.72   Q 1320.06 869.98 1331.50 869.93   Q 1349.80 869.86 1355.98 870.14   Q 1358.64 870.26 1369.84 871.13   Q 1377.91 871.75 1383.64 872.62   Q 1411.54 876.85 1434.49 884.08   Q 1510.83 908.12 1566.93 966.91   Q 1586.99 987.92 1599.52 1006.54   C 1613.62 1027.46 1626.22 1049.06 1636.27 1071.96   Q 1642.43 1085.99 1644.26 1090.54   Q 1651.91 1109.58 1657.90 1130.58   Q 1668.48 1167.66 1674.13 1206.26   Q 1675.72 1217.10 1665.71 1220.13   Q 1663.58 1220.78 1651.21 1222.00   C 1646.76 1222.44 1642.36 1223.23 1638.51 1224.63   Q 1614.72 1233.29 1596.94 1250.98   Q 1593.70 1254.21 1589.78 1259.22   Q 1584.68 1265.73 1583.16 1267.92   Q 1581.94 1269.70 1581.50 1270.05   Q 1581.06 1270.41 1580.92 1270.83   C 1580.32 1272.61 1578.87 1274.30 1578.13 1275.52   Q 1553.18 1316.89 1553.66 1363.32   Q 1553.97 1393.16 1563.55 1421.04   C 1571.00 1442.76 1585.59 1461.56 1603.96 1475.19   Q 1644.35 1505.16 1695.03 1501.69   C 1702.77 1501.16 1712.64 1499.05 1720.98 1495.46   C 1724.23 1494.05 1726.77 1493.32 1729.37 1491.74   Q 1731.98 1490.16 1734.57 1488.80   Q 1737.69 1487.16 1739.67 1485.71   Q 1749.07 1478.81 1756.53 1469.75   Q 1761.28 1463.99 1764.26 1456.70   Q 1764.78 1455.42 1765.43 1451.59   Q 1766.03 1448.02 1765.44 1446.44   Q 1764.74 1444.55 1762.81 1443.39   Q 1761.44 1442.57 1759.17 1443.28   Q 1753.52 1445.05 1749.35 1448.92   Q 1744.57 1453.35 1744.51 1453.40   Q 1728.94 1465.47 1708.74 1468.14   Q 1675.39 1472.55 1646.25 1459.82   Q 1632.29 1453.72 1620.02 1441.98   Q 1617.88 1439.92 1616.45 1437.85   C 1615.11 1435.89 1613.17 1433.92 1611.89 1431.84   Q 1607.68 1425.04 1606.61 1423.34   Q 1603.50 1418.40 1601.81 1414.58   Q 1596.20 1401.93 1593.10 1389.62   Q 1588.26 1370.42 1589.98 1353.85   Q 1591.70 1337.34 1597.03 1322.00   Q 1598.02 1319.15 1599.90 1315.76   C 1600.22 1315.18 1600.09 1314.70 1600.38 1314.11   Q 1604.67 1305.35 1606.56 1302.30   Q 1628.32 1267.23 1664.88 1248.02   Q 1664.90 1248.00 1666.51 1247.40   C 1667.31 1247.10 1667.83 1246.50 1668.54 1246.15   Q 1693.28 1233.85 1720.26 1230.50   C 1723.80 1230.07 1726.55 1229.22 1728.39 1230.57   Q 1728.78 1230.85 1729.26 1230.85   L 1743.19 1230.85   A 0.74 0.74 0.0 0 0 1743.80 1230.53   L 1744.34 1229.72   Q 1744.67 1229.23 1745.25 1229.26   Q 1764.49 1230.08 1779.23 1232.77   Q 1820.51 1240.29 1850.30 1269.27   Q 1857.04 1275.82 1862.79 1282.69   Q 1868.08 1289.01 1872.96 1297.51   Q 1887.67 1323.14 1894.75 1343.75   Q 1904.66 1372.63 1906.88 1402.78   Q 1907.09 1405.69 1906.98 1414.26   C 1906.89 1421.33 1907.47 1430.07 1907.01 1437.51   Q 1903.20 1500.17 1868.44 1551.45   L 1867.53 1552.73   Q 1865.58 1555.45 1862.70 1558.70   Q 1862.49 1558.94 1861.88 1560.03   Q 1861.68 1560.40 1861.02 1560.91   Q 1860.63 1561.21 1860.39 1561.64   Q 1859.60 1563.08 1858.04 1564.80   Q 1852.99 1570.38 1850.83 1572.85   Q 1846.29 1578.05 1831.20 1590.69   Q 1821.05 1599.19 1807.34 1606.93   Q 1802.91 1609.44 1801.69 1610.12   Q 1787.11 1618.30 1770.93 1623.91   C 1769.25 1624.49 1767.84 1625.35 1766.46 1625.69   C 1762.28 1626.71 1756.75 1628.88 1752.45 1629.90   Q 1749.92 1630.51 1739.34 1633.02   Q 1732.95 1634.54 1718.75 1636.38   Q 1713.33 1637.08 1708.26 1636.55   Z"></path>
  <path fill="#2e3192" d="   M 1718.19 1633.84   C 1711.95 1634.78 1705.56 1635.96 1699.42 1635.94   Q 1689.05 1635.89 1678.67 1636.06   Q 1671.95 1636.16 1663.43 1635.05   Q 1651.23 1633.46 1646.15 1632.51   Q 1599.80 1623.84 1561.83 1594.60   Q 1533.71 1572.95 1513.28 1544.24   Q 1507.58 1536.23 1503.24 1529.28   Q 1494.37 1515.12 1486.80 1500.97   A 2.22 2.21 -28.4 0 0 1483.79 1500.08   Q 1456.50 1514.98 1426.26 1517.89   Q 1410.63 1519.40 1396.71 1520.63   Q 1394.22 1520.85 1376.76 1521.97   Q 1330.17 1524.95 1288.39 1541.70   C 1268.14 1549.82 1254.66 1565.02 1253.22 1587.32   Q 1252.26 1602.26 1255.17 1612.70   Q 1260.00 1630.05 1260.46 1631.43   C 1261.68 1635.01 1261.87 1642.64 1255.41 1640.17   Q 1246.81 1636.89 1240.82 1630.51   Q 1221.33 1609.75 1206.94 1585.01   C 1200.11 1573.27 1194.36 1560.12 1191.40 1546.51   Q 1189.55 1538.05 1189.59 1525.25   C 1189.65 1505.90 1196.80 1487.12 1209.01 1472.26   Q 1212.36 1468.19 1214.05 1466.29   C 1218.80 1460.97 1221.44 1454.95 1221.39 1447.79   Q 1221.37 1443.53 1219.58 1440.22   Q 1201.33 1406.34 1204.31 1368.68   Q 1205.51 1353.54 1209.52 1339.23   Q 1222.81 1291.70 1262.78 1264.56   Q 1271.01 1258.96 1280.24 1254.82   Q 1319.54 1237.20 1362.57 1241.97   C 1371.25 1242.93 1377.61 1244.62 1385.12 1247.45   Q 1388.11 1248.57 1387.89 1251.52   Q 1387.76 1253.22 1385.46 1254.65   Q 1380.11 1257.96 1376.48 1258.90   C 1356.28 1264.12 1340.00 1273.41 1332.72 1293.76   Q 1324.45 1316.88 1334.18 1339.42   Q 1341.82 1357.12 1358.19 1367.18   C 1370.02 1374.44 1383.96 1377.42 1398.32 1378.48   Q 1429.58 1380.80 1453.93 1364.80   C 1460.66 1360.38 1467.07 1354.47 1473.44 1348.44   C 1480.02 1342.21 1484.99 1335.42 1490.92 1327.02   Q 1512.68 1296.20 1522.24 1261.46   Q 1523.62 1256.48 1524.86 1247.12   C 1525.40 1243.05 1525.97 1239.24 1526.20 1235.10   Q 1526.72 1225.63 1526.44 1223.04   Q 1526.15 1220.30 1526.72 1216.12   Q 1527.19 1212.69 1526.84 1209.02   Q 1526.40 1204.42 1526.34 1202.99   Q 1526.22 1199.96 1525.91 1196.94   L 1525.48 1193.71   Q 1526.57 1189.76 1526.32 1186.75   Q 1525.32 1174.89 1522.04 1162.56   Q 1515.39 1137.48 1503.19 1114.77   Q 1498.37 1105.78 1492.71 1097.62   Q 1461.16 1052.12 1411.86 1028.12   Q 1404.47 1024.52 1396.40 1021.57   Q 1387.07 1018.15 1380.42 1016.16   Q 1369.01 1012.74 1354.67 1010.44   Q 1345.86 1009.02 1334.85 1008.88   Q 1314.73 1008.62 1304.85 1009.38   Q 1270.59 1011.99 1239.30 1026.08   Q 1220.72 1034.44 1206.72 1043.97   Q 1178.44 1063.23 1157.95 1089.44   C 1134.10 1119.94 1118.64 1158.13 1116.74 1197.24   Q 1116.03 1211.90 1116.77 1227.00   Q 1117.22 1236.08 1119.11 1247.58   Q 1120.09 1252.91 1121.06 1258.28   Q 1122.38 1265.61 1117.52 1270.76   C 1112.47 1276.11 1104.54 1278.82 1097.28 1280.92   A 1.40 1.39 64.0 0 0 1096.54 1283.08   C 1099.36 1286.98 1102.40 1289.74 1108.11 1295.58   C 1113.71 1301.31 1118.79 1307.33 1123.21 1312.74   Q 1138.34 1331.25 1144.88 1353.50   Q 1149.14 1368.02 1150.69 1380.84   Q 1152.83 1398.58 1152.95 1400.50   C 1154.75 1427.52 1151.76 1456.26 1142.46 1481.88   C 1122.51 1536.88 1080.04 1582.95 1025.91 1605.85   Q 1022.25 1607.40 1016.85 1609.27   Q 1010.16 1611.59 1007.68 1612.33   C 988.80 1617.95 969.95 1621.22 950.76 1620.48   Q 898.28 1618.46 853.67 1591.40   Q 844.83 1586.03 837.45 1580.18   Q 815.61 1562.87 799.27 1540.10   Q 791.92 1529.86 790.62 1527.63   C 786.68 1520.87 782.01 1513.12 778.74 1506.37   Q 765.27 1478.53 759.45 1448.63   C 758.90 1445.80 759.03 1442.73 758.62 1439.97   C 757.57 1433.02 757.51 1425.42 756.83 1419.30   Q 756.26 1414.10 756.95 1407.75   Q 757.07 1406.65 758.87 1387.54   Q 759.94 1376.15 763.69 1360.81   Q 770.55 1332.75 789.14 1310.62   Q 800.81 1296.73 812.10 1286.10   Q 813.99 1284.33 814.11 1284.13   C 815.15 1282.53 814.29 1280.75 812.45 1280.30   C 804.10 1278.25 794.85 1274.67 790.23 1267.47   C 787.66 1263.47 789.10 1259.52 789.98 1254.39   Q 792.57 1239.44 793.82 1224.02   Q 795.40 1204.58 791.98 1179.62   Q 791.40 1175.35 789.57 1167.36   Q 787.42 1157.93 786.55 1155.20   Q 777.46 1126.47 763.67 1105.86   Q 753.78 1091.08 750.68 1087.60   Q 748.42 1085.07 742.69 1078.11   C 733.10 1066.48 721.39 1056.60 708.03 1046.83   Q 688.99 1032.91 665.98 1023.79   Q 643.59 1014.92 619.16 1010.86   Q 609.37 1009.23 599.30 1008.86   Q 579.33 1008.12 562.47 1009.92   C 532.98 1013.05 505.18 1022.81 480.08 1038.07   Q 461.07 1049.63 443.76 1066.78   Q 420.47 1089.83 405.47 1117.75   Q 383.66 1158.36 382.81 1204.49   Q 382.76 1207.31 385.23 1207.65   Q 385.84 1207.99 386.01 1208.31   Q 386.27 1208.78 385.76 1208.94   Q 384.30 1209.38 383.25 1212.09   Q 382.19 1266.33 410.91 1312.74   L 420.25 1326.68   Q 430.59 1341.93 445.16 1355.32   C 471.79 1379.79 504.76 1384.39 538.69 1373.40   Q 550.14 1369.69 558.44 1362.75   Q 576.45 1347.69 580.37 1325.65   Q 581.04 1321.86 581.13 1316.85   Q 581.20 1313.08 581.08 1308.00   Q 581.03 1305.96 580.18 1304.16   C 579.77 1303.29 579.95 1302.66 579.79 1301.86   Q 577.86 1292.48 573.29 1284.80   Q 573.03 1284.37 573.00 1283.87   Q 572.93 1282.74 571.57 1282.44   Q 571.36 1282.39 571.33 1282.17   Q 571.30 1281.98 571.38 1281.93   Q 571.79 1281.71 571.50 1281.46   Q 571.41 1281.38 571.23 1281.40   Q 570.99 1281.42 570.85 1281.22   Q 567.81 1276.87 563.45 1273.20   Q 555.57 1266.56 545.99 1262.78   Q 543.17 1261.67 534.85 1259.39   Q 529.58 1257.95 522.98 1253.35   C 519.38 1250.83 524.21 1247.72 526.39 1246.86   C 545.25 1239.35 567.10 1240.07 587.25 1242.58   C 623.54 1247.09 657.65 1264.03 679.36 1293.75   Q 695.22 1315.47 701.65 1341.13   Q 705.06 1354.75 706.45 1370.52   Q 707.17 1378.61 706.57 1385.30   C 705.07 1402.26 701.95 1418.14 694.37 1433.37   Q 690.21 1441.74 689.65 1444.21   Q 687.99 1451.57 691.20 1458.29   Q 692.33 1460.64 698.37 1467.85   Q 706.88 1478.01 712.61 1489.58   Q 723.13 1510.83 721.03 1533.62   C 719.06 1555.02 709.71 1576.44 698.03 1594.29   Q 685.33 1613.70 669.32 1630.83   Q 662.59 1638.03 653.53 1640.59   Q 651.49 1641.17 650.15 1639.70   C 649.00 1638.43 649.46 1636.11 649.50 1634.44   C 650.61 1626.70 654.26 1618.71 655.84 1612.18   Q 656.97 1607.52 657.11 1602.08   C 657.28 1595.10 658.01 1587.72 656.37 1581.06   Q 654.91 1575.16 654.59 1574.19   Q 649.02 1557.21 633.85 1547.87   Q 625.64 1542.81 616.99 1539.90   Q 616.50 1539.73 616.41 1539.44   A 0.14 0.14 0.0 0 0 616.31 1539.34   L 597.84 1533.16   Q 597.17 1532.94 597.87 1532.86   Q 598.16 1532.83 598.39 1532.85   A 0.07 0.05 39.5 0 1 598.42 1532.96   Q 596.38 1532.83 592.63 1531.80   Q 572.19 1526.22 552.68 1523.81   Q 546.30 1523.02 532.82 1521.95   Q 496.92 1519.11 487.31 1518.28   Q 454.36 1515.44 425.65 1499.50   A 1.24 1.24 0.0 0 0 423.95 1500.02   C 408.40 1530.82 388.35 1558.85 362.92 1582.41   Q 319.43 1622.71 261.42 1632.90   Q 244.38 1635.90 231.02 1636.27   Q 222.10 1636.52 201.52 1634.96   C 196.18 1634.56 192.05 1633.74 185.83 1632.78   Q 144.75 1626.43 107.06 1605.73   Q 98.01 1600.75 84.29 1590.93   Q 81.51 1588.94 78.94 1586.63   Q 74.14 1582.31 73.67 1581.90   Q 68.93 1577.69 65.77 1574.45   Q 19.13 1526.55 8.46 1460.46   Q 6.79 1450.06 6.28 1446.40   C 5.80 1442.93 5.94 1440.02 5.41 1436.82   C 4.45 1430.92 4.94 1423.03 4.90 1418.38   Q 4.86 1412.52 5.42 1407.14   Q 7.47 1387.43 8.14 1383.82   Q 15.20 1345.56 33.65 1311.14   Q 42.08 1295.42 51.59 1283.35   Q 55.47 1278.43 62.51 1271.49   Q 82.08 1252.18 108.11 1242.56   Q 133.85 1233.05 159.17 1232.77   C 160.62 1232.76 161.55 1231.74 163.14 1231.88   Q 172.49 1232.67 176.24 1231.91   Q 179.01 1231.36 182.51 1231.73   Q 223.36 1236.04 258.03 1258.54   Q 272.97 1268.23 281.54 1277.80   Q 289.54 1286.73 291.90 1289.70   Q 316.26 1320.31 318.19 1359.44   Q 318.90 1373.86 314.33 1390.66   C 308.39 1412.52 296.46 1437.17 277.47 1449.20   Q 244.46 1470.10 204.50 1465.85   Q 179.47 1463.19 161.15 1445.88   Q 155.30 1440.36 147.74 1440.94   C 143.91 1441.23 142.09 1444.46 142.10 1448.24   Q 142.12 1455.85 146.15 1462.61   Q 149.30 1467.91 150.62 1469.63   Q 168.52 1492.83 196.50 1500.75   Q 209.91 1504.54 223.76 1505.12   Q 229.78 1505.37 238.79 1504.38   Q 246.43 1503.53 253.63 1502.09   C 283.00 1496.20 308.92 1480.73 328.50 1458.50   Q 341.58 1443.65 348.00 1425.50   Q 351.65 1415.15 352.87 1411.68   Q 353.40 1410.14 353.76 1408.20   Q 354.41 1404.64 354.42 1404.62   Q 355.75 1401.40 355.84 1399.41   Q 355.88 1398.68 357.84 1388.27   Q 359.25 1380.74 358.51 1367.69   L 358.52 1363.03   Q 359.83 1350.11 357.83 1337.33   Q 356.36 1327.95 354.02 1318.76   Q 352.14 1311.38 345.57 1294.89   C 341.98 1285.88 336.99 1277.23 331.68 1269.34   Q 330.28 1267.26 326.30 1261.94   Q 322.91 1257.39 320.47 1254.70   C 307.45 1240.35 292.48 1228.62 274.15 1222.65   Q 262.54 1218.87 246.85 1217.70   Q 239.76 1217.18 239.00 1211.42   Q 238.74 1209.48 239.70 1202.62   Q 243.32 1176.62 249.58 1151.12   Q 251.42 1143.61 254.07 1135.04   Q 258.74 1119.93 259.03 1119.07   Q 262.18 1109.70 265.53 1100.47   Q 283.69 1050.47 314.34 1007.07   Q 333.45 980.02 356.35 958.35   Q 378.27 937.61 404.49 920.74   C 459.87 885.09 526.05 868.98 591.53 872.91   Q 620.96 874.68 649.21 881.37   Q 664.85 885.07 679.70 890.34   Q 735.79 910.27 782.61 946.90   Q 792.07 954.30 798.03 959.66   Q 846.56 1003.28 876.44 1059.63   Q 903.45 1110.57 915.35 1167.35   Q 918.06 1180.29 920.78 1187.39   C 925.84 1200.61 931.76 1211.27 943.83 1217.91   Q 955.95 1224.57 967.87 1217.07   C 984.25 1206.76 991.59 1187.01 995.04 1168.42   Q 996.59 1160.06 998.25 1153.64   Q 1002.15 1138.61 1003.95 1132.96   Q 1010.62 1112.09 1019.81 1090.48   Q 1048.91 1021.98 1101.65 970.18   Q 1155.77 917.01 1227.16 891.97   Q 1263.64 879.17 1305.11 874.06   C 1325.01 871.60 1346.46 871.87 1365.59 873.22   Q 1374.24 873.82 1388.31 876.07   Q 1460.90 887.67 1518.82 928.71   Q 1550.13 950.90 1577.14 981.86   Q 1581.64 987.03 1593.52 1002.78   Q 1605.83 1019.13 1616.14 1037.35   C 1645.31 1088.95 1662.51 1145.53 1671.15 1205.22   C 1671.86 1210.17 1672.09 1214.16 1667.64 1216.51   Q 1666.13 1217.31 1662.57 1217.86   C 1655.32 1218.99 1646.82 1219.08 1640.02 1221.30   Q 1605.59 1232.57 1584.07 1261.83   C 1564.57 1288.34 1553.03 1318.70 1551.23 1351.28   Q 1549.58 1381.40 1558.03 1412.37   C 1564.75 1437.01 1579.01 1459.29 1599.15 1475.03   Q 1633.55 1501.92 1677.61 1504.75   C 1710.63 1506.87 1741.32 1494.75 1761.58 1468.08   Q 1762.89 1466.35 1766.12 1459.54   Q 1766.33 1459.10 1766.70 1458.78   Q 1767.06 1458.47 1767.12 1458.25   C 1768.25 1454.05 1769.62 1448.14 1767.37 1444.44   Q 1763.89 1438.73 1756.78 1441.50   Q 1751.98 1443.37 1748.21 1446.70   Q 1736.23 1457.28 1724.68 1461.43   C 1709.44 1466.91 1691.27 1467.59 1675.61 1465.37   Q 1652.43 1462.07 1634.66 1450.32   Q 1618.95 1439.93 1609.68 1423.44   Q 1603.44 1412.34 1598.75 1399.79   Q 1588.57 1372.54 1593.65 1343.82   Q 1595.23 1334.88 1599.10 1324.60   C 1608.28 1300.22 1624.05 1279.40 1644.98 1263.96   Q 1664.05 1249.89 1686.15 1241.64   Q 1702.44 1235.57 1723.17 1232.02   Q 1726.54 1231.44 1730.38 1231.87   Q 1735.03 1232.39 1740.14 1232.07   Q 1746.20 1231.70 1749.88 1231.96   Q 1770.36 1233.40 1786.01 1237.22   C 1814.91 1244.29 1840.70 1259.70 1858.83 1283.14   C 1863.51 1289.19 1868.18 1295.38 1872.04 1301.91   Q 1891.79 1335.29 1899.87 1373.27   C 1902.37 1385.02 1903.79 1397.89 1904.97 1411.01   Q 1905.66 1418.77 1905.06 1428.53   Q 1904.13 1443.58 1902.26 1456.52   C 1893.88 1514.33 1863.64 1567.20 1814.13 1599.13   C 1785.11 1617.84 1753.05 1628.90 1718.19 1633.84   Z   M 1025.44 1422.54   A 70.18 70.18 0.0 0 0 955.26 1352.36   A 70.18 70.18 0.0 0 0 885.08 1422.54   A 70.18 70.18 0.0 0 0 955.26 1492.72   A 70.18 70.18 0.0 0 0 1025.44 1422.54   Z"></path>
  <path fill="#adabd7" d="   M 1119.11 1247.58   L 1121.70 1245.06   Q 1122.85 1250.99 1123.65 1257.00   Q 1124.34 1262.09 1123.41 1266.01   C 1121.26 1275.04 1109.65 1280.20 1101.22 1282.41   A 1.05 1.05 0.0 0 0 1100.64 1284.04   Q 1101.89 1285.76 1103.69 1287.52   Q 1110.78 1294.44 1117.01 1301.05   Q 1138.24 1323.58 1147.33 1351.55   Q 1150.95 1362.68 1153.73 1381.90   Q 1154.86 1389.66 1155.19 1400.16   Q 1155.56 1411.57 1155.74 1418.51   C 1156.48 1447.11 1149.52 1475.07 1137.80 1501.04   Q 1135.98 1505.07 1132.87 1510.80   C 1128.82 1518.24 1127.17 1521.67 1123.55 1526.91   Q 1119.93 1532.15 1119.35 1533.31   C 1118.75 1534.52 1117.57 1535.17 1117.11 1536.29   Q 1116.82 1536.99 1116.36 1537.57   C 1114.16 1540.31 1111.26 1544.49 1108.07 1548.07   Q 1106.56 1549.76 1104.40 1552.40   Q 1103.20 1553.87 1094.83 1562.49   C 1091.50 1565.92 1088.03 1568.81 1083.19 1573.18   Q 1073.58 1581.88 1059.98 1591.48   C 1057.07 1593.54 1053.74 1595.38 1050.86 1597.13   Q 1050.14 1597.57 1047.55 1598.77   Q 1046.22 1599.39 1044.24 1600.47   Q 1015.68 1616.07 984.21 1620.55   C 973.33 1622.10 960.88 1621.10 950.42 1622.13   Q 941.50 1623.00 931.87 1621.84   Q 924.53 1620.94 922.68 1620.62   Q 905.25 1617.52 893.76 1613.32   Q 888.12 1611.26 886.19 1610.51   Q 868.52 1603.56 862.99 1600.34   Q 858.80 1597.89 853.87 1595.24   Q 852.92 1594.74 851.12 1593.23   Q 850.03 1592.31 849.09 1591.90   Q 847.65 1591.27 846.84 1590.66   C 844.27 1588.69 841.29 1587.16 838.52 1584.84   Q 836.50 1583.14 828.97 1576.99   Q 823.43 1572.47 819.66 1568.65   Q 804.97 1553.79 794.80 1538.98   Q 793.82 1537.55 789.06 1530.48   Q 784.27 1523.37 780.81 1516.65   Q 778.69 1512.53 773.72 1502.10   Q 766.37 1486.68 760.49 1464.78   Q 754.41 1442.13 754.91 1424.62   C 755.05 1419.97 756.08 1414.81 755.56 1410.33   Q 754.66 1402.61 755.17 1396.03   Q 756.32 1381.24 759.65 1365.49   Q 763.89 1345.43 773.43 1327.93   Q 778.10 1319.36 784.16 1312.15   Q 795.89 1298.18 809.70 1284.09   A 0.88 0.88 0.0 0 0 809.36 1282.65   C 800.42 1279.54 788.80 1275.18 786.17 1264.74   Q 785.41 1261.69 786.80 1255.34   Q 787.20 1253.50 788.68 1245.80   Q 789.60 1241.01 790.09 1236.19   Q 791.61 1221.34 791.68 1216.75   Q 791.99 1196.15 788.35 1176.38   Q 787.16 1169.92 787.12 1169.20   C 787.02 1167.38 785.97 1165.46 786.14 1164.06   Q 786.21 1163.53 785.83 1163.14   Q 784.93 1162.24 785.15 1160.43   Q 785.21 1159.93 784.89 1159.54   Q 784.15 1158.64 784.25 1157.46   Q 784.32 1156.62 783.60 1155.31   C 782.42 1153.18 781.57 1148.54 780.72 1146.20   Q 771.14 1119.99 753.51 1096.20   Q 749.51 1090.80 747.51 1088.40   Q 744.04 1084.23 743.31 1083.27   Q 741.91 1081.42 739.36 1078.85   Q 736.76 1076.21 735.91 1075.14   Q 733.59 1072.17 730.84 1070.01   Q 728.05 1067.82 725.72 1065.52   Q 716.28 1056.19 709.45 1051.71   Q 709.42 1051.70 707.57 1050.07   C 706.38 1049.02 705.27 1048.83 704.39 1048.02   Q 703.13 1046.87 700.61 1045.45   Q 699.07 1044.59 696.99 1043.00   Q 694.93 1041.42 693.07 1040.67   Q 691.41 1039.99 690.78 1039.31   C 689.78 1038.23 688.66 1038.34 687.41 1037.51   Q 684.82 1035.79 682.12 1034.50   Q 674.67 1030.95 665.54 1026.93   Q 661.07 1024.96 655.80 1023.31   Q 649.86 1021.44 649.76 1021.41   Q 622.86 1013.14 601.81 1011.40   Q 594.78 1010.82 580.41 1011.49   Q 577.41 1011.63 574.74 1011.27   Q 572.76 1011.00 568.97 1011.13   C 568.19 1011.16 567.83 1011.61 567.20 1011.70   Q 542.87 1014.96 526.22 1020.36   Q 506.05 1026.91 491.18 1035.19   Q 480.14 1041.35 467.39 1050.62   Q 450.68 1062.78 437.52 1077.52   Q 434.94 1080.41 424.40 1093.63   Q 423.67 1094.55 423.42 1095.11   Q 423.21 1095.56 422.85 1095.89   C 421.11 1097.42 420.12 1099.84 419.19 1101.20   Q 399.75 1129.35 391.48 1161.24   Q 387.66 1176.00 385.74 1193.25   Q 385.28 1197.42 385.23 1207.65   Q 382.76 1207.31 382.81 1204.49   Q 383.66 1158.36 405.47 1117.75   Q 420.47 1089.83 443.76 1066.78   Q 461.07 1049.63 480.08 1038.07   C 505.18 1022.81 532.98 1013.05 562.47 1009.92   Q 579.33 1008.12 599.30 1008.86   Q 609.37 1009.23 619.16 1010.86   Q 643.59 1014.92 665.98 1023.79   Q 688.99 1032.91 708.03 1046.83   C 721.39 1056.60 733.10 1066.48 742.69 1078.11   Q 748.42 1085.07 750.68 1087.60   Q 753.78 1091.08 763.67 1105.86   Q 777.46 1126.47 786.55 1155.20   Q 787.42 1157.93 789.57 1167.36   Q 791.40 1175.35 791.98 1179.62   Q 795.40 1204.58 793.82 1224.02   Q 792.57 1239.44 789.98 1254.39   C 789.10 1259.52 787.66 1263.47 790.23 1267.47   C 794.85 1274.67 804.10 1278.25 812.45 1280.30   C 814.29 1280.75 815.15 1282.53 814.11 1284.13   Q 813.99 1284.33 812.10 1286.10   Q 800.81 1296.73 789.14 1310.62   Q 770.55 1332.75 763.69 1360.81   Q 759.94 1376.15 758.87 1387.54   Q 757.07 1406.65 756.95 1407.75   Q 756.26 1414.10 756.83 1419.30   C 757.51 1425.42 757.57 1433.02 758.62 1439.97   C 759.03 1442.73 758.90 1445.80 759.45 1448.63   Q 765.27 1478.53 778.74 1506.37   C 782.01 1513.12 786.68 1520.87 790.62 1527.63   Q 791.92 1529.86 799.27 1540.10   Q 815.61 1562.87 837.45 1580.18   Q 844.83 1586.03 853.67 1591.40   Q 898.28 1618.46 950.76 1620.48   C 969.95 1621.22 988.80 1617.95 1007.68 1612.33   Q 1010.16 1611.59 1016.85 1609.27   Q 1022.25 1607.40 1025.91 1605.85   C 1080.04 1582.95 1122.51 1536.88 1142.46 1481.88   C 1151.76 1456.26 1154.75 1427.52 1152.95 1400.50   Q 1152.83 1398.58 1150.69 1380.84   Q 1149.14 1368.02 1144.88 1353.50   Q 1138.34 1331.25 1123.21 1312.74   C 1118.79 1307.33 1113.71 1301.31 1108.11 1295.58   C 1102.40 1289.74 1099.36 1286.98 1096.54 1283.08   A 1.40 1.39 64.0 0 1 1097.28 1280.92   C 1104.54 1278.82 1112.47 1276.11 1117.52 1270.76   Q 1122.38 1265.61 1121.06 1258.28   Q 1120.09 1252.91 1119.11 1247.58   Z"></path>
  <path fill="#adabd7" d="   M 1525.48 1193.71   Q 1524.77 1191.82 1524.15 1187.49   Q 1522.46 1175.59 1518.36 1159.46   Q 1515.59 1148.55 1512.24 1140.51   Q 1508.04 1130.41 1502.44 1119.56   Q 1499.09 1113.07 1490.60 1100.58   Q 1489.76 1099.34 1487.43 1095.43   Q 1485.84 1092.76 1483.93 1090.50   Q 1481.72 1087.87 1480.82 1086.41   Q 1479.47 1084.20 1477.62 1082.31   Q 1469.59 1074.08 1466.40 1070.36   Q 1464.14 1067.74 1462.31 1066.32   Q 1458.10 1063.05 1451.08 1056.58   Q 1445.98 1051.88 1429.71 1041.51   Q 1426.95 1039.75 1418.00 1034.67   Q 1412.47 1031.52 1410.23 1030.69   Q 1407.09 1029.51 1402.24 1027.28   Q 1389.82 1021.59 1374.21 1017.65   Q 1373.41 1017.45 1371.08 1016.59   Q 1369.45 1015.98 1367.88 1015.78   Q 1365.81 1015.50 1364.10 1015.09   Q 1361.95 1014.57 1360.36 1014.33   Q 1347.96 1012.44 1336.01 1011.04   C 1332.85 1010.67 1329.37 1011.19 1326.39 1010.99   Q 1321.45 1010.67 1319.75 1010.88   C 1315.67 1011.38 1311.71 1010.60 1308.11 1011.35   C 1302.31 1012.55 1294.48 1012.89 1288.09 1014.29   Q 1283.58 1015.28 1278.75 1016.22   Q 1278.55 1016.26 1277.67 1016.49   Q 1277.30 1016.59 1266.73 1019.38   Q 1260.50 1021.03 1255.89 1022.67   Q 1241.55 1027.78 1227.45 1034.95   Q 1226.39 1035.49 1222.25 1037.87   Q 1217.23 1040.76 1217.09 1040.84   Q 1208.23 1045.67 1192.30 1058.32   Q 1174.48 1072.48 1157.76 1094.77   Q 1155.85 1097.32 1150.47 1105.31   Q 1146.21 1111.63 1143.70 1116.20   C 1125.66 1149.04 1116.51 1185.19 1119.10 1222.75   Q 1119.56 1229.56 1121.70 1245.06   L 1119.11 1247.58   Q 1117.22 1236.08 1116.77 1227.00   Q 1116.03 1211.90 1116.74 1197.24   C 1118.64 1158.13 1134.10 1119.94 1157.95 1089.44   Q 1178.44 1063.23 1206.72 1043.97   Q 1220.72 1034.44 1239.30 1026.08   Q 1270.59 1011.99 1304.85 1009.38   Q 1314.73 1008.62 1334.85 1008.88   Q 1345.86 1009.02 1354.67 1010.44   Q 1369.01 1012.74 1380.42 1016.16   Q 1387.07 1018.15 1396.40 1021.57   Q 1404.47 1024.52 1411.86 1028.12   Q 1461.16 1052.12 1492.71 1097.62   Q 1498.37 1105.78 1503.19 1114.77   Q 1515.39 1137.48 1522.04 1162.56   Q 1525.32 1174.89 1526.32 1186.75   Q 1526.57 1189.76 1525.48 1193.71   Z"></path>
  <path fill="#adabd7" d="   M 1718.19 1633.84   Q 1719.18 1633.98 1719.32 1634.14   A 0.63 0.63 0.0 0 1 1718.83 1635.18   Q 1713.12 1635.17 1708.26 1636.55   Q 1706.01 1636.46 1703.67 1636.87   Q 1700.53 1637.41 1699.16 1637.45   Q 1681.95 1637.94 1665.60 1637.47   Q 1655.37 1637.17 1645.73 1635.40   Q 1616.06 1629.93 1589.24 1615.65   Q 1554.78 1597.30 1528.83 1567.92   Q 1514.79 1552.02 1506.75 1539.77   Q 1502.95 1533.98 1500.15 1530.07   Q 1498.95 1528.38 1497.39 1525.68   Q 1496.88 1524.78 1494.88 1521.68   Q 1492.78 1518.43 1485.40 1504.93   Q 1484.78 1503.80 1483.36 1503.75   Q 1482.51 1503.73 1481.43 1504.57   Q 1480.37 1505.40 1479.50 1505.79   Q 1468.49 1510.80 1463.16 1512.64   Q 1459.75 1513.82 1448.36 1517.19   C 1445.71 1517.97 1442.92 1518.35 1440.06 1518.96   C 1439.11 1519.17 1437.66 1518.92 1436.49 1519.39   Q 1435.63 1519.73 1435.11 1519.77   Q 1431.29 1520.06 1426.01 1520.99   Q 1423.01 1521.52 1420.00 1521.11   Q 1419.75 1521.07 1419.27 1521.32   Q 1418.95 1521.48 1418.56 1521.52   Q 1405.26 1522.94 1389.34 1523.80   C 1378.91 1524.37 1367.96 1525.13 1357.19 1526.87   Q 1333.25 1530.73 1328.10 1532.25   Q 1325.14 1533.12 1315.46 1535.68   Q 1303.77 1538.77 1290.77 1543.76   Q 1277.32 1548.93 1269.73 1556.85   Q 1267.35 1559.33 1265.13 1562.46   Q 1262.03 1566.82 1261.19 1568.53   C 1254.35 1582.51 1254.66 1599.44 1258.67 1614.20   Q 1263.17 1630.80 1264.05 1634.00   Q 1264.39 1635.20 1263.42 1638.40   C 1262.05 1642.96 1258.99 1644.75 1254.27 1642.90   Q 1245.06 1639.30 1238.80 1632.74   Q 1232.78 1626.45 1226.39 1618.40   Q 1223.87 1615.23 1218.31 1607.88   Q 1214.69 1603.11 1210.83 1596.97   Q 1204.27 1586.57 1203.47 1585.06   Q 1193.91 1567.06 1188.68 1547.90   Q 1188.03 1545.55 1187.90 1542.45   Q 1187.88 1541.98 1187.65 1541.64   Q 1187.62 1541.60 1187.34 1541.30   Q 1187.05 1540.99 1186.99 1540.57   Q 1185.11 1527.14 1187.35 1513.61   Q 1191.37 1489.35 1206.93 1470.42   Q 1211.93 1464.34 1212.64 1463.44   Q 1218.70 1455.78 1217.91 1445.80   Q 1217.69 1442.97 1216.63 1440.99   Q 1207.40 1423.60 1203.65 1404.70   Q 1202.85 1400.68 1202.01 1390.13   Q 1201.26 1380.68 1201.30 1375.43   Q 1201.71 1331.53 1227.09 1295.09   C 1230.92 1289.58 1234.73 1285.48 1238.72 1280.76   Q 1243.62 1274.96 1250.56 1269.04   Q 1255.41 1264.92 1256.77 1264.03   Q 1265.19 1258.54 1267.79 1257.04   C 1269.28 1256.17 1271.40 1256.02 1273.07 1254.96   Q 1274.68 1253.94 1275.04 1253.76   Q 1296.10 1243.82 1315.31 1240.93   Q 1338.07 1237.50 1366.72 1239.83   Q 1372.78 1240.33 1377.52 1241.67   Q 1384.53 1243.66 1387.58 1245.55   Q 1392.82 1248.80 1390.23 1254.41   Q 1389.81 1255.34 1389.02 1255.83   C 1388.15 1256.36 1387.71 1256.94 1386.97 1257.34   Q 1380.92 1260.59 1376.39 1261.89   Q 1372.01 1263.15 1366.32 1265.03   Q 1352.56 1269.58 1343.59 1280.56   C 1331.51 1295.35 1328.70 1316.42 1335.36 1334.54   Q 1337.41 1340.13 1340.98 1346.33   C 1348.03 1358.56 1360.35 1366.85 1373.72 1371.06   Q 1383.20 1374.04 1395.47 1375.37   C 1413.42 1377.30 1431.88 1374.49 1447.53 1365.25   Q 1457.08 1359.61 1463.16 1353.87   Q 1468.59 1348.75 1470.68 1346.91   Q 1474.29 1343.75 1477.81 1339.60   Q 1490.09 1325.14 1502.33 1302.99   Q 1507.49 1293.63 1509.40 1288.18   C 1509.61 1287.59 1510.02 1287.30 1510.24 1286.79   Q 1514.86 1276.21 1518.04 1265.18   Q 1518.93 1262.07 1519.59 1257.91   C 1520.15 1254.31 1521.43 1251.36 1521.81 1248.18   C 1522.32 1243.95 1523.37 1238.07 1523.88 1232.58   Q 1524.98 1220.62 1525.66 1218.08   C 1526.60 1214.60 1526.59 1210.94 1526.02 1206.65   C 1525.57 1203.25 1525.87 1200.27 1525.91 1196.94   Q 1526.22 1199.96 1526.34 1202.99   Q 1526.40 1204.42 1526.84 1209.02   Q 1527.19 1212.69 1526.72 1216.12   Q 1526.15 1220.30 1526.44 1223.04   Q 1526.72 1225.63 1526.20 1235.10   C 1525.97 1239.24 1525.40 1243.05 1524.86 1247.12   Q 1523.62 1256.48 1522.24 1261.46   Q 1512.68 1296.20 1490.92 1327.02   C 1484.99 1335.42 1480.02 1342.21 1473.44 1348.44   C 1467.07 1354.47 1460.66 1360.38 1453.93 1364.80   Q 1429.58 1380.80 1398.32 1378.48   C 1383.96 1377.42 1370.02 1374.44 1358.19 1367.18   Q 1341.82 1357.12 1334.18 1339.42   Q 1324.45 1316.88 1332.72 1293.76   C 1340.00 1273.41 1356.28 1264.12 1376.48 1258.90   Q 1380.11 1257.96 1385.46 1254.65   Q 1387.76 1253.22 1387.89 1251.52   Q 1388.11 1248.57 1385.12 1247.45   C 1377.61 1244.62 1371.25 1242.93 1362.57 1241.97   Q 1319.54 1237.20 1280.24 1254.82   Q 1271.01 1258.96 1262.78 1264.56   Q 1222.81 1291.70 1209.52 1339.23   Q 1205.51 1353.54 1204.31 1368.68   Q 1201.33 1406.34 1219.58 1440.22   Q 1221.37 1443.53 1221.39 1447.79   C 1221.44 1454.95 1218.80 1460.97 1214.05 1466.29   Q 1212.36 1468.19 1209.01 1472.26   C 1196.80 1487.12 1189.65 1505.90 1189.59 1525.25   Q 1189.55 1538.05 1191.40 1546.51   C 1194.36 1560.12 1200.11 1573.27 1206.94 1585.01   Q 1221.33 1609.75 1240.82 1630.51   Q 1246.81 1636.89 1255.41 1640.17   C 1261.87 1642.64 1261.68 1635.01 1260.46 1631.43   Q 1260.00 1630.05 1255.17 1612.70   Q 1252.26 1602.26 1253.22 1587.32   C 1254.66 1565.02 1268.14 1549.82 1288.39 1541.70   Q 1330.17 1524.95 1376.76 1521.97   Q 1394.22 1520.85 1396.71 1520.63   Q 1410.63 1519.40 1426.26 1517.89   Q 1456.50 1514.98 1483.79 1500.08   A 2.22 2.21 -28.4 0 1 1486.80 1500.97   Q 1494.37 1515.12 1503.24 1529.28   Q 1507.58 1536.23 1513.28 1544.24   Q 1533.71 1572.95 1561.83 1594.60   Q 1599.80 1623.84 1646.15 1632.51   Q 1651.23 1633.46 1663.43 1635.05   Q 1671.95 1636.16 1678.67 1636.06   Q 1689.05 1635.89 1699.42 1635.94   C 1705.56 1635.96 1711.95 1634.78 1718.19 1633.84   Z"></path>
  <path fill="#adabd7" d="   M 383.25 1212.09   Q 384.81 1212.10 385.54 1212.56   Q 385.98 1212.84 385.98 1213.36   Q 385.50 1246.53 396.87 1277.44   Q 402.80 1293.53 412.80 1310.95   C 420.32 1324.02 429.98 1335.50 440.06 1346.32   C 446.20 1352.91 452.66 1358.80 460.29 1363.37   Q 492.51 1382.68 529.75 1372.90   Q 546.18 1368.58 561.26 1357.51   Q 562.92 1356.29 566.78 1351.02   Q 569.24 1347.67 573.65 1338.14   Q 574.23 1336.88 574.17 1336.01   C 574.09 1334.83 575.03 1334.23 575.33 1333.12   Q 577.88 1323.70 578.11 1322.32   Q 579.32 1315.12 577.42 1302.86   Q 577.21 1301.48 576.25 1298.81   Q 575.67 1297.19 575.16 1294.70   Q 575.10 1294.39 574.79 1294.32   Q 574.75 1294.31 574.52 1294.27   Q 574.43 1294.26 574.42 1294.16   Q 574.36 1293.38 574.14 1292.35   C 573.85 1290.99 572.21 1289.66 572.11 1288.45   A 1.09 0.72 -85.4 0 0 571.64 1287.60   Q 570.90 1287.27 570.52 1286.02   C 570.08 1284.60 568.75 1283.43 567.69 1281.93   Q 566.63 1280.41 565.80 1279.55   Q 559.41 1272.90 551.00 1268.38   Q 548.80 1267.20 543.98 1265.35   Q 540.97 1264.19 536.66 1263.09   Q 528.50 1261.01 521.66 1256.23   C 516.23 1252.43 519.13 1247.62 523.98 1244.98   C 531.16 1241.06 540.62 1239.60 548.73 1238.91   Q 553.56 1238.50 571.29 1238.82   Q 583.77 1239.04 591.24 1240.15   Q 616.76 1243.96 639.39 1255.68   C 655.51 1264.04 670.06 1277.06 681.29 1291.19   Q 686.91 1298.27 692.61 1309.39   Q 705.36 1334.25 708.46 1362.44   C 709.37 1370.72 708.96 1377.30 708.88 1387.74   Q 708.82 1394.29 706.51 1406.50   Q 703.59 1421.90 696.40 1435.67   Q 692.94 1442.29 692.41 1445.07   C 690.11 1457.06 698.52 1463.00 705.18 1471.81   Q 718.92 1490.01 722.94 1511.32   C 727.01 1532.93 720.99 1557.38 711.25 1576.79   Q 703.44 1592.37 698.31 1599.59   Q 698.07 1599.93 692.06 1608.34   Q 688.56 1613.26 685.57 1616.89   Q 682.16 1621.02 672.53 1631.52   C 667.57 1636.93 662.18 1640.92 655.46 1643.21   Q 653.64 1643.84 650.72 1643.24   Q 647.86 1642.66 648.54 1641.06   Q 648.79 1640.46 648.15 1640.32   Q 646.41 1639.93 646.58 1637.24   Q 647.12 1628.61 650.54 1620.46   Q 650.52 1626.48 649.14 1631.67   C 648.51 1634.03 648.52 1636.05 648.53 1638.36   Q 648.53 1638.37 648.68 1638.51   L 648.69 1638.52   Q 648.82 1638.64 648.85 1638.38   Q 649.09 1636.40 649.50 1634.44   C 649.46 1636.11 649.00 1638.43 650.15 1639.70   Q 651.49 1641.17 653.53 1640.59   Q 662.59 1638.03 669.32 1630.83   Q 685.33 1613.70 698.03 1594.29   C 709.71 1576.44 719.06 1555.02 721.03 1533.62   Q 723.13 1510.83 712.61 1489.58   Q 706.88 1478.01 698.37 1467.85   Q 692.33 1460.64 691.20 1458.29   Q 687.99 1451.57 689.65 1444.21   Q 690.21 1441.74 694.37 1433.37   C 701.95 1418.14 705.07 1402.26 706.57 1385.30   Q 707.17 1378.61 706.45 1370.52   Q 705.06 1354.75 701.65 1341.13   Q 695.22 1315.47 679.36 1293.75   C 657.65 1264.03 623.54 1247.09 587.25 1242.58   C 567.10 1240.07 545.25 1239.35 526.39 1246.86   C 524.21 1247.72 519.38 1250.83 522.98 1253.35   Q 529.58 1257.95 534.85 1259.39   Q 543.17 1261.67 545.99 1262.78   Q 555.57 1266.56 563.45 1273.20   Q 567.81 1276.87 570.85 1281.22   Q 570.99 1281.42 571.23 1281.40   Q 571.41 1281.38 571.50 1281.46   Q 571.79 1281.71 571.38 1281.93   Q 571.30 1281.98 571.33 1282.17   Q 571.36 1282.39 571.57 1282.44   Q 572.93 1282.74 573.00 1283.87   Q 573.03 1284.37 573.29 1284.80   Q 577.86 1292.48 579.79 1301.86   C 579.95 1302.66 579.77 1303.29 580.18 1304.16   Q 581.03 1305.96 581.08 1308.00   Q 581.20 1313.08 581.13 1316.85   Q 581.04 1321.86 580.37 1325.65   Q 576.45 1347.69 558.44 1362.75   Q 550.14 1369.69 538.69 1373.40   C 504.76 1384.39 471.79 1379.79 445.16 1355.32   Q 430.59 1341.93 420.25 1326.68   L 421.26 1327.13   Q 422.17 1327.53 421.62 1326.70   L 411.31 1311.30   Q 410.78 1310.52 410.84 1311.46   L 410.91 1312.74   Q 382.19 1266.33 383.25 1212.09   Z"></path>
  <path fill="#adabd7" d="   M 358.51 1367.69   Q 359.25 1380.74 357.84 1388.27   Q 355.88 1398.68 355.84 1399.41   Q 355.75 1401.40 354.42 1404.62   Q 354.41 1404.64 353.76 1408.20   Q 353.40 1410.14 352.87 1411.68   Q 351.65 1415.15 348.00 1425.50   Q 341.58 1443.65 328.50 1458.50   C 308.92 1480.73 283.00 1496.20 253.63 1502.09   Q 246.43 1503.53 238.79 1504.38   Q 229.78 1505.37 223.76 1505.12   Q 209.91 1504.54 196.50 1500.75   Q 168.52 1492.83 150.62 1469.63   Q 149.30 1467.91 146.15 1462.61   Q 142.12 1455.85 142.10 1448.24   C 142.09 1444.46 143.91 1441.23 147.74 1440.94   Q 155.30 1440.36 161.15 1445.88   Q 179.47 1463.19 204.50 1465.85   Q 244.46 1470.10 277.47 1449.20   C 296.46 1437.17 308.39 1412.52 314.33 1390.66   Q 318.90 1373.86 318.19 1359.44   Q 316.26 1320.31 291.90 1289.70   Q 289.54 1286.73 281.54 1277.80   Q 272.97 1268.23 258.03 1258.54   Q 223.36 1236.04 182.51 1231.73   Q 179.01 1231.36 176.24 1231.91   Q 172.49 1232.67 163.14 1231.88   C 161.55 1231.74 160.62 1232.76 159.17 1232.77   Q 133.85 1233.05 108.11 1242.56   Q 82.08 1252.18 62.51 1271.49   Q 55.47 1278.43 51.59 1283.35   Q 42.08 1295.42 33.65 1311.14   Q 15.20 1345.56 8.14 1383.82   Q 7.47 1387.43 5.42 1407.14   Q 4.86 1412.52 4.90 1418.38   C 4.94 1423.03 4.45 1430.92 5.41 1436.82   C 5.94 1440.02 5.80 1442.93 6.28 1446.40   Q 6.79 1450.06 8.46 1460.46   Q 19.13 1526.55 65.77 1574.45   Q 68.93 1577.69 73.67 1581.90   Q 74.14 1582.31 78.94 1586.63   Q 81.51 1588.94 84.29 1590.93   Q 98.01 1600.75 107.06 1605.73   Q 144.75 1626.43 185.83 1632.78   C 192.05 1633.74 196.18 1634.56 201.52 1634.96   Q 222.10 1636.52 231.02 1636.27   Q 244.38 1635.90 261.42 1632.90   Q 319.43 1622.71 362.92 1582.41   C 388.35 1558.85 408.40 1530.82 423.95 1500.02   A 1.24 1.24 0.0 0 1 425.65 1499.50   Q 454.36 1515.44 487.31 1518.28   Q 496.92 1519.11 532.82 1521.95   Q 546.30 1523.02 552.68 1523.81   Q 572.19 1526.22 592.63 1531.80   Q 596.38 1532.83 598.42 1532.96   A 0.07 0.05 39.5 0 0 598.39 1532.85   Q 598.16 1532.83 597.87 1532.86   Q 597.17 1532.94 597.84 1533.16   L 616.31 1539.34   A 0.14 0.14 0.0 0 1 616.41 1539.44   Q 616.50 1539.73 616.99 1539.90   Q 625.64 1542.81 633.85 1547.87   Q 649.02 1557.21 654.59 1574.19   Q 654.91 1575.16 656.37 1581.06   C 658.01 1587.72 657.28 1595.10 657.11 1602.08   Q 656.97 1607.52 655.84 1612.18   C 654.26 1618.71 650.61 1626.70 649.50 1634.44   Q 649.09 1636.40 648.85 1638.38   Q 648.82 1638.64 648.69 1638.52   L 648.68 1638.51   Q 648.53 1638.37 648.53 1638.36   C 648.52 1636.05 648.51 1634.03 649.14 1631.67   Q 650.52 1626.48 650.54 1620.46   Q 650.80 1618.00 651.99 1614.75   Q 653.26 1611.29 653.56 1609.12   C 654.57 1601.77 653.74 1592.02 653.68 1586.98   Q 653.61 1581.56 651.99 1576.18   Q 649.52 1568.02 644.91 1561.43   C 642.78 1558.37 640.23 1556.77 637.67 1554.28   C 634.95 1551.65 631.95 1550.24 628.66 1548.26   C 625.47 1546.35 620.85 1544.99 618.36 1543.41   Q 617.40 1542.80 616.56 1542.83   C 616.09 1542.84 614.86 1542.13 614.09 1541.88   Q 607.47 1539.70 600.86 1537.51   Q 593.85 1535.19 587.54 1533.54   Q 579.83 1531.52 567.55 1529.20   Q 564.96 1528.72 563.58 1528.46   Q 560.51 1527.89 559.62 1527.77   Q 551.49 1526.76 551.12 1526.66   Q 548.57 1525.97 546.72 1525.87   C 540.97 1525.56 534.94 1524.49 529.04 1524.20   Q 509.07 1523.21 485.85 1521.21   C 480.64 1520.76 475.26 1519.82 470.26 1519.09   Q 469.29 1518.95 469.17 1518.62   A 0.21 0.20 -4.6 0 0 469.01 1518.49   Q 461.63 1517.24 454.22 1514.85   Q 453.80 1514.72 453.08 1514.49   Q 441.47 1510.86 432.69 1506.53   Q 428.79 1504.60 426.94 1503.91   Q 425.48 1503.37 424.79 1504.77   Q 420.13 1514.32 415.52 1521.76   Q 403.31 1541.46 395.07 1552.07   Q 391.32 1556.89 379.79 1570.05   Q 368.46 1582.99 349.44 1597.96   Q 348.90 1598.38 347.77 1598.97   Q 346.75 1599.48 346.14 1600.02   Q 341.15 1604.41 337.89 1606.16   Q 335.15 1607.63 331.47 1610.37   Q 329.45 1611.87 324.75 1614.25   Q 324.45 1614.40 324.20 1614.38   Q 324.08 1614.37 323.82 1614.36   Q 323.70 1614.36 323.46 1614.48   Q 318.91 1616.95 314.29 1619.84   Q 312.16 1621.17 309.45 1622.16   Q 308.97 1622.34 304.37 1624.09   Q 279.18 1633.67 256.94 1636.41   Q 247.93 1637.52 227.52 1638.20   Q 227.45 1638.20 226.95 1638.50   Q 226.82 1638.58 226.50 1638.58   Q 214.66 1638.84 198.20 1637.31   Q 188.12 1636.37 178.41 1634.50   Q 152.56 1629.53 127.47 1619.04   Q 125.66 1618.28 111.74 1611.79   Q 109.42 1610.71 106.57 1608.89   Q 102.91 1606.55 101.28 1605.91   A 0.63 0.56 87.7 0 1 100.94 1605.56   Q 100.93 1605.55 100.90 1605.47   Q 100.84 1605.36 100.79 1605.32   L 92.92 1600.05   Q 92.64 1599.87 92.31 1599.87   Q 92.10 1599.87 92.02 1599.83   Q 88.30 1597.67 85.33 1595.03   Q 84.88 1594.62 83.90 1594.36   Q 83.42 1594.22 83.10 1593.83   Q 82.56 1593.16 80.40 1591.39   C 77.68 1589.16 72.56 1585.27 69.13 1581.83   Q 63.29 1575.96 60.96 1573.49   Q 32.60 1543.28 18.10 1505.76   Q 6.98 1476.95 3.65 1444.06   C 2.58 1433.51 3.16 1421.42 3.04 1409.97   Q 2.96 1402.86 3.61 1397.05   Q 4.87 1385.83 5.18 1384.19   Q 8.13 1368.40 12.25 1353.25   Q 12.45 1352.51 12.78 1352.21   Q 13.13 1351.89 13.19 1351.42   Q 13.30 1350.45 13.77 1350.14   Q 14.17 1349.87 14.13 1349.38   C 13.96 1347.18 14.93 1346.03 15.36 1344.61   Q 17.53 1337.31 19.34 1333.35   Q 24.02 1323.13 31.00 1310.45   Q 40.81 1292.63 44.77 1287.51   Q 46.80 1284.88 49.96 1280.53   C 50.44 1279.88 51.56 1278.79 52.09 1277.67   Q 52.52 1276.78 52.98 1276.30   Q 58.42 1270.57 59.08 1269.87   Q 62.72 1265.96 65.51 1263.75   Q 84.93 1248.37 103.97 1240.99   Q 128.45 1231.52 156.19 1230.19   C 158.16 1230.10 160.37 1228.58 162.75 1230.39   Q 163.14 1230.69 163.64 1230.71   C 167.62 1230.89 171.68 1230.79 175.61 1231.14   Q 177.63 1231.33 178.34 1229.55   Q 178.53 1229.09 179.03 1229.13   Q 241.09 1234.10 284.69 1276.88   Q 291.32 1283.38 295.57 1289.43   Q 297.08 1291.57 300.79 1297.37   Q 303.34 1301.36 305.49 1305.63   Q 311.70 1317.98 313.11 1321.62   C 320.17 1339.82 322.97 1359.94 319.54 1379.18   C 316.08 1398.55 308.78 1418.57 296.79 1434.57   Q 291.70 1441.35 287.19 1445.18   Q 285.81 1446.36 285.77 1446.40   Q 281.01 1450.36 278.73 1451.99   A 1.87 1.83 -64.6 0 1 277.80 1452.33   Q 275.88 1452.48 274.72 1454.00   A 1.28 1.26 -75.0 0 1 273.88 1454.49   Q 271.71 1454.79 269.97 1456.57   Q 269.63 1456.92 269.13 1456.88   Q 268.38 1456.82 268.13 1457.58   Q 267.97 1458.04 267.52 1458.18   Q 265.44 1458.82 262.72 1460.17   Q 260.20 1461.42 257.88 1462.18   Q 244.29 1466.60 240.24 1467.30   Q 220.53 1470.71 201.04 1468.06   C 184.72 1465.84 170.90 1458.63 158.88 1447.68   Q 156.13 1445.18 153.75 1444.40   Q 150.31 1443.28 147.62 1443.47   C 142.63 1443.82 145.66 1454.88 146.67 1457.46   Q 147.23 1458.88 148.68 1461.27   C 149.98 1463.39 150.68 1464.96 151.97 1466.27   Q 153.68 1467.99 154.44 1469.57   Q 155.22 1471.20 156.81 1472.90   Q 162.12 1478.60 164.49 1481.00   Q 168.22 1484.77 173.11 1487.63   Q 201.67 1504.32 235.55 1501.81   Q 247.85 1500.89 258.86 1498.05   Q 298.79 1487.73 327.20 1456.21   Q 336.31 1446.09 341.69 1433.96   Q 343.43 1430.04 346.29 1422.08   Q 348.08 1417.10 349.38 1412.29   Q 351.19 1405.64 352.07 1402.38   Q 353.63 1396.60 355.02 1388.29   Q 357.13 1375.77 357.47 1374.08   Q 358.11 1370.94 358.51 1367.69   Z"></path>
  <path fill="#adabd7" d="   M 1025.44 1422.54   A 70.18 70.18 0.0 0 1 955.26 1492.72   A 70.18 70.18 0.0 0 1 885.08 1422.54   A 70.18 70.18 0.0 0 1 955.26 1352.36   A 70.18 70.18 0.0 0 1 1025.44 1422.54   Z   M 991.31 1365.86   Q 990.93 1364.67 989.48 1364.59   A 2.09 2.06 61.3 0 1 988.58 1364.32   Q 974.43 1356.02 957.65 1355.38   Q 945.92 1354.94 934.11 1358.65   Q 931.71 1359.40 931.42 1359.59   Q 930.90 1359.94 930.53 1359.88   Q 929.69 1359.74 929.21 1360.43   A 1.18 1.18 0.0 0 1 928.75 1360.81   Q 925.08 1362.46 924.67 1362.68   Q 902.66 1374.42 893.17 1396.81   C 876.74 1435.52 900.77 1480.44 942.09 1488.47   Q 956.89 1491.35 970.89 1487.89   Q 1002.71 1480.03 1016.27 1450.84   Q 1023.41 1435.44 1022.15 1416.51   Q 1021.46 1406.27 1017.62 1397.17   Q 1011.79 1383.34 1001.67 1373.77   Q 999.83 1372.04 992.49 1366.54   Q 992.35 1366.43 992.18 1366.41   Q 991.97 1366.38 991.91 1366.37   A 0.75 0.74 -4.4 0 1 991.31 1365.86   Z"></path>
</svg>
